<?xml version="1.0" standalone="no"?>
<!DOCTYPE svg PUBLIC "-//W3C//DTD SVG 1.1//EN" "http://www.w3.org/Graphics/SVG/1.1/DTD/svg11.dtd" >
<svg>
<metadata>
Created by FontForge 20120731 at Thu Jul  4 20:01:36 2019
 By www-data
Copyright 2011 The Londrina Outline Authors (https://github.com/marcelommp/Londrina-Typeface), with Reserved Font Name "Londrina Outline"
</metadata>
<defs>
<font id="LondrinaOutline-Regular" horiz-adv-x="434" >
  <font-face 
    font-family="Londrina Outline"
    font-weight="400"
    font-stretch="normal"
    units-per-em="1000"
    panose-1="0 0 5 0 0 0 0 0 0 0"
    ascent="800"
    descent="-200"
    x-height="505"
    cap-height="713"
    bbox="-134 -215 985 940"
    underline-thickness="50"
    underline-position="-50"
    unicode-range="U+000D-FB04"
  />
<missing-glyph horiz-adv-x="238" 
 />
    <glyph glyph-name="f_f" unicode="ff" horiz-adv-x="789" 
d="M477 504q-1 5 -1 15q0 14 4 38q13 80 54 117.5t96 46.5t150 9q16 0 20 -20t4 -56q0 -29 -2.5 -48.5t-11.5 -28.5q-107 0 -145 -19l-7 -7q-10 -18 -10 -39q0 -9 3 -17h161l-1 -47q0 -28 -2.5 -52t-5.5 -30q-17 2 -51 2l-59 -1q-14 0 -44 2v-373q-26 2 -44 2q-24 -6 -64 -6
h-10q-11 0 -17 1.5t-11 6.5q0 62 -4 184q-5 103 -5 184l-243 1v-373q-28 2 -45 2q-24 -6 -64 -6q-29 0 -36.5 8t-7.5 31q0 57 2 169t2 168q-12 0 -38 -2l-36 -1q-1 0 -1 28.5t-3 106.5q2 7 35 7q19 0 33 -2h7q0 108 44 157t104 58.5t165 9.5q8 -8 10 -21t2 -31
q0 -77 -12 -101q-69 0 -115 -8.5t-46 -42.5q0 -14 3 -23h48zM230 493q-9 4 -9 35q0 36 43.5 46.5t122.5 12.5q0 14 4 40q4 32 4 49q0 23 -7 44q-94 0 -152.5 -8.5t-103 -50.5t-44.5 -134q0 -8 1 -20t2 -12q-20 0 -24 1h-53l3 -119q21 0 32 1q31 0 47 1q0 -62 -2 -188
l-1 -187q6 -1 17 -1q16 0 28 1t20 2q21 3 40 3q7 0 23 -2v371l53 1q68 2 101 2q61 0 109 -4q0 -60 4 -186q5 -105 5 -188q4 -1 12 -1q18 0 50 4q8 1 18.5 2t22.5 1q7 0 23 -2v373q22 -2 40 -2l62 1q29 0 57 -3l1 100q-1 4 -1 9l-155 -3l-2 13q-2 5 -2 16q0 36 22.5 52
t52 19.5t92.5 4.5q9 34 9 69q0 39 -9 64q-95 0 -153.5 -9t-102.5 -53t-44 -138q0 -7 2 -19l1 -8h-259z" />
    <glyph glyph-name="f_f_i" unicode="ffi" horiz-adv-x="954" 
d="M799 677q0 -77 -12 -101q-97 0 -143 -16q-17 -14 -17 -44q0 -14 2 -21h145v2q-2 4 -2 13q0 15 1 19.5t3 5.5t3 2l75 -1q50 -2 75 -2q0 -61 -4 -183q-1 -31 -2 -76.5t-1 -104.5q0 -91 4 -163q0 -8 -16 -11.5t-34 -3.5q-27 0 -61.5 3.5t-43.5 4.5q-2 0 -3 1q6 114 6 284v81
q-17 2 -51 2l-57 -1q-14 0 -40 2l2 -369q-7 1 -21 1q-15 0 -25.5 -1t-18.5 -2q-32 -4 -54 -4q-21 0 -29 8q0 60 -4 182q-5 100 -5 181q-41 0 -121 2t-121 2v-364l-5 -5q-13 1 -39 1q-30 -7 -65 -7q-21 0 -29 3.5t-10 13t-2 35.5l1 162q1 53 1 160l-69 -1q-9 4 -9 76l-1 37
q0 15 8.5 20.5t36.5 5.5q18 0 24 -2h7q0 102 40.5 151t99.5 61t152 12q15 0 21.5 -5t9.5 -5h-4q5 -23 5 -41q0 -77 -12 -101q-69 0 -115 -8.5t-46 -42.5q0 -14 3 -23l242 1q-1 5 -1 15q0 14 4 38q13 80 53.5 117t95 46t146.5 9q13 0 17.5 -5t8.5 -5h-4q5 -23 5 -41zM228 492
q-9 4 -9 35q0 36 43.5 46.5t122.5 12.5q0 13 1 22.5t2 16.5q1 8 2 20t1 29q0 25 -5 44q-93 0 -150.5 -8.5t-103 -51.5t-45.5 -136q0 -7 2 -21q-7 -8 -11 -8t-12 2h-52l3 -118l75 1q0 -56 -2 -168q-2 -114 -2 -169q0 -37 15 -37q18 0 50 4t43 4q7 0 23 -2v369q100 -1 263 -5
q0 -60 4 -184t4 -185l10 -1q16 0 50 4q30 4 43 4q7 0 23 -2v363l5 6q14 -1 43 -1h81q36 0 39 -7v-81q0 -169 -6 -282l8 1q13 0 41 -4t45 -4q27 0 44 8q-4 71 -4 160q0 88 3 178q2 118 2 177q-23 0 -67 2l-67 1l-1 -8q0 -8 1 -14t1 -9q0 -6 -2 -8l-3 -3h-154q-9 5 -9 34
t22 43t54.5 18t89.5 6q0 13 1 22.5t2 16.5q1 8 2 20t1 29q0 25 -5 44q-97 0 -149 -7t-93 -42.5t-54 -115.5q-4 -22 -4 -35q0 -12 2 -18l1 -7z" />
    <glyph glyph-name="f_f_l" unicode="ffl" horiz-adv-x="1010" 
d="M638 551q-10 -18 -10 -39q0 -9 3 -17h160v-47q0 -28 -2.5 -52t-5.5 -30q-17 2 -51 2l-59 -1q-14 0 -44 2l1 -371q-4 -1 -11 -1t-17 1t-17 0q-24 -6 -64 -6h-10q-11 0 -17 1.5t-11 6.5q0 61 -4 183q-5 100 -5 182q-41 0 -121 2q-82 2 -122 2l2 -371q-4 -1 -12 -1
q-7 0 -17.5 1t-17.5 0q-24 -6 -64 -6q-29 0 -36.5 8t-7.5 31q0 57 2 169t2 168l-76 -1l-2 133q5 5 13.5 6t29.5 1q19 0 25 -2h7q0 108 44 157t104 58.5t165 9.5q8 -8 10 -21t2 -31q0 -77 -12 -101q-69 0 -115 -8.5t-46 -42.5q0 -14 3 -23h48l195 1q-1 5 -1 15q0 14 4 38
q13 80 54 117.5t96 46.5t150 9q16 0 20 -20t4 -56q0 -29 -2.5 -48.5t-11.5 -28.5q-107 0 -145 -19zM985 4q0 -7 -15.5 -10.5t-33.5 -3.5q-30 0 -59 3q-32 2 -42 2l-9 -1q3 56 3 117q0 70 -6 214q-6 142 -6 213q0 129 7 192l157 -3q0 -90 -2 -268t-2 -266q0 -118 8 -189z
M641.5 563q22.5 16 52 19.5t92.5 4.5q9 34 9 69q0 39 -9 64q-95 0 -153.5 -9t-102.5 -53t-44 -138q0 -7 2 -19v-8h-258q-9 4 -9 35q0 36 43.5 46.5t122.5 12.5q0 14 4 40q4 32 4 49q0 23 -7 44q-94 0 -152.5 -8.5t-103 -50.5t-44.5 -134q0 -17 2 -25q-7 -8 -11 -8t-12 2h-53
l3 -119l79 1q0 -62 -2 -188l-1 -186q6 -1 17 -1q16 0 28 1t20 2q21 3 40 3q7 0 23 -2l-1 371h32q35 0 105 -2q16 0 55.5 -1.5t70.5 -0.5q8 -94 8 -253l2 -118q4 -1 12 -1q18 0 50 4q8 1 18.5 2t22.5 1q7 0 23 -2v372q11 -1 40 -1l62 1q29 0 57 -3l1 100q-1 4 -1 9
q-70 3 -104 3q-42 0 -54 -3q-2 4 -1.5 14t0.5 12q0 36 22.5 52zM974 6q-5 55 -5 134v85q-1 41 -1 122l1 185q1 62 1 185l-135 3q-7 -71 -7 -152q0 -70 6 -210q1 -27 3 -93t2 -118q0 -71 -3 -142q19 0 43 -3q8 -1 24.5 -2t28.5 -1q25 0 42 7zM618.5 484q-0.5 1 1.5 1v-1
q-1 -1 -1.5 0z" />
    <glyph glyph-name="fi" unicode="fi" horiz-adv-x="555" 
d="M400 674q0 -16 -4 -48q-1 -8 -2 -20t-1 -27q-5 -5 -60 -9q-27 -2 -53 -5.5t-37 -8.5q-7 -7 -11.5 -19.5t-4.5 -25.5q0 -10 3 -18h146q-2 8 -2 15q0 15 1 19.5t3 5.5t3 2h147q0 -60 -1 -105t-2 -75q-4 -122 -4 -183q0 -99 6 -165q0 -8 -16 -11.5t-34 -3.5q-31 0 -108 9
q5 81 6 176.5t1 187.5q-22 1 -66 1q-55 0 -82 2v-368q-13 1 -44 1q-30 -7 -64 -7q-20 0 -29 4.5t-11.5 14t-2.5 29.5l1 162q2 108 2 163q-12 0 -36 -2t-36 -2q-1 0 -1.5 27.5t-3.5 99.5q5 5 14 6t29 1q18 0 24 -2h7q0 106 40.5 156.5t100 62.5t156.5 12l19 -1q7 -33 7 -51z
M379 8l8 1q13 0 41 -4q26 -4 43 -4q28 0 45 8q-5 64 -5 154q0 60 4 180q1 29 2 84t1 95q-22 0 -66 2l-67 1l-1 -8q0 -8 1 -14t1 -9q0 -6 -2 -8l-3 -3h-154l-4 1.5t-4 18.5q0 22 3 36t15 25q10 9 57 14t89 6q0 13 1 22.5t2 16.5q4 32 4 49q0 22 -6 44q-96 0 -154.5 -9.5
t-101 -53.5t-42.5 -139l1 -13q0 -16 -22 -15h-52l3 -110q11 -1 19 -0.5t14 0.5q8 1 23 1q13 0 19 -1q0 -40 -2 -120t-2 -118q0 -33 3 -66q2 -44 2 -66q5 -1 14 -1q16 0 48 4q7 1 17.5 2t23.5 1q7 0 23 -2v369l170 -4q0 -185 -9 -367z" />
    <glyph glyph-name="fl" unicode="fl" horiz-adv-x="562" 
d="M314 372q-55 0 -83 2l1 -374l-45 1q-34 -8 -69 -8q-20 0 -31 4q-9 18 -9 55q0 56 2 162t2 159l-71 -1q-9 5 -9 91q0 35 6 41l71 -1q0 72 21.5 129.5t77.5 79.5q39 16 110 23q16 2 46 2q36 0 64 -1l71 -1q24 -1 70 -1q0 -101 -4 -307q-5 -172 -5 -308q0 -66 5 -112
q0 -8 -15 -11.5t-32 -3.5q-23 0 -46 3q-30 2 -42 2q-11 0 -26 -3l7 377q-23 1 -67 1zM391 297q0 -175 -6 -290l15 1q14 0 24 -1t17 -2q28 -4 41 -4q25 0 42 8q-4 45 -4 104q0 102 4 306q1 50 2 126.5t1 178.5q-13 -1 -41 -1q-21 0 -71 2t-78 2q-75 0 -128.5 -15t-87 -59.5
t-33.5 -127.5q0 -18 3 -33l-39 1q-13 1 -39 1l3 -112l78 1q0 -86 -3 -172q-1 -29 -2 -82.5t-1 -92.5q0 -15 4 -23.5t17 -8.5q16 0 48 4q28 4 41 4q7 0 23 -2l-1 373l171 -3v-83zM230 491q-9 3 -9 10l1 11q0 51 19.5 68t60.5 17q79 0 89 -9v-92l-1 -6zM381 501v82
q-13 0 -39 2q-28 2 -40 2q-34 0 -52 -13t-18 -50v-12q0 -8 1 -11h148z" />
    <glyph glyph-name=".notdef" horiz-adv-x="238" 
 />
    <glyph glyph-name="NULL" horiz-adv-x="0" 
 />
    <glyph glyph-name="NULL" horiz-adv-x="0" 
 />
    <glyph glyph-name="nonmarkingreturn" unicode="&#xd;" horiz-adv-x="200" 
 />
    <glyph glyph-name="space" unicode=" " horiz-adv-x="200" 
 />
    <glyph glyph-name="A" unicode="A" 
d="M382 -10q-22 0 -50 2.5t-34 9.5q-10 23 -20 73q-6 30 -11.5 49.5t-14.5 37.5q-8 0 -17 1t-17 1q-4 -2 -10 -2l-12 1q-9 -19 -12.5 -43.5t-4.5 -29.5q-4 -31 -9.5 -52.5t-16.5 -39.5l-2 -1l-4 -2h1l-9 -1l-60 1q-50 2 -77 2l-1 1l-2 5q5 17 7 42q2 18 4 25q57 361 142 631
l5 4h5q6 3 64 3q14 1 28.5 1t25.5 1q8 -9 14.5 -37.5t7.5 -33.5l5 -25q39 -168 120 -543l15 -68v-3q-5 -10 -60 -10zM431 4l-63 287q-53 237 -71 320q-1 5 -9 35q-10 36 -12 54q-47 -5 -115 -5q-90 -286 -141 -628q-1 -8 -3.5 -27.5t-6.5 -33.5q66 -3 94 -3q31 0 41 2
q10 16 15.5 37.5t10.5 51.5q8 52 18 76l4 3h21q3 2 12 2t18 -1.5t16 -4.5q13 -25 19.5 -55t7.5 -35q9 -46 18 -70q10 -1 24 -3.5t23 -3.5q20 -2 31 -2q27 0 48 4zM200 280q-12 0 -19 7q19 213 39 213h4q16 -19 23.5 -61t12.5 -106q1 -11 2 -23t3 -24l-5 -5zM254 291
q-12 101 -21 154q-1 4 -3 20t-8 23q-11 -34 -16.5 -69.5t-10.5 -90.5l-4 -38q6 -1 19 -1q14 0 44 2z" />
    <glyph glyph-name="Aacute" unicode="&#xc1;" 
d="M337 813q-57 -47 -66 -65q-7 -7 -62 -7q-29 0 -52.5 2.5t-27.5 6.5v8q28 24 80 78q48 53 87 85q13 -7 26 -19t31 -32l19 -20v-6q-7 -7 -35 -31zM299 910q-34 -27 -93 -90q-31 -33 -64 -64q33 -6 72 -6q28 0 48 4q6 11 24.5 28.5t38.5 33.5q23 18 36 31zM382 -10
q-22 0 -50 2.5t-34 9.5q-10 23 -20 73q-6 30 -11.5 49.5t-14.5 37.5q-5 1 -15 1l-29 -1l-12 1q-9 -19 -12.5 -43.5t-4.5 -29.5q-4 -31 -9.5 -52.5t-16.5 -39.5l-2 -1l-4 -2h1l-9 -1l-60 1q-50 2 -77 2l-1 1l-2 5q0 11 3.5 27.5t5.5 24.5q11 56 14 77q36 191 63.5 317.5
t66.5 251.5l5 4h5q6 3 64 3q14 1 28.5 1t25.5 1q10 -11 19 -60q16 -80 41 -180l27 -117l75 -350v-3q-5 -10 -60 -10zM431 4q-4 20 -60 271q-8 37 -35 155t-47 217l-5 20q-7 18 -8 33q-47 -5 -115 -5q-39 -124 -66.5 -250t-61.5 -313l-15 -80q-2 -7 -5.5 -21.5t-3.5 -24.5
q63 -3 94 -3t42 2q10 16 15.5 37.5t10.5 51.5q8 52 18 76l4 3l33 2q9 0 18 -1.5t16 -4.5q13 -25 19.5 -55t7.5 -35q9 -46 18 -70q10 -1 24 -3.5t23 -3.5q20 -2 31 -2q27 0 48 4zM200 280q-12 0 -19 7q19 213 39 213h4q16 -19 23.5 -61t12.5 -106q1 -11 2 -23t3 -24l-5 -5z
M254 291q-12 101 -21 154q-1 4 -3 20t-8 23q-11 -34 -16.5 -69.5t-10.5 -90.5l-4 -38q6 -1 19 -1q14 0 44 2z" />
    <glyph glyph-name="Acircumflex" unicode="&#xc2;" 
d="M354 747q-33 -5 -50 -5q-32 0 -49.5 11.5t-28.5 32.5l-8 8q-9 -7 -28 -26q-11 -13 -21.5 -18.5t-37.5 -5.5q-39 0 -72 6l-3 9q26 34 56 64t75 70l31 29q2 -1 7 -1l163 -162l-4 -8q-10 0 -30 -4zM271 861l-50 50l-39 -36q-44 -41 -68 -64.5t-46 -51.5q32 -4 69 -4
q23 0 34 6.5t22 20.5q14 17 22 22h6q9 -6 25 -26l14 -16l9 -6q40 -2 60 -2q7 0 12 1t9 2l22 3q-51 50 -101 101zM382 -10q-22 0 -50 2.5t-34 9.5q-10 23 -20 73q-6 30 -11.5 49.5t-14.5 37.5q-5 1 -15 1l-29 -1l-12 1q-9 -19 -12.5 -43.5t-4.5 -29.5q-4 -31 -9.5 -52.5
t-16.5 -39.5l-2 -1l-4 -2h1l-9 -1l-60 1q-50 2 -77 2l-1 1l-2 5q5 17 7 42q2 18 4 25q57 361 142 631l5 4h5q6 3 64 3q14 1 28.5 1t25.5 1q8 -9 14.5 -37.5t7.5 -33.5l5 -25q39 -168 120 -543l15 -68v-3q-5 -10 -60 -10zM431 4l-63 287q-53 237 -71 320q-1 5 -9 35
q-10 36 -12 54q-47 -5 -115 -5q-90 -286 -141 -628q-1 -8 -3.5 -27.5t-6.5 -33.5q66 -3 94 -3q31 0 41 2q10 16 15.5 37.5t10.5 51.5q8 52 18 76l4 3l33 2q9 0 18 -1.5t16 -4.5q13 -25 19.5 -55t7.5 -35q9 -46 18 -70q10 -1 24 -3.5t23 -3.5q20 -2 31 -2q27 0 48 4zM200 280
q-12 0 -19 7q19 213 39 213h4q16 -19 23.5 -61t12.5 -106q1 -11 2 -23t3 -24l-5 -5zM254 291q-12 101 -21 154q-1 4 -3 20t-8 23q-11 -34 -16.5 -69.5t-10.5 -90.5l-4 -38q6 -1 19 -1q14 0 44 2z" />
    <glyph glyph-name="Adieresis" unicode="&#xc4;" 
d="M58 792q0 19 3 37q2 22 2 30l3 6q22 9 58 9q51 0 58 -15q-3 -19 -3 -44q0 -45 -8 -62l-99 1h-3q-11 6 -11 38zM232 792q0 19 3 37q2 22 2 30l3 6q22 9 58 9q51 0 58 -15q-3 -19 -3 -44q0 -45 -8 -62l-99 1h-3q-11 6 -11 38zM171 858q-16 6 -38 6q-23 0 -60 -7
q0 -9 -2 -31q-3 -18 -3 -36q0 -17 4 -26l94 -1q0 64 5 95zM345 858q-16 6 -38 6q-23 0 -60 -7q0 -9 -2 -31q-3 -18 -3 -36q0 -17 4 -26l94 -1q0 64 5 95zM382 -10q-22 0 -50 2.5t-34 9.5q-10 23 -20 73q-6 30 -11.5 49.5t-14.5 37.5q-8 0 -17 1t-17 1q-4 -2 -10 -2l-12 1
q-9 -19 -12.5 -43.5t-4.5 -29.5q-4 -31 -9.5 -52.5t-16.5 -39.5l-2 -1l-4 -2h1l-9 -1l-60 1q-50 2 -77 2l-1 1l-2 5q5 17 7 42q2 18 4 25q57 361 142 631l5 4h5q6 3 64 3q14 1 28.5 1t25.5 1q8 -9 14.5 -37.5t7.5 -33.5l5 -25q39 -168 120 -543l15 -68v-3q-5 -10 -60 -10z
M431 4l-63 287q-53 237 -71 320q-1 5 -9 35q-10 36 -12 54q-47 -5 -115 -5q-90 -286 -141 -628q-1 -8 -3.5 -27.5t-6.5 -33.5q66 -3 94 -3q31 0 41 2q10 16 15.5 37.5t10.5 51.5q8 52 18 76l4 3h21q3 2 12 2t18 -1.5t16 -4.5q13 -25 19.5 -55t7.5 -35q9 -46 18 -70
q10 -1 24 -3.5t23 -3.5q20 -2 31 -2q27 0 48 4zM200 280q-12 0 -19 7q19 213 39 213h4q16 -19 23.5 -61t12.5 -106q1 -11 2 -23t3 -24l-5 -5zM254 291q-12 101 -21 154q-1 4 -3 20t-8 23q-11 -34 -16.5 -69.5t-10.5 -90.5l-4 -38q6 -1 19 -1q14 0 44 2z" />
    <glyph glyph-name="Agrave" unicode="&#xc0;" 
d="M226 827l25 -27q4 -5 16.5 -19t25.5 -23v-8q-17 -9 -81 -9q-60 0 -60 7q-4 8 -19 21.5t-25.5 21.5t-15.5 12q-26 20 -37.5 31t-7.5 14l4 3l69 70l4 6q39 -29 102 -100zM60 847l24 -21q66 -54 75 -72q14 -4 49 -4q47 0 71 6q-13 11 -35 37q-41 44 -66.5 69.5t-54.5 47.5z
M382 -10q-22 0 -50 2.5t-34 9.5q-10 23 -20 73q-6 30 -11.5 49.5t-14.5 37.5q-5 1 -16 1q-7 0 -17 -0.5t-23 0.5q-9 -19 -12.5 -43.5t-4.5 -29.5q-4 -31 -9.5 -52.5t-16.5 -39.5l-2 -1l-4 -2h1l-9 -1l-60 1q-50 2 -77 2l-1 1l-2 5q0 11 3.5 27.5t5.5 24.5q11 56 14 77
q36 191 63.5 317.5t66.5 251.5l5 4h5q6 3 64 3q14 1 28.5 1t25.5 1q10 -11 19 -60q16 -80 41 -180l27 -117l75 -350v-3q-5 -10 -60 -10zM431 4q-4 20 -60 271q-8 37 -35 155t-47 217l-5 20q-7 18 -8 33q-47 -5 -115 -5q-39 -124 -66.5 -250t-61.5 -313l-15 -80
q-2 -7 -5.5 -21.5t-3.5 -24.5q63 -3 94 -3t42 2q10 16 15.5 37.5t10.5 51.5q8 52 18 76l4 3l67 -4q13 -25 19.5 -55t7.5 -35q9 -46 18 -70q10 -1 24 -3.5t23 -3.5q20 -2 31 -2q27 0 48 4zM200 280q-12 0 -19 7q19 213 39 213h4q16 -19 23.5 -61t12.5 -106q1 -11 2 -23t3 -24
l-5 -5zM254 291q-12 101 -21 154q-1 4 -3 20t-8 23q-11 -34 -16.5 -69.5t-10.5 -90.5l-4 -38q6 -1 19 -1q14 0 44 2z" />
    <glyph glyph-name="Aring" unicode="&#xc5;" 
d="M208 745q-39 0 -58 10t-25 29.5t-6 54.5t5 54.5t27 33t69 13.5q52 0 71.5 -19.5t19.5 -63.5q0 -38 -14 -82l-1 -1q-19 -29 -88 -29zM296.5 818q4.5 26 4.5 48q0 36 -22.5 50.5t-64.5 14.5q-48 0 -67 -19.5t-19 -75.5q0 -34 7.5 -51.5t24.5 -24t49 -6.5q27 0 49 6.5
t30 18.5l-1 -1q5 14 9.5 40zM215 897q21 0 36.5 -11t15.5 -31q0 -32 -7.5 -48.5t-37.5 -16.5q-26 0 -38 5.5t-16 17.5t-4 36q0 25 19 40l1 1q16 7 31 7zM182.5 808q10.5 -8 28.5 -8q30 0 38 11t8 35q0 41 -42 41q-15 0 -26 -6q-10 -10 -13.5 -19t-3.5 -23q0 -23 10.5 -31z
M382 -10q-22 0 -50 2.5t-34 9.5q-10 23 -20 73q-6 30 -11.5 49.5t-14.5 37.5q-8 0 -17 1t-17 1q-4 -2 -10 -2l-12 1q-9 -19 -12.5 -43.5t-4.5 -29.5q-4 -31 -9.5 -52.5t-16.5 -39.5l-2 -1l-4 -2h1l-9 -1l-60 1q-50 2 -77 2l-1 1l-2 5q5 17 7 42q2 18 4 25q57 361 142 631
l5 4h5q6 3 64 3q14 1 28.5 1t25.5 1q8 -9 14.5 -37.5t7.5 -33.5l5 -25q39 -168 120 -543l15 -68v-3q-5 -10 -60 -10zM431 4l-63 287q-53 237 -71 320q-1 5 -9 35q-10 36 -12 54q-47 -5 -115 -5q-90 -286 -141 -628q-1 -8 -3.5 -27.5t-6.5 -33.5q66 -3 94 -3q31 0 41 2
q10 16 15.5 37.5t10.5 51.5q8 52 18 76l4 3h21q3 2 12 2t18 -1.5t16 -4.5q13 -25 19.5 -55t7.5 -35q9 -46 18 -70q10 -1 24 -3.5t23 -3.5q20 -2 31 -2q27 0 48 4zM200 280q-12 0 -19 7q19 213 39 213h4q16 -19 23.5 -61t12.5 -106q1 -11 2 -23t3 -24l-5 -5zM254 291
q-12 101 -21 154q-1 4 -3 20t-8 23q-11 -34 -16.5 -69.5t-10.5 -90.5l-4 -38q6 -1 19 -1q14 0 44 2z" />
    <glyph glyph-name="Atilde" unicode="&#xc3;" 
d="M115 750q-21 0 -30 3l-68 -1l-5 6q17 66 53 117.5t89 51.5q29 0 46 -11t36 -32q13 -15 22.5 -22.5t22.5 -10.5q19 3 32 21t18 39q14 7 44 7l28 -1l15 1l4 -2l1 -1q0 -4 2 -4q0 -72 -30 -119.5t-90 -47.5q-29 0 -44 10.5t-31 31.5q-12 15 -22 23t-27 8q-18 0 -32 -10
t-14 -30q0 -4 2 -11.5t2 -11.5l-5 -5q-6 1 -19 1zM125 773q0 23 16.5 39.5t40.5 16.5q20 0 31 -8.5t21 -25.5q13 -20 27 -30.5t44 -10.5q54 0 82 43.5t28 109.5l-40 -1q-32 0 -35 -1q-4 -19 -15 -33.5t-23.5 -22.5t-20.5 -8q-12 0 -21.5 8t-22.5 24q-14 18 -22 24
q-24 19 -62 19q-37 0 -62 -23.5t-38.5 -53.5t-28.5 -77l22 1q14 2 23 2q10 0 21 -3q24 0 37 -2q-2 8 -2 13zM382 -10q-22 0 -50 2.5t-34 9.5q-10 23 -20 73q-6 30 -11.5 49.5t-14.5 37.5q-5 1 -15 1l-29 -1l-12 1q-9 -19 -12.5 -43.5t-4.5 -29.5q-4 -31 -9.5 -52.5
t-16.5 -39.5l-2 -1l-4 -2h1l-9 -1l-60 1q-50 2 -77 2l-1 1l-2 5q5 17 7 42q2 18 4 25q57 361 142 631l5 4h5q6 3 64 3q14 1 28.5 1t25.5 1q10 -11 19 -60q16 -80 41 -180l27 -117l75 -350v-3q-5 -10 -60 -10zM431 4q-4 20 -60 271q-8 37 -35 155t-47 217l-5 20q-7 18 -8 33
q-47 -5 -115 -5q-90 -286 -141 -628q-1 -8 -3.5 -27.5t-6.5 -33.5q66 -3 94 -3q31 0 41 2q10 16 15.5 37.5t10.5 51.5q8 52 18 76l4 3h21q8 2 14 2q18 0 32 -6q13 -25 19.5 -55t7.5 -35q9 -46 18 -70q10 -1 24 -3.5t23 -3.5q20 -2 31 -2q27 0 48 4zM200 280q-12 0 -19 7
q19 213 39 213h4q16 -19 23.5 -61t12.5 -106q1 -11 2 -23t3 -24l-5 -5zM254 291q-12 101 -21 154q-1 4 -3 20t-8 23q-11 -34 -16.5 -69.5t-10.5 -90.5l-4 -38q6 -1 19 -1q14 0 44 2z" />
    <glyph glyph-name="AE" unicode="&#xc6;" horiz-adv-x="716" 
d="M690 -1q-44 0 -130 -2l-129 -1q-84 0 -151 4q-7 4 -19.5 48t-13.5 63q-7 -1 -22 -1q-14 0 -24 3h-17q-4 -9 -17 -60q-2 -8 -8 -30t-8 -24h-2l-3 -2q-47 -2 -142 -2l-7 5q21 142 52.5 284.5t81.5 340.5l17 69l5 4q146 8 387 8h155l5 -5v-146q-8 -14 -82 -14l-113 1
q-40 0 -72 -4q0 -11 -2 -35q-3 -18 -3 -37q0 -23 6 -37q17 -4 41 -4l47 1q21 0 31 -2q8 -17 8 -51q0 -31 -1 -46l-1 -47q-5 -11 -45 -11l-24 1q-8 1 -23 1q-5 -1 -15 -1q-9 0 -14 -2q-6 -32 -6 -62q0 -37 10 -58q32 -3 96 -3l108 1q52 0 57 -9v-3l1 -48q0 -73 -14 -87z
M693 132q-85 6 -254 6q-9 4 -12.5 21.5t-3.5 34.5q0 4 3 43q0 5 0.5 22.5t13 20t45.5 2.5l35 -1q7 0 16.5 1t12.5 2q0 27 1 40l1 42q0 24 -3 49q-11 2 -34 2l-42 -1q-22 0 -41 4q-13 7 -13 48q0 20 3 38q2 24 2 35q11 11 57 11l59 -1q19 -1 58 -1q52 0 93 8v138h-153
q-236 0 -380 -8l-13 -53q-53 -208 -84.5 -347.5t-52.5 -281.5q15 4 45 4q6 0 69 -3l22 -1q18 84 34 114q4 4 18 4q3 0 11 -2h17q27 0 34 -6q0 -21 14 -61q11 -26 13 -45q69 -4 156 -4q55 0 165 2l82 1q7 41 7 86q0 25 -1 37zM228 276q-38 0 -47 9q0 61 32 135v1l1 2h9
q26 -81 36 -134l-2 -6q-9 -7 -29 -7zM221.5 289q13.5 -2 22.5 -2l4 2q-4 26 -13 57t-18 60q-22 -57 -26 -116q3 1 10 1t20.5 -2z" />
    <glyph glyph-name="B" unicode="B" horiz-adv-x="480" 
d="M356.5 4.5q-49.5 -15.5 -114.5 -15.5q-20 0 -64 2h-25q-106 0 -113 12q-2 58 -2 175l1 319q0 130 -2 196q15 15 70 22t109 7q92 0 138 -33l20 -14q15 -10 19.5 -14.5t12.5 -16t16 -22.5q14 -19 18 -43.5t4 -57.5q0 -55 -19 -94.5t-68 -64.5q-3 -2 -5.5 -3.5t-5.5 -3.5
q0 -2 2 -2q69 -32 96 -75t27 -118v-15q-1 -5 -4.5 -24.5t-9 -34.5t-13.5 -24q-38 -42 -87.5 -57.5zM446 249q-13 38 -48 64q-7 5 -25 13q-17 7 -26 13t-14 15q0 5 8 12.5t24 18.5q14 11 28 23t21 23q22 38 22 86q0 59 -29.5 103t-81 67.5t-115.5 23.5q-68 0 -161 -22
q2 -64 2 -193l-1 -315q0 -115 2 -172q8 -2 14 -2l20 1l59 -3q64 -4 101 -4q64 0 112.5 14.5t75.5 53.5q10 15 14 26.5t6.5 26t4.5 24.5v15q0 50 -13 88zM284 431.5q-41 -22.5 -91 -22.5q-21 0 -27 8t-6 26q0 16 2 48l1 47l-1 22q4 9 20.5 13t34.5 4q32 0 60.5 -12.5
t39.5 -35.5q8 -21 8 -35q0 -40 -41 -62.5zM174 557l1 -23l-1 -38q-2 -26 -2 -39l-1 -16q0 -9 4.5 -13.5t18.5 -4.5q45 0 82 18t37 52q0 16 -7 31q-9 19 -35.5 30t-55.5 11q-23 0 -41 -8zM291 142q-28 -15 -78 -15q-13 0 -43 2q-15 29 -15 105q0 23 2.5 38.5t9.5 29.5
q45 0 68 -2t44 -15.5t33 -43.5q7 -24 7 -44q0 -40 -28 -55zM167 234q0 -28 9 -93q45 -3 51 -3q36 0 57 13t21 50q0 21 -5 37q-10 26 -28.5 37t-38 13t-60.5 2q-6 -27 -6 -56z" />
    <glyph glyph-name="C" unicode="C" horiz-adv-x="488" 
d="M192 529l-1 -3l-1 -1q-6 -19 -6 -51l1 -32q1 -9 1 -24q0 -17 -2 -53q-2 -38 -2 -58q0 -60 14.5 -105.5t55.5 -45.5q16 0 30 7.5t23 21.5q6 10 8 31.5t2 25.5q1 23 3 34.5t7 14.5q9 -3 19 -3q8 0 24 2q14 3 26 3q43 0 65 -8q14 -15 14 -74q0 -64 -29 -116t-85 -82.5
t-133 -30.5q-106 0 -158 55q-19 20 -27.5 45.5t-10 46t-2.5 67.5q-2 58 -2 89v110l1 71q1 23 1 70q-2 5 -2 16q0 20 14 54q27 67 69.5 97t122.5 30q64 0 120 -34t89.5 -90.5t33.5 -119.5q0 -38 -11 -70q-10 -10 -59 -10q-66 0 -97 15q-3 13 -5 43q-1 28 -4.5 45t-16 29
t-38.5 12q-6 -2 -17 -3t-17.5 -3t-12.5 -8q-4 -9 -5 -11v1zM239 564q32 0 48.5 -15.5t21 -36.5t5.5 -52q0 -5 1 -15t2 -16q56 -10 88 -10q31 0 50 6q11 35 11 67q0 60 -33.5 113t-89.5 85t-122 32q-51 0 -93 -21.5t-66.5 -62.5t-24.5 -97q3 -10 3 -28q0 -34 -3 -91
q-2 -26 -2 -43q0 -41 2 -121l1 -61q0 -8 0.5 -43t9.5 -63t27 -47q48 -52 149 -52q74 0 128 28t82.5 77.5t28.5 112.5q0 35 -9 66q-8 3 -24 3q-15 0 -22 2q-19 0 -29 -1l-29 -1q-15 0 -22 1q-3 -13 -3 -39q0 -32 -5 -47q-8 -23 -25.5 -35.5t-38.5 -12.5q-46 0 -64.5 45.5
t-18.5 124.5q0 28 3 103l-1 44q0 63 14 81l1 2q18 18 49 18z" />
    <glyph glyph-name="Ccedilla" unicode="&#xc7;" horiz-adv-x="476" 
d="M218 699q9 -1 27 -1q70 -2 118.5 -33t72.5 -81.5t24 -110.5q0 -20 -3 -44.5t-9 -24.5h1l-2 -1h-1q-6 -2 -23.5 -5t-28.5 -3q-21 0 -49.5 3.5t-39.5 9.5q-4 12 -5.5 27t-2.5 19q-2 23 -5.5 38t-12.5 29q-6 5 -15 8.5t-14 5.5q-30 0 -44.5 -12.5t-18 -31.5t-4.5 -51l-1 -45
q-2 -48 -2 -88q0 -61 14.5 -109t55.5 -48q18 0 32.5 11.5t21.5 32.5q5 19 5 45q0 24 2 36q11 5 27.5 6.5t42.5 1.5q44 0 66 -8q13 -13 13 -71q0 -55 -22.5 -105t-65 -81.5t-98.5 -32.5l-5 -23q-12 -56 -23 -88v-1q-8 -8 -77 -8q-12 0 -16 1.5t-7 7.5q0 24 24 113
q-64 0 -95.5 41.5t-39 97t-7.5 132.5v150q1 39 5 117q0 73 38 124t114 51zM38 257q0 -68 6 -121.5t33 -96t82 -42.5q12 0 18 1l5 -5q0 -15 -5 -31.5t-6 -21.5q-3 -8 -7 -24q-3 -8 -5.5 -22.5t-2.5 -16.5q10 -2 16 -2q9 0 31 2t33 2q2 19 20 79l10 34q2 0 8 2l-3 1
q54 0 95 30t63 78t22 101q0 32 -9 62q-8 3 -24 3q-15 0 -22 2h-34q-9 -3 -21 -3l-21 1q-2 -10 -2 -30q0 -48 -19 -73.5t-49 -25.5q-48 0 -64.5 49.5t-16.5 131.5q0 28 2 78q2 30 2 42q1 31 4.5 52t19 37t47.5 16q25 0 37.5 -13t17.5 -31.5t8 -49.5q1 -6 2.5 -18.5t3.5 -19.5
q13 0 39 -4q22 -5 39 -5q10 0 28 4q4 1 9.5 2t13.5 1q8 32 8 63q0 56 -24 106t-70 80q-30 20 -66 24t-95 4q-45 0 -70 -8q-40 -13 -61 -61.5t-21 -95.5q-6 -112 -6 -167z" />
    <glyph glyph-name="D" unicode="D" horiz-adv-x="482" 
d="M451.5 497q13.5 -50 13.5 -116q0 -19 -2 -79q0 -7 -5 -40q-5 -25 -5 -44l-1 -1q-1 -11 -9 -28t-10 -21q-20 -46 -49.5 -90.5t-62.5 -77.5q-59 -4 -131 -4l-129 1q0 -4 1 -7l-4 7h-23l22 2h-1q-2 1 -5 1q-17 138 -17 342l1 129q1 43 1 129l-1 86l2 4q-1 0 -1 -1
q3 18 117 18l66 1q42 0 71 -6t55.5 -25t51.5 -57q41 -73 54.5 -123zM455 384q0 64 -13 112.5t-53 118.5q-40 59 -106 81q-18 -1 -53 -1h-62q-77 0 -123 -9v-1l1 -91q0 -83 -1 -124l-1 -125q0 -200 16 -338l137 -1q67 0 120 4q46 58 77 107t48 101v-1l2 2h-1q0 19 5 44
q5 33 5 40q2 62 2 81zM36 689zM310.5 445q23.5 -49 23.5 -105q0 -40 -29 -89l1 1q-7 -14 -23.5 -28t-27.5 -14q-3 0 -4 1q-12 -3 -37 -3q-23 0 -31 10t-8 30q0 10 1 20.5t1 22.5v193q10 10 60 10t73.5 -49zM324 348q0 30 -10 62t-30 53.5t-48 21.5q-9 0 -24 -2t-25 -3l1 -39
q1 -12 1 -37q0 -23 -2 -71t-2 -73q0 -18 3.5 -28.5t15.5 -13.5q6 0 18 1.5t25 1.5q6 0 8 -1h1q5 0 21 14t20 22q27 44 27 92z" />
    <glyph glyph-name="Eth" unicode="&#xd0;" horiz-adv-x="482" 
d="M48 569q0 39 -2 117l5 6l39 6q31 5 65 9t62 4q92 0 147.5 -54t78 -134t22.5 -167q0 -86 -23 -175q-14 -52 -33 -94.5t-50 -65.5q-34 -26 -106 -26q-33 0 -99 2t-98 2q-11 5 -11 79l1 120q1 21 1 68l-21 -1q-24 0 -32 8q0 21 -2 63q-3 32 -3 64q0 11 6 15l52 -1zM0 405
l-1 -18q0 -28 3 -55q2 -36 2 -55h18q28 0 35 -6l-1 -121q0 -82 5 -141q33 0 95 -2q64 -2 97 -2q69 0 100 24q50 39 79 155q13 52 18.5 80.5t5.5 59.5q0 150 -51 263.5t-187 113.5q-42 0 -118 -12l-44 -6q2 -80 2 -118l-1 -156l-5 -5zM175.5 161q-7.5 3 -11.5 11q0 34 -1 52
l-1 53l5 6l58 -1q0 16 -2 50q-2 32 -2 48l1 20l-24 -1q-27 0 -35 8l1 70q0 16 -2 46l3 6q28 13 52 13q63 0 92 -59.5t29 -152.5q0 -82 -28 -128q-18 -23 -41 -33.5t-67 -10.5q-19 0 -26.5 3zM215 529q-22 0 -43 -8q2 -30 2 -44l-1 -66h25q27 0 34 -6v-34q4 -12 4 -46
q0 -17 -1 -31t-5 -22l-58 1l-1 -55q0 -24 3 -45l1 -1q9 0 18.5 -1t18.5 -1q31 0 52.5 7t37.5 30q26 45 26 123q0 199 -113 199z" />
    <glyph glyph-name="E" unicode="E" horiz-adv-x="481" 
d="M467 30q-2 -22 -12 -32q-43 0 -127 -2q-86 -2 -128 -2q-78 0 -155 6l-5 6q0 74 -2 222q-3 111 -3 222q0 144 6 240l5 4q49 3 148 5q33 0 99 2q13 0 43 2q30 3 60 3q34 0 65 -6q7 -15 7 -42q0 -19 -2 -55l-1 -51q-7 -15 -94 -15l-85 1q-15 0 -45 -2l-42 -1q0 -9 -2 -27
q-2 -30 -2 -45q0 -21 4 -37q25 -4 60 -4l60 1q8 -17 8 -47q0 -25 -1 -37l-1 -38q0 -16 1 -23q-6 -11 -50 -11l-42 1q-6 -2 -14.5 -2.5t-14.5 -1.5q-6 -30 -6 -63q0 -27 5 -55q30 0 52.5 -1t37.5 -2q74 -4 110 -4q19 0 59 2l5 -5v-2q1 -16 1 -46q0 -36 -2 -58zM459 86
q0 29 -1 44q-16 -1 -48 -1q-35 0 -105 4q-18 1 -44 2t-60 1q-11 0 -11 58q0 45 3 61t14.5 20.5t43.5 4.5q14 0 21 -1l21 -1q15 0 23 3l1 85q0 23 -3 47l-57 1q-5 0 -14 -1t-22 -1q-38 0 -38 35t1 59t7 37l1 1q16 0 52 2q34 2 53 2l59 -1q55 0 99 8l1 47q2 32 2 49
q0 27 -2 40q-24 4 -59 4q-24 0 -68 -2q-26 -2 -36 -2q-64 -2 -97 -2q-97 -2 -145 -5q-6 -95 -6 -237q0 -110 3 -218q2 -146 2 -219q77 -6 152 -6q41 0 125 2q82 2 124 2q8 35 8 78z" />
    <glyph glyph-name="Eacute" unicode="&#xc9;" horiz-adv-x="481" 
d="M237 741q-29 0 -52.5 2.5t-27.5 6.5v8q28 24 80 78q48 53 87 85q13 -7 26 -19t31 -32l19 -20v-6q-7 -7 -35 -31q-57 -47 -66 -65q-7 -7 -62 -7zM234 820q-31 -33 -64 -64q33 -6 72 -6q28 0 48 4q6 11 24.5 28.5t38.5 33.5q23 18 36 31l-62 63q-34 -27 -93 -90zM467 30
q-2 -22 -12 -32q-43 0 -127 -2q-86 -2 -128 -2q-78 0 -155 6l-5 6q0 74 -2 222q-3 111 -3 222q0 144 6 240l5 4q49 3 148 5q33 0 99 2q13 0 43 2q30 3 60 3q34 0 65 -6q7 -15 7 -42q0 -19 -2 -55l-1 -51q-7 -15 -94 -15l-85 1q-15 0 -45 -2l-42 -1q0 -9 -2 -27
q-2 -30 -2 -45q0 -21 4 -37q25 -4 60 -4l60 1q8 -17 8 -47q0 -25 -1 -37l-1 -38q0 -16 1 -23q-6 -11 -50 -11l-42 1q-6 -2 -14.5 -2.5t-14.5 -1.5q-6 -30 -6 -63q0 -27 5 -55q30 0 52.5 -1t37.5 -2q74 -4 110 -4q19 0 59 2l5 -5v-2q1 -16 1 -46q0 -36 -2 -58zM459 86
q0 29 -1 44q-16 -1 -48 -1q-35 0 -105 4q-18 1 -44 2t-60 1q-11 0 -11 58q0 45 3 61t14.5 20.5t43.5 4.5q14 0 21 -1l21 -1q15 0 23 3l1 85q0 23 -3 47l-57 1q-5 0 -14 -1t-22 -1q-38 0 -38 35t1 59t7 37l1 1q16 0 52 2q34 2 53 2l59 -1q55 0 99 8l1 47q2 32 2 49
q0 27 -2 40q-24 4 -59 4q-24 0 -68 -2q-26 -2 -36 -2q-64 -2 -97 -2q-97 -2 -145 -5q-6 -95 -6 -237q0 -110 3 -218q2 -146 2 -219q77 -6 152 -6q41 0 125 2q82 2 124 2q8 35 8 78z" />
    <glyph glyph-name="Ecircumflex" unicode="&#xca;" horiz-adv-x="481" 
d="M90 750l-3 9q26 34 56 64t75 70l31 29q2 -1 7 -1l163 -162l-4 -8q-10 0 -30 -4q-32 -5 -50 -5q-32 0 -49.5 11.5t-28.5 32.5l-8 8q-9 -7 -28 -26q-11 -13 -21.5 -18.5t-37.5 -5.5q-39 0 -72 6zM213 875q-44 -41 -68 -64.5t-46 -51.5q32 -4 69 -4q23 0 34 6.5t22 20.5
q14 16 22 22h6q9 -6 25 -26l14 -16l9 -6q40 -2 60 -2q7 0 12 1t9 2l22 3q-51 50 -101 101l-50 50zM467 30q-2 -22 -12 -32q-43 0 -127 -2q-86 -2 -128 -2q-78 0 -155 6l-5 6q0 74 -2 222q-3 111 -3 222q0 144 6 240l5 4q49 3 148 5q33 0 99 2q13 0 43 2q30 3 60 3
q34 0 65 -6q7 -15 7 -42q0 -19 -2 -55l-1 -51q-7 -15 -94 -15l-85 1q-15 0 -45 -2l-42 -1q0 -9 -2 -27q-2 -30 -2 -45q0 -21 4 -37q25 -4 60 -4l60 1q8 -17 8 -47q0 -25 -1 -37l-1 -38q0 -16 1 -23q-6 -11 -50 -11l-42 1q-6 -2 -14.5 -2.5t-14.5 -1.5q-6 -30 -6 -63
q0 -27 5 -55q30 0 52.5 -1t37.5 -2q74 -4 110 -4q19 0 59 2l5 -5v-2q1 -16 1 -46q0 -36 -2 -58zM459 86q0 29 -1 44q-16 -1 -48 -1q-35 0 -105 4q-18 1 -44 2t-60 1q-11 0 -11 58q0 45 3 61t14.5 20.5t43.5 4.5q14 0 21 -1l21 -1q15 0 23 3l1 85q0 23 -3 47l-57 1
q-5 0 -14 -1t-22 -1q-38 0 -38 35t1 59t7 37l1 1q16 0 52 2q34 2 53 2l59 -1q55 0 99 8l1 47q2 32 2 49q0 27 -2 40q-24 4 -59 4q-24 0 -68 -2q-26 -2 -36 -2q-64 -2 -97 -2q-97 -2 -145 -5q-6 -95 -6 -237q0 -110 3 -218q2 -146 2 -219q77 -6 152 -6q41 0 125 2q82 2 124 2
q8 35 8 78z" />
    <glyph glyph-name="Edieresis" unicode="&#xcb;" horiz-adv-x="481" 
d="M97 792q0 19 3 37q2 22 2 30l3 6q22 9 58 9q51 0 58 -15q-3 -19 -3 -44q0 -45 -8 -62l-99 1h-3q-11 6 -11 38zM271 792q0 19 3 37q2 22 2 30l3 6q22 9 58 9q51 0 58 -15q-3 -19 -3 -44q0 -45 -8 -62l-99 1h-3q-11 6 -11 38zM110 826q-3 -18 -3 -36q0 -17 4 -26l94 -1
q0 64 5 95q-16 6 -38 6q-23 0 -60 -7q0 -9 -2 -31zM284 826q-3 -18 -3 -36q0 -17 4 -26l94 -1q0 64 5 95q-17 6 -38 6q-23 0 -60 -7q0 -9 -2 -31zM467 30q-2 -22 -12 -32q-43 0 -127 -2q-86 -2 -128 -2q-78 0 -155 6l-5 6q0 74 -2 222q-3 111 -3 222q0 144 6 240l5 4
q49 3 148 5q33 0 99 2q13 0 43 2q30 3 60 3q34 0 65 -6q7 -15 7 -42q0 -19 -2 -55l-1 -51q-7 -15 -94 -15l-85 1q-15 0 -45 -2l-42 -1q0 -9 -2 -27q-2 -30 -2 -45q0 -21 4 -37q25 -4 60 -4l60 1q8 -17 8 -47q0 -25 -1 -37l-1 -38q0 -16 1 -23q-6 -11 -50 -11l-42 1
q-6 -2 -14.5 -2.5t-14.5 -1.5q-6 -30 -6 -63q0 -27 5 -55q30 0 52.5 -1t37.5 -2q74 -4 110 -4q19 0 59 2l5 -5v-2q1 -16 1 -46q0 -36 -2 -58zM459 86q0 29 -1 44q-16 -1 -48 -1q-35 0 -105 4q-18 1 -44 2t-60 1q-11 0 -11 58q0 45 3 61t14.5 20.5t43.5 4.5q14 0 21 -1l21 -1
q15 0 23 3l1 85q0 23 -3 47l-57 1q-5 0 -14 -1t-22 -1q-38 0 -38 35t1 59t7 37l1 1q16 0 52 2q34 2 53 2l59 -1q55 0 99 8l1 47q2 32 2 49q0 27 -2 40q-24 4 -59 4q-24 0 -68 -2q-26 -2 -36 -2q-64 -2 -97 -2q-97 -2 -145 -5q-6 -95 -6 -237q0 -110 3 -218q2 -146 2 -219
q77 -6 152 -6q41 0 125 2q82 2 124 2q8 35 8 78z" />
    <glyph glyph-name="Egrave" unicode="&#xc8;" horiz-adv-x="481" 
d="M152 801q-44 34 -44 42v8l69 70h6q30 -22 54.5 -46.5t70.5 -74.5q4 -5 16.5 -19t25.5 -23v-8q-17 -9 -81 -9q-60 0 -60 7q-9 15 -57 53zM117 847l24 -21q66 -54 75 -72q14 -4 49 -4q47 0 71 6q-13 11 -35 37q-41 44 -66.5 69.5t-54.5 47.5zM467 30q-2 -22 -12 -32
q-43 0 -127 -2q-86 -2 -128 -2q-78 0 -155 6l-5 6q0 74 -2 222q-3 111 -3 222q0 144 6 240l5 4q49 3 148 5q33 0 99 2q13 0 43 2q30 3 60 3q34 0 65 -6q7 -15 7 -42q0 -19 -2 -55l-1 -51q-7 -15 -94 -15l-85 1q-15 0 -45 -2l-42 -1q0 -9 -2 -27q-2 -30 -2 -45q0 -21 4 -37
q25 -4 60 -4l60 1q8 -17 8 -47q0 -25 -1 -37l-1 -38q0 -16 1 -23q-6 -11 -50 -11l-42 1q-6 -2 -14.5 -2.5t-14.5 -1.5q-6 -30 -6 -63q0 -27 5 -55q30 0 52.5 -1t37.5 -2q74 -4 110 -4q19 0 59 2l5 -5v-2q1 -16 1 -46q0 -36 -2 -58zM459 86q0 29 -1 44q-16 -1 -48 -1
q-35 0 -105 4q-18 1 -44 2t-60 1q-11 0 -11 58q0 45 3 61t14.5 20.5t43.5 4.5q14 0 21 -1l21 -1q15 0 23 3l1 85q0 23 -3 47l-57 1q-5 0 -14 -1t-22 -1q-38 0 -38 35t1 59t7 37l1 1q16 0 52 2q34 2 53 2l59 -1q55 0 99 8l1 47q2 32 2 49q0 27 -2 40q-24 4 -59 4
q-24 0 -68 -2q-26 -2 -36 -2q-64 -2 -97 -2q-97 -2 -145 -5q-6 -95 -6 -237q0 -110 3 -218q2 -146 2 -219q77 -6 152 -6q41 0 125 2q82 2 124 2q8 35 8 78z" />
    <glyph glyph-name="F" unicode="F" horiz-adv-x="494" 
d="M229 241q-8 -107 -8 -240q-4 -9 -56 -9h-45q-22 0 -36 1l-23 -1q-11 0 -16 2t-9 9l-1 264l1 135q2 90 2 136v141l3 6q16 5 33.5 7t33.5 2.5t21 0.5l35 2q86 7 151 7q101 0 176 -17q7 -15 7 -104q0 -31 -3 -39v-10q-4 -9 -42 -9h-15q-137 0 -211 -11q-9 -23 -9 -44
t6.5 -30t19 -11.5t38.5 -2.5q37 0 71 6q6 -7 8 -15.5t2 -25.5t-2 -49q-2 -28 -2 -36q0 -2 1 -10.5t1 -23.5q0 -8 -0.5 -9.5t-5.5 -6.5h-1q-36 -6 -125 -15zM347 293q0 15 1 27t2 21q3 26 3 48q0 21 -4 32q-30 -5 -67 -5q-29 0 -43.5 3t-22.5 13.5t-8 34.5q0 16 4 34.5
t11 21.5q45 7 137 9l69 3h26.5t29.5 3q0 7 1 11l-1 129q-78 17 -182 17q-109 0 -255 -19l-1 -336q-1 -112 -1 -335q40 -5 75 -5q42 0 90 5q0 135 8 242l5 4h4l2 3v-3q7 1 15 2.5t17 2.5l30 3q10 1 24.5 2t33.5 4q-3 12 -3 28z" />
    <glyph glyph-name="G" unicode="G" horiz-adv-x="481" 
d="M387 361q46 -4 63 -4l4 -2q5 -5 7.5 -46.5t2.5 -70.5q0 -66 -5.5 -110.5t-29.5 -77.5q-29 -40 -87 -55t-120 -15q-90 0 -138 55q-39 44 -51 134.5t-12 204.5v50q0 89 18 156.5t73 98.5q30 17 64 22t82 5q57 0 102.5 -26t71 -70.5t25.5 -99.5q0 -6 -2.5 -19t-2.5 -20
q-11 -6 -32 -6l-16 1q-10 -3 -30 -3q-36 0 -53 6l-9 21q-12 27 -22 41.5t-30 20.5l-43 1q-28 -10 -39 -82.5t-11 -190.5q0 -56 12.5 -94t48.5 -49q30 0 48.5 6.5t29 27.5t10.5 62h-25q-7 -4 -20 -4q-24 0 -30.5 10.5t-6.5 40.5q0 18 3 24l-1 22q-1 7 -1 20l6 7q26 13 72 13
q34 0 74 -5zM245 342q4 -12 4 -27q0 -10 -2 -26q-2 -20 -2 -31q0 -9 3 -13.5t14 -4.5q7 0 19 2t19 2q17 0 22.5 -5t5.5 -17q0 -45 -24 -70.5t-63 -25.5q-53 0 -68 50.5t-15 131.5q0 29 2 81q0 9 2 58.5t18.5 82t47.5 32.5q43 0 65.5 -20.5t33.5 -63.5l36 -1q24 -2 36 -2
q8 2 12 2l16 -1q2 1 7 1q9 0 11 8.5t2 18.5v13q0 86 -63.5 132.5t-157.5 46.5q-41 0 -78 -12.5t-64 -38.5q-23 -21 -32.5 -54.5t-13.5 -76.5q-6 -66 -6 -165q0 -235 59 -307q43 -52 131 -52q68 0 129 18t82 66q23 51 23 132q0 32 -3 68t-4 45l-3 28q-17 0 -59 4q-50 4 -74 4
q-45 0 -67 -11q-1 0 -1 -0.5v-0.5v-1z" />
    <glyph glyph-name="H" unicode="H" horiz-adv-x="499" 
d="M474 6l-4 -5q-24 -6 -63 -6l-64 1q-3 -1 -8 -1q-6 0 -8.5 1.5t-3.5 2.5q-8 54 -8 142q0 9 -1 51t-6 80q-28 5 -50 5q-28 0 -58 -6q-4 -28 -4 -64q0 -21 2 -65t2 -65q0 -42 -5 -72q-2 0 -2 -2q-14 -9 -37 -9q-13 0 -39 4t-35 4q-13 0 -25 -5q-17 6 -17 113v58q0 69 -4 205
t-4 206q0 27 1 73.5t2 46.5v-1l5 6q10 0 19.5 -1t20.5 -1l29 1q20 2 30 2q31 0 36 -9q5 -33 7 -71t2 -48q2 -83 9 -124h-1l3 -16q20 -4 46 -4q27 0 55 5q7 93 7 161q0 47 -3 95q9 9 42 15t59 6q18 0 29 -4h12l5 -5zM464 10l-27 691q-7 0 -12 1q-60 0 -115 -11q3 -45 3 -90
q0 -71 -7 -167l-5 -5h2q-8 0 -33.5 -3t-40.5 -3q-25 0 -43 9q-7 45 -11 134q-4 84 -10 126q-7 1 -21 1q-12 0 -36 -2t-34 -2q-17 0 -29 4q-3 -72 -3 -143q0 -149 2.5 -261.5t10.5 -220.5q0 -13 1 -20q0 -27 2 -40q11 3 21 3q12 0 38 -4q24 -4 37 -4q18 0 31 7q5 30 5 74
l-1 63q-2 42 -2 63q0 37 4 66q8 4 33 8t50 4q31 0 42 -8q3 -3 5 -30t2 -41q0 -68 1.5 -113.5t7.5 -90.5h6q13 4 35 4q18 0 28 -1l29 -1q17 0 34 3z" />
    <glyph glyph-name="I" unicode="I" horiz-adv-x="260" 
d="M226 564q-1 -60 -2 -99q-4 -158 -4 -238q0 -133 6 -222q-9 -9 -23 -12.5t-35 -3.5q-20 0 -58 4q-10 1 -21.5 2t-23.5 1q-15 0 -22 -3l-9 4q4 76 4 170q0 88 -3 175q-1 30 -2 74.5t-1 104.5q0 50 3 101q4 83 12 91q28 0 56 -3q10 -1 24 -2t33 -1l62 1l5 -5q0 -79 -1 -139z
M211 363q1 59 2 98q4 158 4 237l-58 -1q-12 0 -28.5 1t-24.5 2q-27 3 -54 3q-9 -76 -9 -176q0 -53 1 -93.5t2 -66.5q3 -79 3 -160q0 -90 -5 -205q14 2 25 2q12 0 44 -2q34 -2 51 -2q11 0 31 4q11 3 21 3q-6 88 -6 219q0 78 1 137z" />
    <glyph glyph-name="Iacute" unicode="&#xcd;" horiz-adv-x="259" 
d="M136 741q-28 0 -56.5 3t-32.5 7l9 7q28 24 80 78q48 53 87 85q12 -7 28 -22t30 -30l20 -22l-103 -99q-7 -7 -62 -7zM226 910q-34 -27 -93 -90q-31 -33 -64 -64q33 -6 72 -6q28 0 48 4q6 11 24.5 28.5t38.5 33.5q23 18 36 31zM225 468q-1 -31 -3 -106t-2 -135
q0 -133 6 -222q-9 -9 -23 -12.5t-35 -3.5l-50 1q-34 2 -51 2q-22 0 -34 -1q5 95 5 176q0 88 -3 175q-1 30 -2 74.5t-1 104.5q0 50 3 101q4 83 12 91q28 0 56 -3q10 -1 24 -2t33 -1l62 1l8 1q0 -106 -5 -241zM211 363q1 59 2 98q4 158 4 237l-58 -1q-12 0 -28.5 1t-24.5 2
q-27 3 -54 3q-9 -76 -9 -176q0 -53 1 -93.5t2 -66.5q3 -79 3 -160q0 -90 -5 -205q14 2 25 2q12 0 44 -2q34 -2 51 -2q11 0 31 4q11 3 21 3q-6 88 -6 219q0 78 1 137z" />
    <glyph glyph-name="Icircumflex" unicode="&#xce;" horiz-adv-x="260" 
d="M284 747q-40 -5 -57 -5q-32 0 -50.5 12t-35.5 40q-9 -7 -28 -26q-11 -13 -21.5 -18.5t-37.5 -5.5q-39 0 -72 6l-15 2q24 31 55.5 61.5t79.5 73.5l44 40q27 -33 62 -66.5t41 -39.5l62 -62l9 -8q-10 0 -36 -4zM194 861l-50 50l-39 -36q-44 -41 -68 -64.5t-46 -51.5
q32 -4 69 -4q23 0 34.5 7.5t23.5 22.5q10 15 23 24q44 -58 89 -58q12 0 22 3q7 0 12 1t9 2l22 3q-51 50 -101 101zM226 564q-1 -60 -2 -99q-4 -158 -4 -238q0 -133 6 -222q-9 -9 -23 -12.5t-35 -3.5q-20 0 -58 4q-10 1 -21.5 2t-23.5 1q-5 0 -10 -1t-12 -1q-5 0 -9 1
q4 76 4 172q0 88 -3 175q-1 30 -2 74.5t-1 104.5q0 50 3 101q4 83 12 91q28 0 56 -3q10 -1 24 -2t33 -1l62 1l5 -5q0 -79 -1 -139zM211 363q1 59 2 98q4 158 4 237l-58 -1q-12 0 -28.5 1t-24.5 2q-27 3 -54 3q-9 -76 -9 -176q0 -53 1 -93.5t2 -66.5q3 -79 3 -160
q0 -90 -5 -205q14 2 25 2q12 0 44 -2q34 -2 51 -2q11 0 31 4q11 3 21 3q-6 88 -6 219q0 78 1 137z" />
    <glyph glyph-name="Idieresis" unicode="&#xcf;" horiz-adv-x="260" 
d="M-9 792q0 19 3 37q2 22 2 30v6q9 4 26.5 6.5t34.5 2.5q51 0 58 -15q-3 -19 -3 -44q0 -45 -8 -62l-99 1h-3q-11 6 -11 38zM165 792q0 19 3 37q2 22 2 30v6q9 4 26.5 6.5t34.5 2.5q51 0 58 -15q-3 -19 -3 -44q0 -45 -8 -62l-99 1h-3q-11 6 -11 38zM104 858q-16 6 -38 6
q-23 0 -60 -7q0 -9 -2 -31q-3 -18 -3 -36q0 -17 4 -26l94 -1q0 64 5 95zM278 858q-16 6 -38 6q-23 0 -60 -7q0 -9 -2 -31q-3 -18 -3 -36q0 -17 4 -26l94 -1q0 64 5 95zM223 468q-1 -41 -2 -101t-1 -140q0 -133 6 -222q-9 -9 -23 -12.5t-35 -3.5q-20 0 -58 4q-10 1 -21.5 2
t-23.5 1h-14q-10 0 -17 1q4 76 4 170q0 88 -3 175q-1 30 -2 74.5t-1 104.5q0 50 3 101q4 83 12 91q28 0 56 -3q10 -1 24 -2t33 -1l62 1h4q0 -120 -3 -240zM211 363q1 59 2 98q4 158 4 237l-58 -1q-12 0 -28.5 1t-24.5 2q-27 3 -54 3q-9 -76 -9 -176q0 -53 1 -93.5t2 -66.5
q3 -79 3 -160q0 -90 -5 -205q14 2 25 2q12 0 44 -2q34 -2 51 -2q11 0 31 4q11 3 21 3q-6 88 -6 219q0 78 1 137z" />
    <glyph glyph-name="Igrave" unicode="&#xcc;" horiz-adv-x="260" 
d="M109 875.5q26 -26.5 72 -75.5q4 -5 16.5 -19t25.5 -23l7 -6q-9 -5 -35.5 -8t-52.5 -3q-60 0 -60 7q-9 15 -57 53q-44 34 -44 42v8l69 70l3 3q30 -22 56 -48.5zM-10 847l24 -21q66 -54 75 -72q14 -4 49 -4q47 0 71 6q-13 11 -35 37q-41 44 -66.5 69.5t-54.5 47.5zM225 468
q-5 -135 -5 -241q0 -133 6 -222q-9 -9 -23 -12.5t-35 -3.5q-20 0 -54 4q-8 1 -19 2t-26 1q-19 0 -35 -4q4 76 4 175q0 88 -3 175q-1 30 -2 74.5t-1 104.5q0 50 3 101q4 83 12 91q28 0 56 -3q10 -1 24 -2t33 -1l62 1l7 1q0 -79 -4 -241zM211 363q1 59 2 98q4 158 4 237
l-58 -1q-12 0 -28.5 1t-24.5 2q-27 3 -54 3q-9 -76 -9 -176q0 -53 1 -93.5t2 -66.5q3 -79 3 -160q0 -90 -5 -205q14 2 25 2q12 0 44 -2q34 -2 51 -2q11 0 31 4q11 3 21 3q-6 88 -6 219q0 78 1 137z" />
    <glyph glyph-name="J" unicode="J" horiz-adv-x="463" 
d="M432 563q2 -66 2 -99q0 -44 -2 -124l-1 -63q-1 -72 -7.5 -119t-32.5 -85q-29 -43 -80 -65t-119 -22q-197 0 -197 282q0 17 12.5 24t53.5 7q38 0 69 -3t34 -10q0 -89 39 -111q4 -3 10 -3.5t10 -1.5h14q22 9 30 30t8 51q0 31 -2 81l-1 72l1 153q1 51 1 152l5 6l146 2l5 -5
l-1 -50q0 -49 3 -99zM423 373q0 66 -3 132q-1 22 -2 55t-1 77q0 24 2 70l-135 -2q0 -31 -2 -89q-2 -60 -2 -90q0 -69 3 -138q2 -92 2 -139q0 -35 -12 -62.5t-43 -27.5q-43 0 -59.5 37.5t-16.5 85.5q-47 7 -85 7q-28 0 -61 -5q-2 -20 -2 -35q0 -66 20 -131.5t59 -92.5
q38 -27 109 -27q142 0 189 80q23 39 29.5 83t8.5 111l1 32q1 23 1 69z" />
    <glyph glyph-name="K" unicode="K" horiz-adv-x="459" 
d="M391 -6q-11 0 -35 2t-35 2q-29 36 -50.5 76.5t-49.5 103.5q-25 55 -31 67q-1 -14 -1 -42q0 -49 3 -99q2 -66 2 -99q-3 -7 -28.5 -10.5t-57.5 -3.5q-57 0 -70 13q-6 105 -6 211q0 80 4 242q4 160 4 241l5 6q44 0 66 -1l68 -1l5 -5q2 -74 2 -222l20 28l24 35l29 53
q4 8 23 43.5t40 65.5l5 3q18 -3 36 -3l38 1q13 1 38 1t28 -9q-13 -45 -34 -85.5t-59 -104.5q-28 -47 -45.5 -79t-31.5 -65l171 -353l-4 -7q-30 -5 -73 -5zM456 8l-168 349v4q22 55 77 144q38 66 58 104t33 82q-20 2 -30 2l-34 -1q-24 -2 -35 -2t-29 2q-29 -41 -55 -92
l-13 -27q-20 -40 -36 -67.5t-37 -48.5l-1 -3l-10 3v-1q-2 0 -2 85l1 87q0 43 -1 64l-62 1q-21 1 -62 1q0 -82 -4 -244q-4 -164 -4 -246q0 -115 5 -196q14 -6 60 -6q57 0 77 7q0 32 -2 96q-3 48 -3 97q0 20 2 60l-2 4l12 -1q17 -32 41 -87q27 -60 47.5 -98.5t47.5 -72.5
q32 -3 64 -3q36 0 65 4z" />
    <glyph glyph-name="L" unicode="L" horiz-adv-x="461" 
d="M463 66q2 -26 2 -40q0 -15 -3.5 -21.5t-17 -9t-44.5 -2.5l-77 -1q-21 -1 -65 -1q-38 0 -112 2l-110 1l-5 6q0 62 4 188q4 124 4 187q0 55 -2 163q-3 81 -3 164l3 6q23 10 65 10q32 0 64.5 -4.5t37.5 -13.5q-3 -32 -3 -97q0 -74 2 -220t2 -219q52 0 117 -5q78 -4 116 -4
q7 0 21 2q1 -2 3 -5t2 -8q0 -7 -2 -20t-2 -19q0 -4 2 -12v-2zM454 142v4q-7 -1 -20 -1q-45 0 -107 5q-74 4 -107 4q-13 0 -19 -1l-6 6q0 73 -2 221q-2 146 -2 220q0 65 3 97q-34 10 -74 10q-36 0 -76 -8q0 -82 3 -163q2 -108 2 -163q0 -63 -4 -185q-4 -124 -4 -184l408 1
q7 14 7 33q0 9 -2 27t-2 25q-2 12 -2 22q0 19 4 30z" />
    <glyph glyph-name="M" unicode="M" horiz-adv-x="501" 
d="M417 -3q-12 0 -34 -2l-32 -1q-25 0 -30.5 7t-5.5 33l1 91q0 155 -9 247l-15 -42q-11 -35 -20 -56t-24 -36q-20 0 -51 92q-3 7 -5 14t-5 14q-4 -51 -4 -113q0 -80 10 -242q-4 -9 -49 -9l-49 1l-38 -1q-14 0 -17.5 17t-3.5 57v205q0 68 2 206l1 206l3 6q14 7 58 7l49 -1
q13 -1 32 -1q13 -13 21 -32t17 -49q15 -53 33 -73q10 20 20 64q8 34 16 54.5t25 37.5q10 -2 17 -2q31 0 64 3q10 0 30 1.5t36 1.5l5 -5q-2 -30 -2 -89q0 -36 2 -108l1 -106q0 -113 -3 -227q-2 -112 -2 -168l-5 -5zM451 5q0 60 2 184q3 93 3 187l-1 114q-2 76 -2 114
q0 59 2 88q-13 0 -26.5 -1t-25.5 -2q-46 -4 -66 -4q-11 0 -23 2q-9 -11 -15.5 -31t-16.5 -56q-6 -21 -12 -40.5t-12 -25.5l-4 -2q-12 0 -19 15t-17 50q-9 31 -17.5 52.5t-21.5 36.5l-61 1q-42 0 -69 -5q0 -140 -3 -281q-1 -47 -2 -118t-1 -166q0 -56 6 -110v-2l77 -1
q38 0 57 3q-10 158 -10 235q0 75 7 139v2l3 -1l7 3l-1 -3h1q0 -6 12 -40.5t25.5 -64t18.5 -29.5q14 17 30 73q10 32 16 47.5t15 24.5q2 -2 8 -4q7 -57 9 -116t2 -147l-1 -66q0 -28 3 -55h37q12 3 33 3q30 0 53 -3z" />
    <glyph glyph-name="N" unicode="N" horiz-adv-x="498" 
d="M328 -2l-33 71q-37 74 -58 127q-13 30 -24 65l-23 60q-6 -66 -6 -171v-67q0 -56 3 -83q-8 -8 -24.5 -10.5t-38.5 -2.5t-51.5 4.5t-35.5 10.5q0 66 -2 200q-2 132 -2 199q0 175 10 300q18 9 47 9q7 0 13 -2q33 0 53 -1.5t25 -11.5q0 -8 8 -24.5t18 -33.5q10 -16 18 -32
t8 -23q3 -10 17 -35l12 -22q3 -7 30 -61l19 -38q4 32 4 72q0 26 -2 76q-3 38 -3 76q0 28 3 55q14 7 32.5 8.5t44.5 1.5q65 0 71 -11l1 -704l-5 -5h-1q-11 -5 -32 -5q-16 0 -46 2q-22 3 -46 3zM451 700q-35 5 -62 5q-29 0 -66 -5q-3 -33 -3 -65q0 -29 2 -87q3 -43 3 -89
q0 -18 -2.5 -30t-9.5 -19h-1q-13 0 -51 92l-8 19q-3 6 -16 26t-14 33l-19 38q-30 56 -33 73q-9 2 -39 4q-5 0 -17 1t-16 3h-17q-3 -2 -11 -2h-8q-7 0 -10 -1q-10 -122 -10 -295q0 -66 2 -198t2 -197q17 0 31 -1.5t20 -1.5q21 -3 47 -3q5 2 16 2q10 0 15 1q-3 39 -3 79
q0 49 3 98q2 48 2 73l-1 29q0 60 11 60h1l5 -3q9 -22 25 -68l12 -33t15 -38q18 -46 54 -119l35 -76q31 0 50 -3q24 -2 39 -2q5 0 13 2t15 3z" />
    <glyph glyph-name="Ntilde" unicode="&#xd1;" horiz-adv-x="516" 
d="M107 749q-38 0 -56 -1q19 71 54.5 124t90.5 53q29 0 46 -11t36 -32q13 -15 22.5 -22.5t22.5 -10.5q19 3 32 21t18 39q14 7 44 7q32 0 49 -1q0 -6 1 -13.5t1 -13.5q0 -36 -14 -69.5t-41 -55t-63 -21.5q-31 0 -57.5 14t-32.5 40q-4 8 -12 13.5t-16 5.5q-10 0 -22 -2.5
t-18 -5.5l-5 -5q-4 -8 -6 -13t-2 -11q0 -4 2.5 -14.5t2.5 -16.5h-8q-22 2 -69 2zM133 890.5q-25 -23.5 -38.5 -53.5t-28.5 -77l103 -2q-2 10 -2 17q0 24 20 38.5t42 14.5q12 0 21 -7.5t20 -22.5q18 -23 34 -34.5t44 -11.5q33 0 58 19.5t39 50t14 63.5q0 7 -2 21
q-24 -2 -50 -2q-14 0 -19 -0.5t-6 -0.5q-4 -19 -15 -33.5t-23.5 -22.5t-20.5 -8q-12 0 -21.5 8t-22.5 24q-14 18 -22 24q-24 19 -62 19q-37 0 -62 -23.5zM480 303q2 -158 2 -243q0 -21 -2 -57v-2q-7 -15 -43 -15q-21 0 -44 3t-29 3q-9 0 -18.5 -1t-18.5 -1l-4 3
q-30 59 -56 124t-57 153q-6 -84 -6 -167q0 -52 3 -103q0 -10 -29 -10q-34 0 -69 3q-44 2 -67 2l-5 6q0 67 -2 203q-3 101 -3 202q0 158 11 290q12 12 47 12q26 0 66 -6.5t43 -13.5v-2q7 -20 29 -56l14 -25l-2 4l22 -37q28 -51 52 -85q1 12 1 36q0 15 -1 25.5t-2 18.5
q-4 28 -4 43q0 23 3 45q2 28 2 43q14 14 59 14l33 -1q65 0 74 -9l-1 -168q0 -77 2 -231zM471 60l-1 75q-1 23 -1 65v497q-12 0 -44 2q-24 3 -50 3q-30 0 -52 -7q-6 -31 -6 -65q0 -19 4 -57q5 -33 5 -60q0 -25 -5 -41h-9q-28 39 -74 121l-16 29q-4 6 -12.5 17.5t-14 22.5
t-6.5 22q-9 1 -27 5q-6 1 -28 5t-41 4q-21 0 -40 -6q-11 -115 -11 -283q0 -101 3 -203q2 -134 2 -201q5 0 11 1t12 1q14 0 46 -4q27 -5 49 -5q18 0 31 4q-2 30 -2 90q0 96 8 203q7 0 10 1q33 -93 59.5 -162t57.5 -133q11 3 23 3q14 0 42 -4t42 -4q20 0 32 6l2 2q1 18 1 56z
" />
    <glyph glyph-name="O" unicode="O" horiz-adv-x="483" 
d="M459 446l-1 -47l1 -89q0 -191 -46 -255q-25 -35 -81.5 -55.5t-117.5 -20.5q-84 0 -124 32.5t-50 77.5t-11 117q0 27 -1 39q-5 84 -5 201q0 59 8 105t32 82t69.5 54.5t100.5 18.5q48 0 95.5 -14.5t76.5 -39.5q18 -16 37 -58q10 -24 14 -49.5t4 -57.5q0 -27 -1 -41z
M140 678.5q-47 -17.5 -69 -50.5t-30 -77t-8 -99q0 -120 5 -206q1 -14 1 -43q0 -46 3.5 -76.5t16.5 -57.5q17 -42 55.5 -60.5t98.5 -18.5t114 19t78 52q26 36 35 99t9 143l-1 86l1 47q2 32 2 50q0 62 -18 104q-24 54 -71 80t-120 26q-55 0 -102 -17.5zM334 361l-1 -78
q-2 -54 -2 -80q0 -38 -30 -60t-65 -22q-43 0 -64.5 25t-28.5 60t-10 91l-1 21q-2 36 -2 57q0 75 27 133t89 58q31 0 48 -15.5t23 -38t11 -59.5q1 -14 5 -35v-2zM243 557q-53 0 -78 -53.5t-25 -124.5q0 -21 2 -46.5t3 -35.5l3 -29q1 -7 1 -20q2 -30 5.5 -49.5t12.5 -37.5
q14 -14 34 -22t40 -8q31 0 55.5 19t24.5 54q0 28 2 80l1 77l-1 54q-3 20 -3 38q-1 24 -4 39t-12 30q-23 35 -61 35z" />
    <glyph glyph-name="Oacute" unicode="&#xd3;" horiz-adv-x="485" 
d="M371 813q-57 -47 -66 -65q-7 -7 -62 -7q-29 0 -52.5 2.5t-27.5 6.5v8q28 24 80 78q48 53 87 85q13 -7 26 -19t31 -32l19 -20v-6q-7 -7 -35 -31zM333 910q-34 -27 -93 -90q-31 -33 -64 -64q33 -6 72 -6q28 0 48 4q6 11 24.5 28.5t38.5 33.5q23 18 36 31zM460 451l-1 -47
l1 -89q0 -191 -46 -255q-25 -35 -81.5 -55.5t-117.5 -20.5q-84 0 -124 32.5t-50 77.5t-11 117q0 27 -1 39q-5 84 -5 201q0 59 8 105t32 82t69.5 54.5t100.5 18.5q48 0 95.5 -14.5t76.5 -39.5q18 -16 37 -58q10 -24 14 -49.5t4 -57.5q0 -27 -1 -41zM141 683.5
q-47 -17.5 -69 -50.5t-30 -77t-8 -99q0 -120 5 -206q1 -14 1 -43q0 -46 3.5 -76.5t16.5 -57.5q34 -80 155 -80q59 0 113 19.5t78 52.5q26 36 35 99t9 143l-1 86l1 47q2 32 2 50q0 62 -18 104q-24 54 -71 80t-120 26q-55 0 -102 -17.5zM335 366l-1 -78q-2 -54 -2 -80
q0 -38 -30 -60t-65 -22q-43 0 -64.5 25t-28.5 60t-10 91l-1 21q-2 36 -2 57q0 75 27 133t89 58q31 0 48 -15.5t23 -38t11 -59.5q1 -14 5 -35v-2zM244 562q-53 0 -78 -53.5t-25 -124.5q0 -21 2 -46.5t3 -35.5l3 -29q1 -7 1 -20q2 -30 5.5 -49.5t12.5 -37.5q14 -14 34 -22
t40 -8q31 0 55.5 19t24.5 54q0 28 2 80l1 77l-1 54q-3 20 -3 38q-1 24 -4 39t-12 30q-23 35 -61 35z" />
    <glyph glyph-name="Ocircumflex" unicode="&#xd4;" horiz-adv-x="484" 
d="M380 747q-33 -5 -50 -5q-32 0 -49.5 11.5t-28.5 32.5l-8 8q-9 -7 -28 -26q-11 -13 -21.5 -18.5t-37.5 -5.5q-39 0 -72 6l-3 9q26 34 56 64t75 70l31 29q2 -1 7 -1l163 -162l-4 -8q-10 0 -30 -4zM297 861l-50 50l-39 -36q-44 -41 -68 -64.5t-46 -51.5q32 -4 69 -4
q23 0 34 6.5t22 20.5q14 16 22 22h6q9 -6 25 -26l14 -16l9 -6q40 -2 60 -2q7 0 12 1t9 2l22 3q-51 50 -101 101zM459 451l-1 -47l1 -89q0 -191 -46 -255q-25 -35 -81.5 -55.5t-117.5 -20.5q-84 0 -124 32.5t-50 77.5t-11 117q0 27 -1 39q-5 84 -5 201q0 59 8 105t32 82
t69.5 54.5t100.5 18.5q48 0 95.5 -14.5t76.5 -39.5q18 -16 37 -58q10 -24 14 -49.5t4 -57.5q0 -27 -1 -41zM140 683.5q-47 -17.5 -69 -50.5t-30 -77t-8 -99q0 -120 5 -206q1 -14 1 -43q0 -46 3.5 -76.5t16.5 -57.5q34 -80 155 -80q59 0 113 19.5t78 52.5q26 36 35 99t9 143
l-1 86l1 47q2 32 2 50q0 62 -18 104q-24 54 -71 80t-120 26q-55 0 -102 -17.5zM334 366l-1 -78q-2 -54 -2 -80q0 -38 -30 -60t-65 -22q-43 0 -64.5 25t-28.5 60t-10 91l-1 21q-2 36 -2 57q0 75 27 133t89 58q31 0 48 -15.5t23 -38t11 -59.5q1 -14 5 -35v-2zM243 562
q-53 0 -78 -53.5t-25 -124.5q0 -21 2 -46.5t3 -35.5l3 -29q1 -7 1 -20q2 -30 5.5 -49.5t12.5 -37.5q14 -14 34 -22t40 -8q31 0 55.5 19t24.5 54q0 28 2 80l1 77l-1 54q-3 20 -3 38q-1 24 -4 39t-12 30q-23 35 -61 35z" />
    <glyph glyph-name="Odieresis" unicode="&#xd6;" horiz-adv-x="484" 
d="M95 792q0 19 3 37q2 22 2 30l3 6q22 9 58 9q51 0 58 -15q-3 -19 -3 -44q0 -45 -8 -62l-99 1h-3q-11 6 -11 38zM269 792q0 19 3 37q2 22 2 30l3 6q22 9 58 9q51 0 58 -15q-3 -19 -3 -44q0 -45 -8 -62l-99 1h-3q-11 6 -11 38zM208 858q-17 6 -38 6q-23 0 -60 -7
q0 -9 -2 -31q-3 -18 -3 -36q0 -17 4 -26l94 -1q0 64 5 95zM382 858q-17 6 -38 6q-23 0 -60 -7q0 -9 -2 -31q-3 -18 -3 -36q0 -17 4 -26l94 -1q0 64 5 95zM459 451l-1 -47l1 -89q0 -191 -46 -255q-25 -35 -81.5 -55.5t-117.5 -20.5q-84 0 -124 32.5t-50 77.5t-11 117
q0 27 -1 39q-5 84 -5 201q0 59 8 105t32 82t69.5 54.5t100.5 18.5q48 0 95.5 -14.5t76.5 -39.5q18 -16 37 -58q10 -24 14 -49.5t4 -57.5q0 -27 -1 -41zM140 683.5q-47 -17.5 -69 -50.5t-30 -77t-8 -99q0 -120 5 -206q1 -14 1 -43q0 -46 3.5 -76.5t16.5 -57.5q34 -80 155 -80
q59 0 113 19.5t78 52.5q26 36 35 99t9 143l-1 86l1 47q2 32 2 50q0 62 -18 104q-24 54 -71 80t-120 26q-55 0 -102 -17.5zM334 366l-1 -78q-2 -54 -2 -80q0 -38 -30 -60t-65 -22q-43 0 -64.5 25t-28.5 60t-10 91l-1 21q-2 36 -2 57q0 75 27 133t89 58q31 0 48 -15.5t23 -38
t11 -59.5q1 -14 5 -35v-2zM243 562q-53 0 -78 -53.5t-25 -124.5q0 -21 2 -46.5t3 -35.5l3 -29q1 -7 1 -20q2 -30 5.5 -49.5t12.5 -37.5q14 -14 34 -22t40 -8q31 0 55.5 19t24.5 54q0 28 2 80l1 77l-1 54q-3 20 -3 38q-1 24 -4 39t-12 30q-23 35 -61 35z" />
    <glyph glyph-name="Ograve" unicode="&#xd2;" horiz-adv-x="485" 
d="M192.5 874.5q24.5 -24.5 70.5 -74.5q4 -5 16.5 -19t25.5 -23v-8q-17 -9 -81 -9q-60 0 -60 7q-9 15 -57 53q-44 34 -44 42v8l69 70h6q30 -22 54.5 -46.5zM72 847l24 -21q66 -54 75 -72q14 -4 49 -4q47 0 71 6q-13 11 -35 37q-41 44 -66.5 69.5t-54.5 47.5zM460 451l-1 -47
l1 -89q0 -191 -46 -255q-25 -35 -81.5 -55.5t-117.5 -20.5q-84 0 -124 32.5t-50 77.5t-11 117q0 27 -1 39q-5 84 -5 201q0 59 8 105t32 82t69.5 54.5t100.5 18.5q48 0 95.5 -14.5t76.5 -39.5q18 -16 37 -58q10 -24 14 -49.5t4 -57.5q0 -27 -1 -41zM141 683.5
q-47 -17.5 -69 -50.5t-30 -77t-8 -99q0 -120 5 -206q1 -14 1 -43q0 -46 3.5 -76.5t16.5 -57.5q34 -80 155 -80q59 0 113 19.5t78 52.5q26 36 35 99t9 143l-1 86l1 47q2 32 2 50q0 62 -18 104q-24 54 -71 80t-120 26q-55 0 -102 -17.5zM335 366l-1 -78q-2 -54 -2 -80
q0 -38 -30 -60t-65 -22q-43 0 -64.5 25t-28.5 60t-10 91l-1 21q-2 36 -2 57q0 75 27 133t89 58q31 0 48 -15.5t23 -38t11 -59.5q1 -14 5 -35v-2zM244 562q-53 0 -78 -53.5t-25 -124.5q0 -21 2 -46.5t3 -35.5l3 -29q1 -7 1 -20q2 -30 5.5 -49.5t12.5 -37.5q14 -14 34 -22
t40 -8q31 0 55.5 19t24.5 54q0 28 2 80l1 77l-1 54q-3 20 -3 38q-1 24 -4 39t-12 30q-23 35 -61 35z" />
    <glyph glyph-name="Oslash" unicode="&#xd8;" horiz-adv-x="479" 
d="M441 140q-13 -61 -55 -102.5t-124 -41.5q-10 0 -24 1t-24 0q-16 -1 -32.5 -7t-15.5 -13q-17 -5 -53 -5q-17 0 -30.5 1.5t-23.5 1.5q-17 0 -25 -1q-1 1 -4 1l-1 1l-2 5q0 11 12 49t16 38q-32 125 -32 271q0 23 2 67l1 28q3 88 13.5 142.5t52 93.5t127.5 39q32 0 56 -4
q0 4 2 13.5t8 9.5q15 0 23 -1l24 -1q9 0 27 2l26 1q30 0 44 -13q0 -12 -10 -32q-9 -22 -9 -31l1 -6q47 -60 47 -162q0 -17 -2 -51q-2 -51 -2 -153q0 -80 -13 -141zM432 590q-4 11 -15 26q-1 2 -9 14.5t-8 24.5q0 8 4 17t5 11q4 7 7 15t3 15q-13 7 -36 7q-16 0 -34 -3
q-5 0 -16 -1.5t-19 -1.5q-15 0 -26 4l-2 -4q0 -8 -1 -10.5t-3 -4.5t-4 -3q-28 3 -57 3q-77 0 -116 -30.5t-51 -74.5t-14 -107q0 -18 -1 -31.5t-2 -22.5q-1 -12 -2 -28.5t-1 -39.5v-78q0 -82 21 -175q1 -5 5 -20t4 -21v-4q0 -11 -13 -39q-1 -4 -7 -18t-7 -25q18 2 29 2
q10 0 30 -2q18 -2 29 -2q18 0 29.5 3.5t23.5 16.5q52 0 82 1.5t60 8.5q54 12 81.5 55.5t35 98t7.5 123.5q0 54 0.5 76.5t0.5 34.5l1 34q2 34 2 50q0 58 -16 105zM131 306q0 26 8 74q3 16 7 48q1 8 1 25q2 36 8.5 58t27.5 38q26 19 51 19l5 -5q0 -10 -8.5 -33.5t-9.5 -27.5
l-25 -75q-32 -89 -50 -150h-9q-6 12 -6 29zM163 363q10 29 17 50q43 129 48 145q-16 0 -39 -17t-28.5 -42t-5.5 -67q0 -18 -1 -36.5t-6 -32.5q0 -9 -1 -17t-2 -14q-4 -24 -4 -35q12 37 22 66zM330 340q3 -72 3 -77q0 -66 -17 -92q-11 -17 -38 -31.5t-48 -14.5l-3 3t-3 4
q14 43 19 55q42 131 75 210l9 -2q0 -23 3 -55zM319 336q0 11 -2 33q-36 -91 -81 -233q46 12 69 38q8 9 11 20.5t4 23t1 15.5q2 13 2 38q0 21 -4 65z" />
    <glyph glyph-name="Otilde" unicode="&#xd5;" horiz-adv-x="484" 
d="M137 739q-21 0 -30 3l-68 -1l-5 6q17 66 53 117.5t89 51.5q29 0 46 -11t36 -32q13 -15 22.5 -22.5t22.5 -10.5q19 3 32 21t18 39q14 7 44 7l28 -1l15 1l4 -2l1 -1q0 -6 1.5 -12.5t1.5 -12.5q0 -36 -14 -69.5t-41 -55t-63 -21.5q-32 0 -58 14t-32 40q-4 8 -12 13.5
t-16 5.5q-10 0 -22 -2.5t-18 -5.5l-5 -5q-4 -8 -6 -13t-2 -11q0 -5 1 -11.5t1 -14.5l-5 -5q-6 1 -19 1zM147 766q0 24 20 38.5t42 14.5q12 0 21 -7.5t20 -22.5q18 -23 34 -34.5t44 -11.5q33 0 58 19.5t39 50t14 63.5q0 7 -2 21q-24 -2 -50 -2q-14 0 -19 -0.5t-6 -0.5
q-4 -19 -15 -33.5t-23.5 -22.5t-20.5 -8q-12 0 -21.5 8t-22.5 24q-14 18 -22 24q-24 19 -62 19q-37 0 -62 -23.5t-38.5 -53.5t-28.5 -77l22 1q14 2 23 2q11 0 21 -3q24 0 37 -2q-2 10 -2 17zM459 451l-1 -47l1 -89q0 -191 -46 -255q-25 -35 -81.5 -55.5t-117.5 -20.5
q-84 0 -124 32.5t-50 77.5t-11 117q0 27 -1 39q-5 84 -5 201q0 59 8 105t32 82t69.5 54.5t100.5 18.5q48 0 95.5 -14.5t76.5 -39.5q18 -16 37 -58q10 -24 14 -49.5t4 -57.5q0 -27 -1 -41zM140 683.5q-47 -17.5 -69 -50.5t-30 -77t-8 -99q0 -120 5 -206q1 -14 1 -43
q0 -46 3.5 -76.5t16.5 -57.5q34 -80 155 -80q59 0 113 19.5t78 52.5q26 36 35 99t9 143l-1 86l1 47q2 32 2 50q0 62 -18 104q-24 54 -71 80t-120 26q-55 0 -102 -17.5zM334 366l-1 -78q-2 -54 -2 -80q0 -38 -30 -60t-65 -22q-43 0 -64.5 25t-28.5 60t-10 91l-1 21
q-2 36 -2 57q0 75 27 133t89 58q31 0 48 -15.5t23 -38t11 -59.5q1 -14 5 -35v-2zM243 562q-53 0 -78 -53.5t-25 -124.5q0 -21 2 -46.5t3 -35.5l3 -29q1 -7 1 -20q2 -30 5.5 -49.5t12.5 -37.5q14 -14 34 -22t40 -8q31 0 55.5 19t24.5 54q0 28 2 80l1 77l-1 54q-3 20 -3 38
q-1 24 -4 39t-12 30q-23 35 -61 35z" />
    <glyph glyph-name="OE" unicode="&#x152;" horiz-adv-x="830" 
d="M803 -2q-92 0 -184 -3q-122 -2 -184 -2q-26 0 -88 -6q-70 -8 -112 -8q-125 0 -170.5 75.5t-45.5 199.5q0 46 6 122l3 40l2 40q1 39 3 64t9 50q17 60 68 96.5t114 36.5q33 0 109 -2t115 -2q60 0 182 2q120 2 181 2q7 -15 7 -45q0 -73 -5 -107q-6 -13 -80 -13l-40 1h-33
q-69 0 -113 -6q0 -8 -2 -24q-2 -26 -2 -40q0 -25 7 -43q18 -3 37 -3l59 1q23 0 28 -7v-1q0 -1 1 -1l1 -148q-18 2 -28 2q-13 0 -37 -2l-33 -1q-12 0 -24 2q-7 -15 -7 -54q0 -48 10 -67h64q129 0 192 -5l4 -5v-2q2 -40 2 -61q0 -60 -16 -76zM807 132q-63 5 -190 5h-63
q-8 3 -12 28.5t-4 54.5q0 23 3.5 40.5t10.5 17.5h40q20 2 30 2q15 0 43 -2l1 44q2 30 2 46q0 23 -3 45q-11 2 -33 2l-48 -1q-19 0 -37 3q-14 6 -14 52q0 12 2 34q2 24 2 33q4 8 16 10t34 2l94 -1q68 0 123 8q3 29 3 59l-1 79q-59 0 -179 -2t-180 -2q-59 0 -119 3
q-74 2 -106 2q-45 0 -78 -17q-48 -25 -69.5 -61t-26.5 -72t-9 -109l-3 -53q-1 -16 -3 -56.5t-2 -72.5q0 -79 15 -135.5t59.5 -92t128.5 -35.5q36 0 125 7q41 5 76 6q151 5 364 5q9 32 9 76q0 32 -1 48zM348 423q0 -35 -3 -68l-2 -27q-3 -51 -7.5 -84.5t-17.5 -63.5
q-11 -25 -36 -44.5t-48 -19.5q-42 0 -63 50.5t-21 107.5q0 18 2 54t2 52l-1 35q-2 26 -2 40q0 53 26 84.5t66 31.5q33 0 64 -23q12 -9 19.5 -24.5t11.5 -22.5l1 -1q9 -32 9 -77zM292 545.5q-17 15.5 -47 15.5q-39 0 -61.5 -29t-22.5 -79q0 -13 2 -39l1 -37q0 -32 -1 -48
l-1 -48q0 -65 18.5 -109t57.5 -44q52 0 76 73.5t24 198.5q0 64 -9 97l1 -1q-21 34 -38 49.5z" />
    <glyph glyph-name="P" unicode="P" horiz-adv-x="497" 
d="M454 369.5q-36 -51.5 -92 -83.5t-114 -32q-16 0 -33 3q0 -41 2 -123t2 -123l-4 -4l2 1l-1 -1l-4 -2h1q-16 -5 -44.5 -8t-57.5 -3q-61 0 -72 11q-6 96 -6 193q0 52 2 156t2 157q0 107 -5 183l5 6q79 19 151 19q73 0 142 -24.5t114 -76t45 -128.5l1 -13q0 -56 -36 -107.5z
M42 691q4 -79 4 -177l-1 -159q-2 -106 -2 -159q0 -108 5 -186q18 -5 60 -5q67 0 101 9q0 29 -2 113q-2 92 -2 135l6 6q16 -4 37 -4q53 0 102.5 26t83.5 69.5t43 95.5q1 3 1 9t1 8v19q0 77 -44 125.5t-111.5 69.5t-143.5 21q-72 0 -138 -16zM303.5 412.5
q-41.5 -12.5 -102.5 -12.5q-26 0 -26 86v35q0 28 5 38l1 1q5 0 15 2.5t16 2.5q63 0 100 -28q15 -10 24 -29t9 -38q0 -45 -41.5 -57.5zM214 552l-26 -1l-1 -61q0 -53 9 -80h11q10 2 15 2l21 -1q44 2 68 17t24 55q-5 17 -11 27t-18 19q-19 14 -35 19t-35 5q-14 0 -22 -1z" />
    <glyph glyph-name="Thorn" unicode="&#xde;" horiz-adv-x="478" 
d="M34 37q1 24 3 87t2 113q0 69 -2 199q-3 102 -3 210q0 83 10 89l136 -3l5 -5l2 -121q14 20 44.5 26.5t59.5 6.5q28 0 58.5 -17.5t54.5 -44t34 -50.5q25 -63 25 -135q0 -65 -19.5 -126t-56.5 -100t-87 -39q-29 0 -58 12.5t-54 35.5q0 -15 -1 -35.5t-2 -31.5
q-1 -13 -2 -38.5t-1 -45.5q0 -11 4 -18q-5 -10 -17.5 -13.5t-34.5 -3.5q-14 0 -44 2q-28 2 -38 2h-20zM242 152.5q32 -14.5 64 -14.5q44 0 77.5 35t51 94t17.5 128q0 98 -44 165t-135 67q-8 -2 -26 -4q-26 -4 -39.5 -11t-20.5 -28l-10 3l-2 135l-126 3q-4 -72 -4 -162
q0 -54 2 -164t2 -165q0 -96 -7 -231q13 0 41 -2q26 -3 51 -3t41 8q-3 11 -3 23q0 39 3 76q1 12 2 36.5t1 44.5l9 4q23 -23 55 -37.5zM315.5 302.5q-25.5 -34.5 -69.5 -34.5q-33 0 -50.5 19t-17.5 65l1 43q0 5 -1 16t-1 28q0 36 12 50t40 14q37 0 67.5 -16.5t37.5 -50.5
q7 -22 7 -51q0 -48 -25.5 -82.5zM194 478q-7 -15 -7 -41q0 -12 1 -23t1 -20l-1 -41q0 -35 11.5 -55t46.5 -20q43 0 63.5 34t20.5 81q-3 5 -3.5 19.5t-2.5 20.5q-6 32 -35 46t-64 14q-24 0 -31 -15z" />
    <glyph glyph-name="Q" unicode="Q" horiz-adv-x="495" 
d="M445 64.5q8 -9.5 8 -17.5q0 -13 -12.5 -27t-29.5 -23t-30 -9q-21 0 -43 28q-17 -14 -44.5 -21t-55.5 -7q-57 0 -107.5 28t-77.5 77q-31 57 -31 168q0 25 2 67l1 54q0 84 3.5 146t20.5 96q46 95 216 95q73 0 106 -19q46 -28 68.5 -84t27.5 -115t5 -137q0 -64 -4 -115
q-1 -9 -1 -26q-2 -40 -6 -60q-1 -19 -8 -38.5t-19 -46.5q3 -4 11 -13.5zM457 225q0 16 1 25q4 64 4 144q0 82 -11.5 148t-46.5 114q-26 35 -59.5 44t-81.5 9q-167 0 -205 -89q-24 -58 -24 -214l1 -99l-1 -63q0 -46 5.5 -81.5t21.5 -65.5q25 -46 74.5 -72t103.5 -26
q69 0 98 29q4 -2 17 -14.5t21 -16.5q23 0 45 18t22 36l-3 6q-11 9 -15 19v4q3 7 10.5 24t12 32.5t4.5 27.5v2q4 20 6 59zM249.5 198q-15.5 -9 -18.5 -15q0 -16 9 -28.5t19.5 -22.5t13.5 -13q-3 -6 -6 -8t-9 -2q-55 0 -80 29t-29.5 65t-4.5 94q0 20 4 30l-1 21q-2 16 -2 25
q0 75 6.5 117t24.5 62t53 20q55 0 81 -23t32 -58.5t6 -97.5l1 -40q2 -26 2 -46q0 -7 -6 -53q-7 -58 -7 -66l1 -6q-6 -2 -8 -4q-10 10 -16 24q-12 19 -18 25h-7l-9 -4q-16 -16 -31.5 -25zM338 258l-1 17q0 13 1 22l1 51v35q0 63 -6 99t-28 58t-68 22q-35 0 -52 -14t-23 -44
t-6 -86q0 -15 2 -35q2 -16 2 -24q0 -18 -2 -52q-3 -27 -3 -55q0 -62 20.5 -97t82.5 -35q-38 38 -38 60q0 10 6.5 16t17 11.5t17.5 10.5q4 3 9.5 8.5t11 8t12.5 2.5q10 0 16 -7.5t12 -20t9 -16.5q0 44 7 65z" />
    <glyph glyph-name="R" unicode="R" horiz-adv-x="518" 
d="M517 -2l-84 -1q-28 -1 -83 -1l-4 3q-5 10 -30 62q-22 50 -35 74q-15 27 -49 77q-6 9 -11 16t-9 13q-4 -25 -4 -68q0 -89 11 -162q-9 -18 -96 -18l-44 1q-13 1 -39 1l-3 8l-1 -2q3 18 3 55q0 80 -2 240q-3 119 -3 239v54q0 67 -6 109l5 6q112 20 189 20q73 0 138 -23.5
t105.5 -73.5t40.5 -124q0 -49 -19.5 -94.5t-56 -75t-85.5 -32.5q15 -26 64 -99q43 -64 69 -108t44 -92l-5 4v-8zM464 98q-25 42 -74 116l-16 22q-18 23 -28 39t-13 30l5 6q48 0 84 28t55 72t19 91q0 77 -40.5 124.5t-100 67t-123.5 19.5q-14 0 -44 -2l-22 -1h2
q-77 -5 -129 -15q2 -16 2 -23q0 -140 5 -313q4 -206 4 -311q0 -22 -3 -43q25 0 38 -1l43 -1q50 0 81 11q-11 90 -11 164q0 48 6 78l9 2q5 -7 11.5 -17t14.5 -21q36 -52 51 -81l32 -66q17 -38 31 -67l78 1q26 1 78 1q-20 48 -45 90zM248 580q39 0 62 -23t23 -56
q0 -32 -19.5 -53.5t-57.5 -21.5q-23 0 -42 3q-24 2 -30 2q-11 11 -11 35q0 12 1.5 23.5t1.5 19.5q0 4 -1 8t-1 9l1 18l2 20q37 16 71 16zM184 555v-6q2 -4 2 -28l-1 -49q0 -16 3 -31q28 -6 57 -6q79 0 79 63q0 19 -8.5 35.5t-23.5 25.5q-19 10 -43 10q-32 0 -65 -14z" />
    <glyph glyph-name="S" unicode="S" horiz-adv-x="485" 
d="M310 470l-3 6q1 4 1 10q0 24 -19 39t-43 15q-22 0 -39 -14t-17 -40q0 -27 16.5 -36.5t46.5 -13.5q14 -2 21 -4q90 -24 141.5 -86t51.5 -140q0 -68 -30 -117.5t-80.5 -74.5t-109.5 -25q-60 0 -115 24t-90 69t-35 106q0 18 8 22t30 4h44q74 0 81 -7q2 -28 22 -43.5
t46 -15.5q24 0 41 13.5t17 38.5q0 44 -34.5 62t-93.5 28q-2 1 -31 7q-32 8 -59.5 36.5t-44 66.5t-16.5 71q0 65 29 118.5t82 84.5t124 31q56 0 106.5 -20t82 -60.5t31.5 -98.5q0 -16 -4 -52q-13 -13 -90 -13q-35 0 -68 9zM458 478q5 28 5 50q0 53 -31 91t-80.5 57.5
t-102.5 19.5q-64 0 -114.5 -29.5t-79 -80t-28.5 -109.5q0 -31 14 -68t39.5 -65.5t57.5 -36.5q11 -3 35 -7q41 -8 68 -16.5t46.5 -28.5t19.5 -55q0 -29 -21 -45.5t-49 -16.5q-29 0 -52 17t-25 47q-34 0 -51 1l-52 1q-27 0 -40 -2q0 -62 31.5 -108t84 -70t114.5 -24
q56 0 104 23.5t77 70t29 111.5q0 64 -36.5 117t-100.5 84q-10 5 -26.5 8.5t-21.5 4.5q-45 8 -68.5 21t-23.5 45q0 31 19.5 47.5t45.5 16.5q29 0 51.5 -17t22.5 -43l-1 -10q30 -9 62 -9q26 0 78 8z" />
    <glyph glyph-name="Scaron" unicode="&#x160;" horiz-adv-x="485" 
d="M148.5 834.5q-39.5 38.5 -70.5 79.5l101 7q13 1 21.5 -5t20.5 -20q13 -16 25 -25l17 19q15 18 27.5 26.5t32.5 8.5l99 -13l-169 -167q-5 0 -7 -1q-58 52 -97.5 90.5zM151 909q-30 -5 -54 -4q31 -38 66.5 -72t85.5 -78l151 150q-13 0 -22 1t-16 2q-18 3 -38 3
q-21 0 -31.5 -6.5t-22.5 -20.5q-13 -16 -26 -23q-8 3 -24 20t-19 23q-5 5 -10.5 6t-6.5 1h-10q-14 -2 -23 -2zM307 476q1 4 1 10q0 24 -19 39t-43 15q-22 0 -39 -14t-17 -40q0 -27 16.5 -36.5t46.5 -13.5q14 -2 21 -4q90 -24 141.5 -86t51.5 -140q0 -68 -30 -117.5
t-80.5 -74.5t-109.5 -25q-60 0 -115 24t-90 69t-35 106q0 18 8 22t30 4h44q74 0 81 -7q2 -28 22 -43.5t46 -15.5q24 0 41 13.5t17 38.5q0 44 -34.5 62t-93.5 28q-2 1 -31 7q-32 8 -59.5 36.5t-44 66.5t-16.5 71q0 65 29 118.5t82 84.5t124 31q56 0 106.5 -20t82 -60.5
t31.5 -98.5q0 -16 -4 -52q-13 -13 -90 -13q-35 0 -68 9zM296.5 532q22.5 -17 22.5 -43l-1 -10q30 -9 62 -9q26 0 78 8q5 28 5 50q0 53 -31 91t-80.5 57.5t-102.5 19.5q-64 0 -114.5 -29.5t-79 -80t-28.5 -109.5q0 -31 14 -68t39.5 -65.5t57.5 -36.5q11 -3 35 -7
q41 -8 68 -16.5t46.5 -28.5t19.5 -55q0 -29 -21 -45.5t-49 -16.5q-29 0 -52 17t-25 47q-34 0 -51 1l-52 1q-27 0 -40 -2q0 -62 31.5 -108t84 -70t114.5 -24q56 0 104 23.5t77 70t29 111.5q0 64 -36.5 117t-100.5 84q-10 5 -26.5 8.5t-21.5 4.5q-45 8 -68.5 21t-23.5 45
q0 31 19.5 47.5t45.5 16.5q29 0 51.5 -17z" />
    <glyph glyph-name="T" unicode="T" horiz-adv-x="443" 
d="M215 710q140 0 223 -8v-102q0 -45 -10 -65q-17 4 -40 4q-15 0 -41 -2q-28 -2 -40 -2l-1 -60q-1 -20 -1 -59q0 -68 4 -206q1 -34 2 -85t1 -119q-4 -10 -43 -10l-39 1q-28 2 -40 2q-27 0 -46 -5q-8 5 -8 21q0 19 2 57l1 57v132q0 175 -3 264q-12 6 -29 9.5t-32 3.5l-49 -1
q-14 0 -18.5 10.5t-4.5 30.5l1 26v49v20.5t2 29.5h-1l5 6zM428 628q0 41 -1 62q-106 10 -255 10l-157 -1q-4 -16 -4 -77q0 -59 7 -73q12 -3 28 -3l40 1q20 0 41 -6t21 -18q0 -30 -1 -50l-1 -67q0 -46 2 -138l1 -138q0 -10 -2 -40q-2 -36 -2 -54q0 -13 2 -31q14 3 42 3
q23 0 35 -1l35 -1q23 0 42 4q-6 148 -6 373v106v33q0 5 0.5 9.5t1.5 6.5v-1q0 12 79 12q32 0 48 -3q4 36 4 82zM299 542l1 1l-2 -3z" />
    <glyph glyph-name="U" unicode="U" horiz-adv-x="505" 
d="M478 483q0 -90 -5 -203l-1 -23q-2 -64 -9.5 -112t-29.5 -80q-34 -49 -78.5 -68t-98.5 -19q-71 0 -132 32t-84 92q-10 26 -10 80q0 102 4 298q1 39 2 89t1 109q3 7 26 8.5t59 1.5q58 0 65 -13q0 -79 -1 -118l-1 -118q0 -27 2 -81q2 -56 2 -82l-1 -34q0 -42 13.5 -69.5
t52.5 -27.5q24 0 36.5 10.5t17.5 37t5 78.5v101q0 176 5 301q24 12 99 12q31 0 55 -12l2 -4q4 -124 4 -186zM464 665q-21 10 -48 10q-14 0 -44 -4t-44 -4q-3 -67 -4 -146t-1 -104q0 -120 -2 -181q-4 -56 -18.5 -79t-55.5 -23q-32 0 -47.5 22.5t-19 53.5t-3.5 79q0 29 -1 42
q-4 65 -4 147q0 86 5 193q-30 5 -71 5l-60 -1q0 -56 -1 -131.5t-2 -116.5q-3 -123 -3 -247q0 -44 9 -74q16 -55 79.5 -86.5t136.5 -31.5q86 0 128.5 41.5t54 96t14.5 133.5l1 22q5 112 5 201q0 61 -4 183z" />
    <glyph glyph-name="Uacute" unicode="&#xda;" horiz-adv-x="505" 
d="M388 813q-57 -47 -66 -65q-7 -7 -62 -7q-29 0 -52.5 2.5t-27.5 6.5v8q28 24 80 78q48 53 87 85q13 -7 26 -19t31 -32l19 -20v-6q-7 -7 -35 -31zM350 910q-34 -27 -93 -90q-31 -33 -64 -64q33 -6 72 -6q28 0 48 4q6 11 24.5 28.5t38.5 33.5q23 18 36 31zM473 280l-1 -23
q-2 -64 -9.5 -112t-29.5 -80q-34 -49 -78.5 -68t-98.5 -19q-71 0 -132 32t-84 92q-10 26 -10 80q0 102 4 298q1 39 2 89t1 109q3 7 26 8.5t59 1.5q58 0 65 -13q0 -79 -1 -118l-1 -118q0 -27 2 -81q2 -56 2 -82l-1 -34q0 -42 13.5 -69.5t52.5 -27.5q24 0 36.5 10.5t17.5 37
t5 78.5v101q0 176 5 301q23 12 101 12q39 0 55 -15v-1q4 -124 4 -186q0 -90 -5 -203zM464 666q-22 9 -46 9q-16 0 -46 -4t-44 -4q-3 -67 -4 -146t-1 -104q0 -120 -2 -181q-4 -56 -18.5 -79t-55.5 -23q-32 0 -47.5 22.5t-19 53.5t-3.5 79q0 29 -1 42q-4 65 -4 147q0 86 5 193
q-30 5 -71 5l-60 -1q0 -56 -1 -131.5t-2 -116.5q-3 -123 -3 -247q0 -44 9 -74q16 -55 79.5 -86.5t136.5 -31.5q86 0 128.5 41.5t54 96t14.5 133.5l1 22q5 112 5 201q0 62 -4 184z" />
    <glyph glyph-name="Ucircumflex" unicode="&#xdb;" horiz-adv-x="505" 
d="M381 747q-32 -5 -50 -5q-32 0 -49.5 11.5t-28.5 32.5l-8 8q-9 -7 -28 -26q-11 -13 -21.5 -18.5t-37.5 -5.5q-39 0 -72 6l-3 9q26 34 56 64t75 70l31 29q2 -1 7 -1l163 -162l-4 -8q-10 0 -30 -4zM298 861l-50 50l-39 -36q-44 -41 -68 -64.5t-46 -51.5q32 -4 69 -4
q23 0 34 6.5t22 20.5q14 17 22 22h6q9 -6 25 -26l14 -16l9 -6q40 -2 60 -2q7 0 12 1t9 2l22 3q-51 50 -101 101zM473 280l-1 -23q-2 -64 -9.5 -112t-29.5 -80q-34 -49 -78.5 -68t-98.5 -19q-71 0 -132 32t-84 92q-10 26 -10 80q0 102 4 298q1 39 2 89t1 109q3 7 26 8.5
t59 1.5q58 0 65 -13q0 -79 -1 -118l-1 -118q0 -27 2 -81q2 -56 2 -82l-1 -34q0 -42 13.5 -69.5t52.5 -27.5q24 0 36.5 10.5t17.5 37t5 78.5v101q0 176 5 301q23 12 101 12q39 0 55 -15v-1q4 -124 4 -186q0 -90 -5 -203zM464 666q-22 9 -46 9q-16 0 -46 -4t-44 -4
q-3 -67 -4 -146t-1 -104q0 -120 -2 -181q-4 -56 -18.5 -79t-55.5 -23q-32 0 -47.5 22.5t-19 53.5t-3.5 79q0 29 -1 42q-4 65 -4 147q0 86 5 193q-30 5 -71 5l-60 -1q0 -56 -1 -131.5t-2 -116.5q-3 -123 -3 -247q0 -44 9 -74q16 -55 79.5 -86.5t136.5 -31.5q86 0 128.5 41.5
t54 96t14.5 133.5l1 22q5 112 5 201q0 62 -4 184z" />
    <glyph glyph-name="Udieresis" unicode="&#xdc;" horiz-adv-x="505" 
d="M101 792q0 19 3 37q2 22 2 30l3 6q22 9 58 9q51 0 58 -15q-3 -19 -3 -44q0 -45 -8 -62l-99 1h-3q-11 6 -11 38zM275 792q0 19 3 37q2 22 2 30l3 6q22 9 58 9q51 0 58 -15q-3 -19 -3 -44q0 -45 -8 -62l-99 1h-3q-11 6 -11 38zM214 858q-16 6 -38 6q-23 0 -60 -7
q0 -9 -2 -31q-3 -18 -3 -36q0 -17 4 -26l94 -1q0 64 5 95zM388 858q-16 6 -38 6q-23 0 -60 -7q0 -9 -2 -31q-3 -18 -3 -36q0 -17 4 -26l94 -1q0 64 5 95zM473 280l-1 -23q-2 -64 -9.5 -112t-29.5 -80q-34 -49 -78.5 -68t-98.5 -19q-71 0 -132 32t-84 92q-10 26 -10 80
q0 102 4 298q1 39 2 89t1 109q3 7 26 8.5t59 1.5q58 0 65 -13q0 -79 -1 -118l-1 -118q0 -27 2 -81q2 -56 2 -82l-1 -34q0 -42 13.5 -69.5t52.5 -27.5q24 0 36.5 10.5t17.5 37t5 78.5v101q0 176 5 301q23 12 101 12q39 0 55 -15v-1q4 -124 4 -186q0 -90 -5 -203zM464 666
q-22 9 -46 9q-16 0 -46 -4t-44 -4q-3 -67 -4 -146t-1 -104q0 -120 -2 -181q-4 -56 -18.5 -79t-55.5 -23q-32 0 -47.5 22.5t-19 53.5t-3.5 79q0 29 -1 42q-4 65 -4 147q0 86 5 193q-30 5 -71 5l-60 -1q0 -56 -1 -131.5t-2 -116.5q-3 -123 -3 -247q0 -44 9 -74
q16 -55 79.5 -86.5t136.5 -31.5q86 0 128.5 41.5t54 96t14.5 133.5l1 22q5 112 5 201q0 62 -4 184z" />
    <glyph glyph-name="Ugrave" unicode="&#xd9;" horiz-adv-x="505" 
d="M221.5 874.5q24.5 -24.5 70.5 -74.5q4 -5 16.5 -19t25.5 -23v-8q-17 -9 -81 -9q-60 0 -60 7q-9 15 -57 53q-44 34 -44 42v8l69 70h6q30 -22 54.5 -46.5zM101 847l24 -21q66 -54 75 -72q14 -4 49 -4q47 0 71 6q-13 11 -35 37q-41 44 -66.5 69.5t-54.5 47.5zM473 280
l-1 -23q-2 -64 -9.5 -112t-29.5 -80q-34 -49 -78.5 -68t-98.5 -19q-71 0 -132 32t-84 92q-10 26 -10 80q0 102 4 298q1 39 2 89t1 109q3 7 26 8.5t59 1.5q58 0 65 -13q0 -79 -1 -118l-1 -118q0 -27 2 -81q2 -56 2 -82l-1 -34q0 -42 13.5 -69.5t52.5 -27.5q24 0 36.5 10.5
t17.5 37t5 78.5v101q0 176 5 301q23 12 101 12q39 0 55 -15v-1q4 -124 4 -186q0 -90 -5 -203zM464 666q-22 9 -46 9q-16 0 -46 -4t-44 -4q-3 -67 -4 -146t-1 -104q0 -120 -2 -181q-4 -56 -18.5 -79t-55.5 -23q-32 0 -47.5 22.5t-19 53.5t-3.5 79q0 29 -1 42q-4 65 -4 147
q0 86 5 193q-30 5 -71 5l-60 -1q0 -56 -1 -131.5t-2 -116.5q-3 -123 -3 -247q0 -44 9 -74q16 -55 79.5 -86.5t136.5 -31.5q86 0 128.5 41.5t54 96t14.5 133.5l1 22q5 112 5 201q0 62 -4 184z" />
    <glyph glyph-name="V" unicode="V" horiz-adv-x="440" 
d="M450 682q-70 -355 -166 -683q-15 -7 -66 -7l-36 -1q-41 0 -54 13q-38 133 -66.5 286t-41.5 286l-6 69q-1 8 -1.5 18.5t-1.5 18.5q20 20 84 20q39 0 54 -4.5t18 -16t3 -42.5v-25q0 -211 41 -370q16 79 43 243q13 78 24.5 141.5t15.5 63.5v-1l3 6l2 1h3q12 -4 29 -4l37 1
q55 0 78 -6zM439 680h-19q-22 0 -30 3l-41 -1q-27 0 -46 5q-11 -39 -23 -121q-5 -38 -10 -61l-12 -70q-21 -127 -42 -214q-3 1 -10 1q-46 186 -46 350v39q0 48 -6 77q-22 4 -60 4q-57 0 -73 -12q31 -371 116 -671q21 -8 53 -8q23 0 45 3q28 2 40 2q98 333 164 674z" />
    <glyph glyph-name="W" unicode="W" horiz-adv-x="465" 
d="M451 696q-15 -172 -33 -345q-5 -56 -15.5 -161.5t-17.5 -184.5q-6 -6 -14 -8t-22 -2q-16 0 -29 1.5t-22 1.5q-11 0 -20 26.5t-20 73.5q-13 52 -20 67q-10 -13 -15 -31.5t-10 -49.5q-5 -33 -9.5 -50t-15.5 -30q-7 -7 -35 -7q-18 0 -51 3q0 -4 -2 0h-4l-5 4l-12 81
q-30 206 -45.5 343t-15.5 267q10 10 46 10l52 -1q16 -1 50 -1q10 -21 10 -69q0 -32 -2 -92l-1 -89q0 -89 14 -151q9 33 16 67q2 9 10.5 44.5t16.5 52.5l1 1q13 -7 21 -33t18 -75q10 -48 16 -67q3 52 5 156q2 82 4 124l3 75q1 7 2 27t2 20v-1l3 6q20 7 57 7l43 -1q2 0 20 0.5
t25 -6.5zM405 317q4 46 15.5 163.5t19.5 212.5q-15 2 -46 2q-37 0 -82 -5q-7 -62 -8 -130.5t-1 -80.5q0 -132 -9 -211q-6 -2 -9 -2q-14 33 -25 92q-12 62 -25 92q-27 -93 -43 -171q-3 1 -10 1q-17 72 -17 180l1 128q0 58 -4 105l-42 1q-14 1 -43 1q-25 0 -49 -3
q5 -154 22.5 -309t49.5 -373q7 0 21 -2q20 -2 29 -2q19 0 31 5q5 9 10.5 33t6.5 29q10 50 19 77.5t21 27.5h1q11 -11 18 -32.5t17 -61.5q7 -31 12.5 -49.5t13.5 -26.5q8 0 23 -1.5t26 -1.5q18 0 27 4q10 112 29 308z" />
    <glyph glyph-name="X" unicode="X" horiz-adv-x="436" 
d="M415 615q-44 -122 -60 -185q-2 -9 -10.5 -37t-8.5 -52q0 -19 5 -38t14 -47l7 -24l25 -83q29 -92 42 -145q-5 -7 -25.5 -8t-64.5 -1q-42 0 -52 6q-8 5 -14.5 29.5t-7.5 27.5l-14 56q-14 70 -31 106q-17 -36 -32 -104q-10 -40 -18 -66t-20 -50l-5 -3h-1q-17 -5 -47 -5
q-26 0 -51.5 3t-38.5 9l-3 6q18 68 49 155q40 120 55 182q-33 142 -113 340q3 7 41 10.5t76 3.5q30 0 39.5 -9.5t12 -24t5.5 -22.5q7 -23 19 -69q17 -61 29 -97q14 39 36 119q12 51 28 98v-1q11 11 62 11l53 -1l25 1q18 0 24 -6l-1 -2v-2q-9 -27 -29 -81zM391 695
q-68 0 -101 -4q-8 -24 -23 -84q-10 -46 -20 -79t-25 -63h-9q-12 22 -24 72q-2 14 -8 32l-15 50q-14 44 -20 66v1l-5 2q-74 0 -135 -4q63 -150 91 -248q21 -73 21 -91q-9 -45 -23 -89.5t-35 -102.5q-33 -98 -45 -141q21 -9 54 -9q15 0 45 2q20 2 28 2q14 30 23.5 66t11.5 42
q10 41 18 67t21 51q2 1 8 1q8 -8 12.5 -21t7 -26t4.5 -20l9 -40q9 -41 16.5 -67.5t19.5 -50.5q21 -5 52 -5q17 0 49 2l24 1q-16 61 -41 138l-25 84q-2 6 -9.5 30.5t-12 46t-4.5 36.5q5 57 22.5 115t50.5 145q6 16 14.5 39t18.5 54h-41z" />
    <glyph glyph-name="Y" unicode="Y" horiz-adv-x="435" 
d="M156 -5q-5 0 -8 1l-37 -2q-44 -2 -68 -2h-39q21 71 48 142t67 167l18 45q0 15 -8.5 39t-17.5 44.5t-12 28.5l-9 19q-32 73 -50 119.5t-29 94.5q7 7 36 10t56 3q29 0 49 -10q0 -2 2 -2q21 -106 72 -210q11 22 21 50t18 54q21 69 38 104q5 5 36 8t59 3q6 0 30 -4l27 -4v-3
q-27 -80 -59.5 -155.5t-88.5 -193.5q-52 -109 -85.5 -186.5t-60.5 -156.5zM415 689l-30 1q-46 0 -75 -6q-15 -33 -37 -103q-24 -76 -42 -112h-9q-59 119 -77 218q-21 6 -41 6t-41 -3q-7 -1 -17 -2t-24 -1q10 -42 25.5 -82t42.5 -103q9 -19 25 -57q2 -6 17 -40t15 -57
q0 -11 -6 -23t-8 -17q-40 -98 -67 -166.5t-48 -137.5l3 -1l33 2q66 3 70 3q22 0 28 -3q27 77 60 152.5t83 181.5q56 118 88.5 193.5t59.5 155.5q-19 0 -28 1z" />
    <glyph glyph-name="Yacute" unicode="&#xdd;" 
d="M354 813q-57 -47 -66 -65q-7 -7 -62 -7q-29 0 -52.5 2.5t-27.5 6.5v8q28 24 80 78q48 53 87 85q13 -7 26 -19t31 -32l19 -20v-6q-7 -7 -35 -31zM316 910q-34 -27 -93 -90q-31 -33 -64 -64q33 -6 72 -6q28 0 48 4q6 11 24.5 28.5t38.5 33.5q23 18 36 31zM155 -6
q-12 2 -41 2q-19 0 -57 -2l-46 -1l-5 6q24 77 52.5 150.5t77.5 193.5q-2 24 -18.5 65t-18.5 47q-14 32 -20 48q-25 56 -41.5 98.5t-26.5 85.5q12 12 103 12q48 0 59 -11q11 -51 23.5 -91t30.5 -74q25 47 29 56q10 19 18 46q1 4 9.5 25.5t18.5 35.5q7 10 88 10l42 1
q9 0 14 -1.5t7 -6.5v-3q-27 -80 -60.5 -157.5t-87.5 -192.5q-50 -105 -84 -182.5t-61 -156.5zM408 687q-47 0 -98 -7q-12 -24 -20 -42t-13 -30q-28 -66 -46 -98q-19 0 -37.5 59t-29.5 113q-28 9 -52 9q-15 0 -43 -4q-30 -4 -47 -4q9 -35 21.5 -68t33.5 -82q26 -56 41 -100
q3 -9 15.5 -39t12.5 -49q0 -13 -23 -65l-11 -27l-26 -67q-46 -116 -68 -183q81 3 102 3q24 0 32 -1q27 79 61.5 158.5t83.5 181.5q58 125 88 194t56 146q-18 2 -33 2z" />
    <glyph glyph-name="Ydieresis" unicode="&#x178;" 
d="M79 792q0 19 3 37q2 22 2 30l3 6q22 9 58 9q51 0 58 -15q-3 -19 -3 -44q0 -45 -8 -62l-99 1h-3q-11 6 -11 38zM253 792q0 19 3 37q2 22 2 30l3 6q22 9 58 9q51 0 58 -15q-3 -19 -3 -44q0 -45 -8 -62l-99 1h-3q-11 6 -11 38zM192 858q-17 6 -38 6q-23 0 -60 -7
q0 -9 -2 -31q-3 -18 -3 -36q0 -17 4 -26l94 -1q0 64 5 95zM366 858q-16 6 -38 6q-23 0 -60 -7q0 -9 -2 -31q-3 -18 -3 -36q0 -17 4 -26l94 -1q0 64 5 95zM155 -6q-12 2 -41 2q-19 0 -57 -2l-46 -1l-5 6q24 77 52.5 150.5t77.5 193.5q-2 24 -18.5 65t-18.5 47q-14 32 -20 48
q-25 56 -41.5 98.5t-26.5 85.5q12 12 103 12q48 0 59 -11q11 -51 23.5 -91t30.5 -74q25 47 29 56q10 19 18 46q1 4 9.5 25.5t18.5 35.5q7 10 88 10l42 1q9 0 14 -1.5t7 -6.5v-3q-27 -80 -60.5 -157.5t-87.5 -192.5q-50 -105 -84 -182.5t-61 -156.5zM408 687q-47 0 -98 -7
q-12 -24 -20 -42t-13 -30q-28 -66 -46 -98q-19 0 -37.5 59t-29.5 113q-28 9 -52 9q-15 0 -43 -4q-30 -4 -47 -4q9 -35 21.5 -68t33.5 -82q26 -56 41 -100q3 -9 15.5 -39t12.5 -49q0 -13 -23 -65l-11 -27l-26 -67q-46 -116 -68 -183q81 3 102 3q24 0 32 -1q27 79 61.5 158.5
t83.5 181.5q58 125 88 194t56 146q-18 2 -33 2z" />
    <glyph glyph-name="Z" unicode="Z" horiz-adv-x="474" 
d="M307 308q-81 -118 -103 -152q36 5 77 6t50 1q67 0 114 5q8 -17 8 -63l1 -35q0 -55 -11 -77q-89 5 -213 5q-109 0 -196 -4q-15 8 -15 84l1 69q0 19 10.5 40t30.5 53l12 19q41 69 131 192l57 80q-114 12 -232 12q-14 6 -14 53l1 33q-2 10 -4 27.5t-2 28.5l-1 3
q0 1 -0.5 3.5t0.5 3.5q79 8 181 8q43 0 131 -2q86 -2 130 -2q8 -17 8 -47q0 -21 -2 -61l-1 -57l-1 -3q-46 -77 -148 -223zM448 589l1 54q0 31 -2 46q-44 0 -130 2q-88 2 -131 2q-89 0 -166 -7q8 -24 8 -73q0 -7 -1 -15.5t-1 -16.5q0 -17 6 -28q14 1 31.5 -0.5t24.5 -1.5
q26 -3 50 -3h38q92 0 98 -16l-64 -87q-69 -93 -111 -157t-69 -130q1 -10 1 -30l-1 -54q0 -44 8 -70q103 5 185 5q107 0 215 -6q0 28 3 56q2 36 2 55q0 22 -3 43q-30 -3 -65.5 -4t-46.5 -1q-81 0 -134 -7l-4 9q7 8 25 37q17 26 100 147q85 120 132 198l-1 -1q0 18 2 54z" />
    <glyph glyph-name="Zcaron" unicode="&#x17d;" horiz-adv-x="474" 
d="M149 832q-40 40 -72 81l98 8q13 1 21.5 -5t20.5 -20q13 -16 25 -25l17 19q15 18 27.5 26.5t32.5 8.5q15 0 53 -6q9 -1 23.5 -3t22.5 -2l-6 -7l-163 -162q-5 0 -7 -1q-53 48 -93 88zM159.5 833q35.5 -34 85.5 -78l151 150q-13 0 -22 1t-16 2q-18 3 -38 3q-21 0 -31.5 -6.5
t-22.5 -20.5q-13 -16 -26 -23q-8 3 -24 20t-19 23q-5 5 -10.5 6t-6.5 1l-87 -6q31 -38 66.5 -72zM459 652q0 -21 -2 -61l-1 -57l-1 -3q-46 -77 -148 -223q-81 -118 -103 -152q36 5 77 6t50 1q67 0 114 5q8 -17 8 -63l1 -35q0 -55 -11 -77q-89 5 -213 5q-109 0 -196 -4
q-15 8 -15 84l1 69q0 19 10.5 40t30.5 53l12 19q41 69 131 192l57 80q-114 12 -232 12q-14 6 -14 53l1 33q-2 10 -4 27.5t-2 28.5l-1 3q0 1 -0.5 3.5t0.5 3.5q79 8 181 8q43 0 131 -2q86 -2 130 -2q8 -17 8 -47zM446 535q0 18 2 54l1 54q0 31 -2 46q-44 0 -130 2
q-88 2 -131 2q-89 0 -166 -7q8 -24 8 -73q0 -7 -1 -15.5t-1 -16.5q0 -17 6 -28q14 1 31.5 -0.5t24.5 -1.5q26 -3 50 -3h38q92 0 98 -16l-64 -87q-69 -93 -111 -157t-69 -130q1 -10 1 -30l-1 -54q0 -44 8 -70q103 5 185 5q107 0 215 -6q0 28 3 56q2 36 2 55q0 22 -3 43
q-30 -3 -65.5 -4t-46.5 -1q-81 0 -134 -7l-4 9q7 8 25 37q17 26 100 147q85 120 132 198z" />
    <glyph glyph-name="a" unicode="a" horiz-adv-x="476" 
d="M447 187l1 -127q0 -32 -7 -50.5t-24 -18.5q-11 0 -20 4h-78q-8 -2 -11 -2q-19 0 -19 28q0 8 2 22q-27 -23 -58 -36t-63 -13t-56 12q-28 14 -51.5 55t-37 95.5t-13.5 107.5q0 66 23.5 120t65.5 85.5t96 31.5q35 0 54 -6.5t33 -25.5q1 7 2.5 16t1.5 16l3 6q8 3 33 3
q22 0 68 -4q27 -3 47 -3l5 -5v-4q3 -9 3 -25q0 -9 -1 -15.5t-1 -11.5v-128q0 -43 2 -127zM435 101q3 47 3 93l-1 148q-2 100 -2 148q-1 1 -1 3q-34 0 -69 3q-44 2 -67 2q0 -9 -3 -20q-1 -4 -2 -8.5t-1 -11.5l1 -6q0 -1 0.5 -1h0.5q-6 -2 -9 -2h-1l-1 2q-14 24 -33.5 32
t-52.5 8q-52 0 -91.5 -29.5t-61 -81.5t-21.5 -115t16.5 -123.5t50 -99.5t80.5 -39q33 0 66.5 16t58.5 41q2 -2 8 -4q0 -5 -2 -16.5t-2 -17.5q0 -7 1.5 -11t6.5 -7h7q12 4 44 4t44 -4h25l6 6q0 29 2 91zM280.5 359.5q11.5 -8.5 15 -36t3.5 -94.5q0 -46 -15 -71.5t-51 -25.5
q-47 0 -72.5 35.5t-25.5 83.5q0 28 9 50l-1 -1q6 33 34 50.5t64 17.5q28 0 39.5 -8.5zM288 260l1 39q0 28 -6.5 43.5t-30.5 15.5q-38 0 -65.5 -14t-33.5 -47q-8 -17 -8 -45q0 -45 22.5 -77.5t63.5 -32.5q58 0 58 74z" />
    <glyph glyph-name="aacute" unicode="&#xe1;" horiz-adv-x="476" 
d="M236 578q-29 0 -52.5 2.5t-27.5 6.5v8q28 24 80 78q48 53 87 85q13 -7 26 -19t31 -32l19 -20v-6q-7 -7 -35 -31q-57 -47 -66 -65q-7 -7 -62 -7zM233 657q-31 -33 -64 -64q33 -6 72 -6q28 0 48 4q9 18 40.5 44t62.5 47q-21 23 -40 39l-26 26q-34 -27 -93 -90zM447 187
l1 -127q0 -32 -7 -50.5t-24 -18.5q-11 0 -20 4h-78q-8 -2 -11 -2q-19 0 -19 28q0 8 2 22q-27 -23 -58 -36t-63 -13t-56 12q-28 14 -51.5 55t-37 95.5t-13.5 107.5q0 66 23.5 120t65.5 85.5t96 31.5q35 0 54 -6.5t33 -25.5q1 7 2.5 16t1.5 16l3 6q8 3 33 3q22 0 68 -4
q27 -3 47 -3l5 -5v-4q3 -9 3 -25q0 -9 -1 -15.5t-1 -11.5v-128q0 -43 2 -127zM435 101q3 47 3 93l-1 148q-2 100 -2 148q-1 1 -1 3q-34 0 -69 3q-44 2 -67 2q0 -9 -3 -20q-1 -4 -2 -8.5t-1 -11.5l1 -6q0 -1 0.5 -1h0.5q-6 -2 -9 -2h-1l-1 2q-14 24 -33.5 32t-52.5 8
q-52 0 -91.5 -29.5t-61 -81.5t-21.5 -115t16.5 -123.5t50 -99.5t80.5 -39q33 0 66.5 16t58.5 41q2 -2 8 -4q0 -5 -2 -16.5t-2 -17.5q0 -7 1.5 -11t6.5 -7h7q12 4 44 4t44 -4h25l6 6q0 29 2 91zM280.5 359.5q11.5 -8.5 15 -36t3.5 -94.5q0 -46 -15 -71.5t-51 -25.5
q-47 0 -72.5 35.5t-25.5 83.5q0 28 9 50l-1 -1q6 33 34 50.5t64 17.5q28 0 39.5 -8.5zM288 260l1 39q0 28 -6.5 43.5t-30.5 15.5q-38 0 -65.5 -14t-33.5 -47q-8 -17 -8 -45q0 -45 22.5 -77.5t63.5 -32.5q58 0 58 74z" />
    <glyph glyph-name="acircumflex" unicode="&#xe2;" horiz-adv-x="476" 
d="M90 589l-3 9q26 34 56 64t75 70l31 29q2 -1 7 -1l163 -162l-4 -8q-10 0 -30 -4q-32 -5 -50 -5q-30 0 -43 8t-23 23q-10 14 -18 19q-1 0 -2.5 1t-1.5 2q-18 -13 -29 -28q-10 -13 -20 -18t-36 -5q-39 0 -72 6zM213 714q-44 -41 -68 -64.5t-46 -51.5q32 -4 69 -4
q23 0 34 6.5t22 20.5q14 17 22 22h6q9 -6 25 -26l14 -16l9 -6q32 -2 48 -2q20 0 29 3q10 2 20 2l5 1l-89 89l-61 62zM447 187l1 -127q0 -32 -7 -50.5t-24 -18.5q-11 0 -20 4h-78q-8 -2 -11 -2q-19 0 -19 28q0 8 2 22q-27 -23 -58 -36t-63 -13t-56 12q-28 14 -51.5 55
t-37 95.5t-13.5 107.5q0 66 23.5 120t65.5 85.5t96 31.5q35 0 54 -6.5t33 -25.5q1 7 2.5 16t1.5 16l3 6q8 3 33 3q22 0 68 -4q27 -3 47 -3l5 -5v-4q3 -9 3 -25q0 -9 -1 -15.5t-1 -11.5v-128q0 -43 2 -127zM435 101q3 47 3 93l-1 148q-2 100 -2 148q-1 1 -1 3q-34 0 -69 3
q-44 2 -67 2q0 -9 -3 -20q-1 -4 -2 -8.5t-1 -11.5l1 -6q0 -1 0.5 -1h0.5q-6 -2 -9 -2h-1l-1 2q-14 24 -33.5 32t-52.5 8q-52 0 -91.5 -29.5t-61 -81.5t-21.5 -115t16.5 -123.5t50 -99.5t80.5 -39q33 0 66.5 16t58.5 41q2 -2 8 -4q0 -5 -2 -16.5t-2 -17.5q0 -7 1.5 -11
t6.5 -7h7q12 4 44 4t44 -4h25l6 6q0 29 2 91zM280.5 359.5q11.5 -8.5 15 -36t3.5 -94.5q0 -46 -15 -71.5t-51 -25.5q-47 0 -72.5 35.5t-25.5 83.5q0 28 9 50l-1 -1q6 33 34 50.5t64 17.5q28 0 39.5 -8.5zM288 260l1 39q0 28 -6.5 43.5t-30.5 15.5q-38 0 -65.5 -14t-33.5 -47
q-8 -17 -8 -45q0 -45 22.5 -77.5t63.5 -32.5q58 0 58 74z" />
    <glyph glyph-name="adieresis" unicode="&#xe4;" horiz-adv-x="476" 
d="M114 623q0 21 -2 63q-3 32 -3 64q0 11 6 15l136 -3l5 -5v-34q4 -12 4 -46l-1 -48q0 -9 -19 -13t-38 -4q-78 0 -88 11zM298 623q0 21 -2 63q-3 32 -3 64q0 11 6 15l136 -3l5 -5v-34q4 -12 4 -46l-1 -48q0 -9 -19 -13t-38 -4q-78 0 -88 11zM119 737q0 -28 3 -55
q2 -36 2 -55l30 -2q48 -3 52 -3q33 0 43 9q0 29 -1 44l-1 43q-2 5 -2 16q0 12 1 18l-126 3zM303 737q0 -28 3 -55q2 -36 2 -55l30 -2q48 -3 52 -3q33 0 43 9q0 29 -1 44l-1 43q-2 5 -2 16q0 12 1 18l-126 3zM447 187l1 -127q0 -32 -7 -50.5t-24 -18.5q-11 0 -20 4h-78
q-8 -2 -11 -2q-19 0 -19 28q0 8 2 22q-27 -23 -58 -36t-63 -13t-56 12q-28 14 -51.5 55t-37 95.5t-13.5 107.5q0 66 23.5 120t65.5 85.5t96 31.5q35 0 54 -6.5t33 -25.5q1 7 2.5 16t1.5 16l3 6q8 3 33 3q22 0 68 -4q27 -3 47 -3l5 -5v-4q3 -9 3 -25q0 -9 -1 -15.5t-1 -11.5
v-128q0 -43 2 -127zM435 101q3 47 3 93l-1 148q-2 100 -2 148q-1 1 -1 3q-34 0 -69 3q-44 2 -67 2q0 -9 -3 -20q-1 -4 -2 -8.5t-1 -11.5l1 -6q0 -1 0.5 -1h0.5q-6 -2 -9 -2h-1l-1 2q-14 24 -33.5 32t-52.5 8q-52 0 -91.5 -29.5t-61 -81.5t-21.5 -115t16.5 -123.5t50 -99.5
t80.5 -39q33 0 66.5 16t58.5 41q2 -2 8 -4q0 -5 -2 -16.5t-2 -17.5q0 -7 1.5 -11t6.5 -7h7q12 4 44 4t44 -4h25l6 6q0 29 2 91zM280.5 359.5q11.5 -8.5 15 -36t3.5 -94.5q0 -46 -15 -71.5t-51 -25.5q-47 0 -72.5 35.5t-25.5 83.5q0 28 9 50l-1 -1q6 33 34 50.5t64 17.5
q28 0 39.5 -8.5zM288 260l1 39q0 28 -6.5 43.5t-30.5 15.5q-38 0 -65.5 -14t-33.5 -47q-8 -17 -8 -45q0 -45 22.5 -77.5t63.5 -32.5q58 0 58 74z" />
    <glyph glyph-name="agrave" unicode="&#xe0;" horiz-adv-x="476" 
d="M194.5 606.5q-12.5 11.5 -37.5 30.5q-41 33 -46 43v8l69 70h6q30 -22 54.5 -46.5t70.5 -74.5q4 -5 16.5 -19t25.5 -23v-8q-17 -9 -81 -9q-60 0 -60 7q-5 10 -17.5 21.5zM155 722q-27 -28 -37 -35q12 -12 29 -25q64 -55 72 -71q14 -4 49 -4q47 0 71 6q-13 11 -35 37
q-7 7 -31.5 33.5t-46.5 47.5t-43 37l-6 -4zM447 187l1 -127q0 -32 -7 -50.5t-24 -18.5q-11 0 -20 4h-78q-8 -2 -11 -2q-19 0 -19 28q0 8 2 22q-27 -23 -58 -36t-63 -13t-56 12q-28 14 -51.5 55t-37 95.5t-13.5 107.5q0 66 23.5 120t65.5 85.5t96 31.5q35 0 54 -6.5t33 -25.5
q1 7 2.5 16t1.5 16l3 6q8 3 33 3q22 0 68 -4q27 -3 47 -3l5 -5v-4q3 -9 3 -25q0 -9 -1 -15.5t-1 -11.5v-128q0 -43 2 -127zM435 101q3 47 3 93l-1 148q-2 100 -2 148q-1 1 -1 3q-34 0 -69 3q-44 2 -67 2q0 -9 -3 -20q-1 -4 -2 -8.5t-1 -11.5l1 -6q0 -1 0.5 -1h0.5
q-6 -2 -9 -2h-1l-1 2q-14 24 -33.5 32t-52.5 8q-52 0 -91.5 -29.5t-61 -81.5t-21.5 -115t16.5 -123.5t50 -99.5t80.5 -39q33 0 66.5 16t58.5 41q2 -2 8 -4q0 -5 -2 -16.5t-2 -17.5q0 -7 1.5 -11t6.5 -7h7q12 4 44 4t44 -4h25l6 6q0 29 2 91zM280.5 359.5q11.5 -8.5 15 -36
t3.5 -94.5q0 -46 -15 -71.5t-51 -25.5q-47 0 -72.5 35.5t-25.5 83.5q0 28 9 50l-1 -1q6 33 34 50.5t64 17.5q28 0 39.5 -8.5zM288 260l1 39q0 28 -6.5 43.5t-30.5 15.5q-38 0 -65.5 -14t-33.5 -47q-8 -17 -8 -45q0 -45 22.5 -77.5t63.5 -32.5q58 0 58 74z" />
    <glyph glyph-name="aring" unicode="&#xe5;" horiz-adv-x="476" 
d="M185 572q-19 10 -25 29.5t-6 54.5t5 54.5t27 33t69 13.5q52 0 71.5 -19.5t19.5 -63.5q0 -38 -14 -82l-1 -1q-19 -29 -88 -29q-39 0 -58 10zM182 728.5q-19 -19.5 -19 -75.5q0 -34 7.5 -51.5t24.5 -24t49 -6.5q27 0 49 6.5t30 18.5l-1 -1q5 14 9.5 40t4.5 48
q0 36 -22.5 50.5t-64.5 14.5q-48 0 -67 -19.5zM219 612.5q-12 5.5 -16 17.5t-4 36q0 25 19 40l1 1q16 7 31 7q21 0 36.5 -11t15.5 -31q0 -32 -7.5 -48.5t-37.5 -16.5q-26 0 -38 5.5zM210.5 679q-3.5 -9 -3.5 -23q0 -23 10.5 -31t28.5 -8q30 0 38 11t8 35q0 41 -42 41
q-15 0 -26 -6q-10 -10 -13.5 -19zM447 187l1 -127q0 -32 -7 -50.5t-24 -18.5q-11 0 -20 4h-78q-8 -2 -11 -2q-19 0 -19 28q0 8 2 22q-27 -23 -58 -36t-63 -13t-56 12q-28 14 -51.5 55t-37 95.5t-13.5 107.5q0 66 23.5 120t65.5 85.5t96 31.5q35 0 54 -6.5t33 -25.5
q1 7 2.5 16t1.5 16l3 6q8 3 33 3q22 0 68 -4q27 -3 47 -3l5 -5v-4q3 -9 3 -25q0 -9 -1 -15.5t-1 -11.5v-128q0 -43 2 -127zM435 101q3 47 3 93l-1 148q-2 100 -2 148q-1 1 -1 3q-34 0 -69 3q-44 2 -67 2q0 -9 -3 -20q-1 -4 -2 -8.5t-1 -11.5l1 -6q0 -1 0.5 -1h0.5
q-6 -2 -9 -2h-1l-1 2q-14 24 -33.5 32t-52.5 8q-52 0 -91.5 -29.5t-61 -81.5t-21.5 -115t16.5 -123.5t50 -99.5t80.5 -39q33 0 66.5 16t58.5 41q2 -2 8 -4q0 -5 -2 -16.5t-2 -17.5q0 -7 1.5 -11t6.5 -7h7q12 4 44 4t44 -4h25l6 6q0 29 2 91zM280.5 359.5q11.5 -8.5 15 -36
t3.5 -94.5q0 -46 -15 -71.5t-51 -25.5q-47 0 -72.5 35.5t-25.5 83.5q0 28 9 50l-1 -1q6 33 34 50.5t64 17.5q28 0 39.5 -8.5zM288 260l1 39q0 28 -6.5 43.5t-30.5 15.5q-38 0 -65.5 -14t-33.5 -47q-8 -17 -8 -45q0 -45 22.5 -77.5t63.5 -32.5q58 0 58 74z" />
    <glyph glyph-name="atilde" unicode="&#xe3;" horiz-adv-x="476" 
d="M47 587l-5 6q17 66 53 117.5t89 51.5q29 0 46 -11t36 -32q13 -15 22.5 -22.5t22.5 -10.5q19 3 32 21t18 39q14 7 44 7l28 -1l15 1l4 -2l1 -1q0 -4 2 -4q0 -72 -30 -119.5t-90 -47.5q-29 0 -44 10.5t-31 31.5q-12 15 -22 23t-27 8q-18 0 -32 -10t-14 -30q0 -4 2 -11.5
t2 -11.5l-5 -5q-6 1 -19 1q-21 0 -30 3zM121 727.5q-25 -23.5 -38.5 -53.5t-28.5 -77l22 1q14 2 23 2q11 0 21 -3q24 0 37 -2q-2 8 -2 13q0 23 16.5 39.5t40.5 16.5q20 0 31 -8.5t21 -25.5q13 -20 27 -30.5t44 -10.5q54 0 82 43.5t28 109.5l-40 -1q-32 0 -35 -1
q-4 -19 -15 -33.5t-23.5 -22.5t-20.5 -8q-12 0 -21.5 8t-22.5 24q-14 18 -22 24q-24 19 -62 19q-37 0 -62 -23.5zM445 314q0 -43 2 -127l1 -127q0 -32 -7 -50.5t-24 -18.5q-11 0 -20 4h-78q-8 -2 -11 -2q-19 0 -19 28q0 8 2 22q-27 -23 -58 -36t-63 -13t-56 12
q-28 14 -51.5 55t-37 95.5t-13.5 107.5q0 66 23.5 120t65.5 85.5t96 31.5q35 0 54 -6.5t33 -25.5q1 7 2.5 16t1.5 16l3 6q8 3 33 3q22 0 68 -4q27 -3 47 -3l5 -5v-4q3 -9 3 -25q0 -9 -1 -15.5t-1 -11.5v-128zM435 101q3 47 3 93l-1 148q-2 100 -2 148q-1 1 -1 3q-34 0 -69 3
q-44 2 -67 2q0 -9 -3 -20q-1 -4 -2 -8.5t-1 -11.5l1 -6q0 -1 0.5 -1h0.5q-6 -2 -9 -2h-1l-1 2q-14 24 -33.5 32t-52.5 8q-52 0 -91.5 -29.5t-61 -81.5t-21.5 -115t16.5 -123.5t50 -99.5t80.5 -39q33 0 66.5 16t58.5 41q2 -2 8 -4q0 -5 -2 -16.5t-2 -17.5q0 -7 1.5 -11
t6.5 -7h7q12 4 44 4t44 -4h25l6 6q0 29 2 91zM280.5 359.5q11.5 -8.5 15 -36t3.5 -94.5q0 -46 -15 -71.5t-51 -25.5q-47 0 -72.5 35.5t-25.5 83.5q0 28 9 50l-1 -1q6 33 34 50.5t64 17.5q28 0 39.5 -8.5zM288 260l1 39q0 28 -6.5 43.5t-30.5 15.5q-38 0 -65.5 -14t-33.5 -47
q-8 -17 -8 -45q0 -45 22.5 -77.5t63.5 -32.5q58 0 58 74z" />
    <glyph glyph-name="ae" unicode="&#xe6;" horiz-adv-x="703" 
d="M558 192l6 6q5 -1 16 -1t35 2q22 2 34 2q15 0 24 -2t13 -10q-2 -11 -4 -43q-2 -42 -5.5 -66.5t-13.5 -35.5q-44 -51 -131 -51q-21 0 -42 3l-28 3q-43 3 -66 12t-48 41q-80 -66 -162 -66q-42 0 -84.5 19t-70 54.5t-27.5 82.5q0 43 20 78t55 55t78 20q34 0 60.5 -4
t56.5 -14l1 48q0 30 -14 48.5t-41 18.5q-24 0 -41.5 -15t-17.5 -38q-13 -13 -64 -13q-39 0 -55 4.5t-16 23.5q0 45 30.5 77t78 48.5t98.5 16.5q38 0 70 -10t51 -28q26 22 63 33.5t79 11.5q96 0 145.5 -54t49.5 -146q0 -23 -3 -46q-18 -18 -156 -18q-52 0 -65 -0.5t-15 -0.5
q-3 0 -6 1t-11 3v-10q0 -47 13.5 -81.5t56.5 -34.5q53 0 53 76zM431 254q14 -4 31 -4h20h31q139 0 165 11q2 26 2 42q0 88 -46 139t-134 51q-41 0 -79 -12t-64 -34h-6q-19 19 -51 29t-70 10q-48 0 -92.5 -15.5t-73 -45t-28.5 -69.5q0 -14 13 -17.5t44 -3.5q41 0 58 7
q1 26 23.5 44t48.5 18q32 0 47 -26.5t15 -59.5l-1 -34q0 -11 1 -16l-7 -5q-35 22 -99 22q-76 0 -120.5 -38t-44.5 -104q0 -44 25 -77.5t65 -51.5t83 -18q44 0 82 17.5t77 49.5q2 -1 7 -1q25 -33 55.5 -45.5t94.5 -12.5q77 0 112.5 17t44.5 42.5t10 70.5q2 36 5 53
q-10 3 -27 3q-12 0 -36 -2t-33 -2l-11 1q0 -34 -16.5 -58t-46.5 -24q-47 0 -63.5 38.5t-16.5 87.5v17zM574.5 369.5q14.5 -21.5 14.5 -37.5q0 -11 -6 -14t-19 -3q-15 0 -21 2h-52q-27 -3 -35 -3q-30 0 -30 19q0 33 23 55t56 22q11 0 21 -3t20 -7l2 -1q12 -8 26.5 -29.5z
M502 397q-29 0 -47.5 -17.5t-18.5 -51.5q7 -4 24 -4q11 0 35 2t34 2q12 0 26 -2l21 -1q0 43 -34 66l1 -1q-20 7 -41 7zM136.5 199.5q25.5 19.5 57.5 19.5q35 0 59.5 -15.5t24.5 -47.5q0 -35 -24 -51.5t-54 -16.5q-16 0 -31 4q-27 5 -42.5 18.5t-15.5 35.5q0 34 25.5 53.5z
M247.5 112q19.5 13 19.5 41q0 30 -21 43t-51 13q-32 0 -53.5 -18.5t-21.5 -52.5q6 -17 18 -25t32 -11q13 -3 29 -3q29 0 48.5 13z" />
    <glyph glyph-name="b" unicode="b" horiz-adv-x="464" 
d="M438 393.5q11 -54.5 11 -127.5q0 -115 -42 -193t-142 -78q-29 0 -52 12t-35 36q-2 -2 -2 -7v-7v-25l-1 -3l-1 -1q-3 0 -3 -3q-21 -4 -50 -4l-43 1q-28 2 -43 2q-10 5 -10 73q0 107 6 317q1 40 3 139t2 178l3 6q18 6 56 6q71 0 77 -12v-11l2 -36q4 -42 4 -66q0 -18 -2 -60
l-1 -41q29 18 95 18q37 0 67 -6t52 -23q38 -30 49 -84.5zM393.5 71q45.5 64 45.5 200q0 53 -9 99.5t-26 75.5q-19 31 -55 41t-87 10q-70 0 -87 -22l-10 1l1 36q0 61 -5 153l1 26v8q-29 6 -59 6q-27 0 -57 -5q0 -129 -5 -289q-1 -36 -3 -126t-2 -163q0 -65 4 -116l41 -1
q28 -2 43 -2q21 0 42 3l-1 17q0 8 2.5 20t11.5 12q7 -7 13 -16q13 -16 25.5 -24t37.5 -8q93 0 138.5 64zM327 317q9 -30 9 -67q0 -33 -13.5 -62.5t-36.5 -48t-49 -18.5q-36 0 -53.5 24.5t-21.5 60t-4 91.5q0 45 13 69.5t56 24.5q39 0 67 -19.5t33 -56.5v2zM303.5 172.5
q20.5 40.5 20.5 97.5q-1 4 -2 10.5t-1 9.5t-1 10.5t-3 13.5q-4 31 -30.5 50t-59.5 19q-35 0 -46 -18t-11 -53l1 -41l-1 -35q0 -44 13.5 -74t53.5 -30q46 0 66.5 40.5z" />
    <glyph glyph-name="c" unicode="c" horiz-adv-x="442" 
d="M422 158.5q-1 -18.5 -1 -24.5q-1 -34 -5 -57.5t-15 -39.5q-22 -31 -56.5 -42.5t-79.5 -11.5l-41 1q-12 1 -36 1q-93 0 -131 63t-38 161l1 53q0 24 -1 36l-1 35q0 103 33 139q43 45 156 45l49 -1q40 0 68 -8.5t66 -36.5q24 -18 30 -53t7 -92q0 -27 1 -37q-5 -11 -51 -11
q-27 0 -50.5 3t-32.5 8q-3 6 -13.5 27.5t-24 31t-33.5 9.5q-26 0 -40 -14t-19.5 -49.5t-5.5 -103.5q0 -29 17.5 -42.5t45.5 -13.5q26 0 44 9q5 5 15 29q1 3 6.5 14t8.5 13q5 -1 17 -1q11 0 37 2t39 2q24 0 36 -6l2 -6q-3 -13 -4 -31.5zM389 192q-20 0 -39 -3q-28 -2 -38 -2
t-14 1q-5 -29 -20.5 -47t-48.5 -18q-36 0 -58 16t-22 45q0 7 2 23l1 21q0 15 -1 24l-1 28q0 42 20.5 65t50.5 23q27 0 50 -19.5t29 -51.5q15 -7 70 -7q35 0 47 3l1 49q0 41 -7 72t-27 49q-29 26 -61 34.5t-75 8.5h-47q-48 0 -83.5 -8t-59.5 -33q-30 -32 -30 -129l1 -38
q1 -12 1 -37l-1 -67q0 -90 30.5 -133.5t79 -55.5t126.5 -12q40 0 75.5 10.5t52.5 38.5q10 19 13 40t4 53q2 37 5 54q-11 3 -26 3z" />
    <glyph glyph-name="ccedilla" unicode="&#xe7;" horiz-adv-x="443" 
d="M264 -72q-9 -21 -16.5 -42.5t-7.5 -33.5q-8 -8 -62 -8l-20 -1q-30 0 -36 12l17 52q17 56 28 79q-82 9 -115.5 71.5t-33.5 150.5l1 44q1 14 1 41l-1 49q0 46 8.5 81.5t33.5 58.5q38 34 121 34l36 -1q10 0 20.5 1t21.5 1q48 0 92.5 -20t60.5 -60q8 -22 10.5 -46t2.5 -57
l2 -45q-5 -11 -51 -11q-27 0 -50.5 3t-32.5 8q-3 6 -13.5 27.5t-24 31t-33.5 9.5q-26 0 -40 -14t-19.5 -49.5t-5.5 -103.5q0 -29 17.5 -42.5t45.5 -13.5q26 0 44 9q5 5 15 29q1 3 6.5 14t8.5 13q5 -1 17 -1q11 0 37 2t39 2q16 0 25 -2t13 -10q-4 -27 -6 -56q-2 -39 -7 -64
t-22 -46t-51 -31q-36 -8 -55 -10q-5 -20 -21 -55zM365.5 15.5q27.5 19.5 34.5 47t10 74.5q2 36 5 52q-11 3 -26 3q-20 0 -39 -3q-28 -2 -38 -2t-14 1q-5 -29 -20.5 -47t-48.5 -18q-36 0 -58 16t-22 45q0 7 2 23l1 21q0 15 -1 24l-1 28q0 42 20.5 65t50.5 23q27 0 50 -19.5
t29 -51.5q15 -7 70 -7q35 0 47 3q-1 14 -1 41q0 34 -2 56t-10 43q-17 44 -64 59t-110 15l-52 -1q-34 0 -70 -10.5t-54 -35.5q-25 -35 -25 -138v-71q0 -77 9 -129t41 -87t96 -40q1 -1 2 -2.5t2 -4.5q-1 -3 -13.5 -41t-32.5 -90q20 -2 32 -2l33 1q11 1 32 1q4 17 12 36t10 25
q20 45 24 71l5 4q57 3 84.5 22.5z" />
    <glyph glyph-name="d" unicode="d" horiz-adv-x="463" 
d="M368 715q55 0 60 -11q0 -91 4 -273q4 -184 4 -274q0 -104 -2 -156q-9 -9 -100 -9q-23 0 -32.5 2.5t-13.5 9.5v12q-2 4 -2 11l1 14l-1 2q-23 -46 -78 -46q-117 0 -154.5 83.5t-37.5 207.5q0 158 71 199q35 20 106 20q32 0 55.5 -3t39.5 -15q0 17 -1 30q-2 42 -2 70
q0 40 4 72q3 18 3 41l5 6q28 7 71 7zM302 699q-1 -26 -2.5 -67.5t-1.5 -72.5q0 -56 1 -84q-6 -2 -9 -2q-14 24 -88 24q-51 0 -86.5 -10t-56.5 -42q-17 -27 -26 -72t-9 -97q0 -140 46 -204.5t141 -64.5q23 0 38 9q6 3 18 21q2 2 8 10t10 8h1q9 -10 10.5 -17.5t1.5 -24.5
q0 -10 30 -10l47 1q32 2 49 2q2 51 2 154q0 90 -4 270t-4 270q-38 4 -60 4q-34 0 -56 -5zM291.5 368.5q13.5 -22.5 13.5 -63.5q0 -61 -4.5 -98.5t-21.5 -61.5t-52 -24q-45 0 -72 42t-27 96q0 32 9 57q6 37 33 56t67 19q41 0 54.5 -22.5zM138 257q0 -53 26 -89.5t66 -36.5
q29 0 43 21.5t17.5 54.5t3.5 88q0 33 -3 50t-15.5 27.5t-40.5 10.5q-32 0 -58 -18.5t-30 -49.5v-2q-9 -24 -9 -56z" />
    <glyph glyph-name="eth" unicode="&#xf0;" horiz-adv-x="531" 
d="M315 812q50 42 70 48l6 -2q9 -13 20.5 -22.5t29.5 -20.5q26 -16 39 -29q0 -7 -17.5 -18.5t-47.5 -28.5l-25 -14q46 -39 68.5 -99.5t34.5 -140.5l3 -23q19 -127 19 -199q0 -128 -56 -210t-192 -82q-113 0 -184.5 57t-71.5 175t41.5 185.5t158.5 67.5q67 0 116 -23l-6 42
q-7 57 -18.5 91.5t-44.5 62.5l-112 -75q-4 -3 -20.5 -15.5t-25.5 -12.5l-4 3q-9 11 -21 20.5t-15 11.5q-26 19 -38 34q0 6 18 20t56 40l39 27q-19 4 -41 17t-26 15q-20 13 -42 23l-3 5q0 4 6 10t12 10q26 26 62.5 54t56.5 28q15 -3 27.5 -9.5t33.5 -20.5q14 -9 29 -17.5
t28 -12.5q6 3 37 28zM251.5 785.5q-18.5 9.5 -37.5 20.5q-49 28 -58 28q-21 0 -47 -21t-59 -54q-11 -12 -15 -15q8 -4 40 -22q22 -13 39 -21.5t34 -11.5l2 -9l-39 -28q-48 -34 -78 -56q4 -4 29 -24q11 -7 22 -16t18 -19q26 16 102 67q34 24 51 35h6q31 -26 48.5 -64
t22.5 -82q2 -18 2 -26q2 -27 5 -40l-5 -7q-21 5 -34 10q-27 8 -45 12t-43 4q-109 0 -149.5 -59t-40.5 -153q0 -75 18.5 -129.5t73.5 -89t157 -34.5q234 0 234 280q0 38 -4.5 83.5t-9.5 83.5q-10 78 -18.5 123t-31 92.5t-62.5 77.5v8q28 19 51 32q18 10 38 23q-11 11 -37 27
q-33 19 -46 37q-21 -8 -68 -47q-26 -20 -35 -26l-3 -1q-9 2 -27.5 11.5zM161.5 292q20.5 24 64.5 24q40 0 72.5 -15.5t51 -41.5t18.5 -58q0 -38 -32 -59t-76 -21q-41 0 -74.5 18.5t-41.5 51.5q-3 20 -3 41q0 36 20.5 60zM192 147.5q31 -16.5 69 -16.5q40 0 68.5 18.5
t28.5 51.5q0 28 -18.5 53t-49 39.5t-65.5 14.5q-34 0 -54.5 -20.5t-20.5 -54.5q0 -15 4 -41v2q7 -30 38 -46.5z" />
    <glyph glyph-name="e" unicode="e" horiz-adv-x="444" 
d="M291 191l6 6q5 -1 17 -1q11 0 37 2t38 2q16 0 25 -2t13 -10q-4 -19 -6 -58q-4 -51 -13 -80t-41.5 -48.5t-98.5 -19.5h-38q-50 0 -86 8.5t-60 35.5q-70 81 -70 226q0 62 12 132q11 67 68 101t130 34q35 0 73 -8t64 -27q37 -28 54 -75.5t17 -102.5q0 -24 -3 -47
q-17 -17 -178 -17q-16 0 -25 -1l-33 -1q-20 0 -32 4v-11q0 -51 16 -87t56 -36q58 0 58 81zM159 255q9 -5 34 -5q16 0 27 1t17 1q153 0 182 11q2 28 2 42q0 109 -60 166q-22 22 -60 30.5t-80 8.5q-54 0 -100 -20.5t-71 -62.5q-15 -27 -20 -65t-5 -84q0 -80 13 -140t53 -105
q22 -25 56.5 -33t82.5 -8h44q60 0 89.5 20.5t37.5 50.5t11 78q2 32 4 45q-11 4 -29 4q-20 0 -41 -3q-26 -2 -35 -2l-10 1q0 -36 -19 -62.5t-47 -26.5q-47 0 -65.5 41.5t-18.5 93.5v18q7 5 8 5zM314.5 322q-6.5 -2 -14.5 -2q-15 0 -25 4h-55q-27 -3 -36 -3q-32 0 -32 19
q0 39 23 59.5t60 20.5q25 0 45 -10q41 -21 41 -81q0 -5 -6.5 -7zM182 391q-20 -21 -20 -55q12 -6 29 -6q11 0 19.5 1t14.5 2q17 3 33 3q11 0 29 -2q16 -2 24 -2q0 52 -36 69q-24 11 -43 11q-30 0 -50 -21z" />
    <glyph glyph-name="eacute" unicode="&#xe9;" horiz-adv-x="444" 
d="M349 650q-57 -47 -66 -65q-7 -7 -62 -7q-29 0 -52.5 2.5t-27.5 6.5v8q28 24 80 78q48 53 87 85q13 -7 26 -19t31 -32l19 -20v-6q-7 -7 -35 -31zM311 747q-34 -27 -93 -90q-31 -33 -64 -64q33 -6 72 -6q28 0 48 4q6 11 24.5 28.5t38.5 33.5q23 18 36 31zM161 243
q0 -62 16 -97t61 -35q31 0 42 24t11 56l6 6q5 -1 17 -1q11 0 37 2t38 2q16 0 25 -2t13 -10q-4 -19 -6 -58q-4 -51 -13 -80t-41.5 -48.5t-98.5 -19.5h-38q-50 0 -86 8.5t-60 35.5q-70 81 -70 226q0 62 12 132q11 67 68 101t130 34q35 0 73 -8t64 -27q37 -28 54 -75.5
t17 -102.5q0 -24 -3 -47q-13 -13 -69.5 -15t-122.5 -2q-8 0 -20.5 -1t-26.5 -1q-17 0 -29 3zM193 250q16 0 27 1t17 1q153 0 182 11q2 28 2 42q0 109 -60 166q-22 22 -60 30.5t-80 8.5q-54 0 -100 -20.5t-71 -62.5q-15 -27 -20 -65t-5 -84q0 -80 13 -140t53 -105
q22 -25 56.5 -33t82.5 -8h44q60 0 89.5 20.5t37.5 50.5t11 78q2 32 4 45q-11 4 -29 4q-20 0 -41 -3q-26 -2 -35 -2l-10 1q0 -38 -19 -63t-47 -25q-49 0 -66.5 45t-17.5 107l8 5q9 -5 34 -5zM314.5 322q-6.5 -2 -14.5 -2q-15 0 -25 4h-55q-27 -3 -36 -3q-32 0 -32 19
q0 39 23 59.5t60 20.5q25 0 45 -10q41 -21 41 -81q0 -5 -6.5 -7zM182 391q-20 -21 -20 -55q12 -6 29 -6q11 0 19.5 1t14.5 2q17 3 33 3q11 0 29 -2q16 -2 24 -2q0 52 -36 69q-24 11 -43 11q-30 0 -50 -21z" />
    <glyph glyph-name="ecircumflex" unicode="&#xea;" horiz-adv-x="444" 
d="M367 586q-33 -5 -50 -5q-32 0 -49.5 11.5t-28.5 32.5l-8 8q-9 -7 -28 -26q-11 -13 -21.5 -18.5t-37.5 -5.5q-39 0 -72 6l-3 9q26 34 56 64t75 70l31 29q2 -1 7 -1l163 -162l-4 -8q-10 0 -30 -4zM284 700l-50 50l-39 -36q-44 -41 -68 -64.5t-46 -51.5q32 -4 69 -4
q23 0 34 6.5t22 20.5q14 17 22 22h6q9 -6 25 -26l14 -16l9 -6q40 -2 60 -2q7 0 12 1t9 2l22 3q-51 50 -101 101zM161 243q0 -62 16 -97t61 -35q31 0 42 24t11 56l6 6q5 -1 17 -1q11 0 37 2t38 2q16 0 25 -2t13 -10q-4 -19 -6 -58q-4 -51 -13 -80t-41.5 -48.5t-98.5 -19.5
h-38q-50 0 -86 8.5t-60 35.5q-70 81 -70 226q0 62 12 132q11 67 68 101t130 34q35 0 73 -8t64 -27q37 -28 54 -75.5t17 -102.5q0 -24 -3 -47q-13 -13 -69.5 -15t-122.5 -2q-8 0 -20.5 -1t-26.5 -1q-17 0 -29 3zM193 250q16 0 27 1t17 1q153 0 182 11q2 28 2 42
q0 109 -60 166q-22 22 -60 30.5t-80 8.5q-54 0 -100 -20.5t-71 -62.5q-15 -27 -20 -65t-5 -84q0 -80 13 -140t53 -105q22 -25 56.5 -33t82.5 -8h44q60 0 89.5 20.5t37.5 50.5t11 78q2 32 4 45q-11 4 -29 4q-20 0 -41 -3q-26 -2 -35 -2l-10 1q0 -38 -19 -63t-47 -25
q-49 0 -66.5 45t-17.5 107l8 5q9 -5 34 -5zM314.5 322q-6.5 -2 -14.5 -2q-15 0 -25 4h-55q-27 -3 -36 -3q-32 0 -32 19q0 39 23 59.5t60 20.5q25 0 45 -10q41 -21 41 -81q0 -5 -6.5 -7zM182 391q-20 -21 -20 -55q12 -6 29 -6q11 0 19.5 1t14.5 2q17 3 33 3q11 0 29 -2
q16 -2 24 -2q0 52 -36 69q-24 11 -43 11q-30 0 -50 -21z" />
    <glyph glyph-name="edieresis" unicode="&#xeb;" horiz-adv-x="444" 
d="M203 723q4 -12 4 -46l-1 -48q0 -9 -19 -13t-38 -4q-78 0 -88 11q0 21 -2 63q-3 32 -3 64q0 11 6 15l136 -3l5 -5v-34zM387 723q4 -12 4 -46l-1 -48q0 -9 -19 -13t-38 -4q-78 0 -88 11q0 21 -2 63q-3 32 -3 64q0 11 6 15l136 -3l5 -5v-34zM193 752l-126 3l-1 -18
q0 -28 3 -55q2 -36 2 -55l30 -2q48 -3 52 -3q33 0 43 9q0 29 -1 44l-1 43q-2 5 -2 16q0 12 1 18zM377 752l-126 3l-1 -18q0 -28 3 -55q2 -36 2 -55l30 -2q48 -3 52 -3q33 0 43 9q0 29 -1 44l-1 43q-2 5 -2 16q0 12 1 18zM161 243q0 -62 16 -97t61 -35q31 0 42 24t11 56l6 6
q5 -1 17 -1q11 0 37 2t38 2q16 0 25 -2t13 -10q-4 -19 -6 -58q-4 -51 -13 -80t-41.5 -48.5t-98.5 -19.5h-38q-50 0 -86 8.5t-60 35.5q-70 81 -70 226q0 62 12 132q11 67 68 101t130 34q35 0 73 -8t64 -27q37 -28 54 -75.5t17 -102.5q0 -24 -3 -47q-13 -13 -69.5 -15
t-122.5 -2q-9 0 -21.5 -1t-26.5 -1q-16 0 -28 3zM193 250q16 0 27 1t17 1q153 0 182 11q2 28 2 42q0 109 -60 166q-22 22 -60 30.5t-80 8.5q-54 0 -100 -20.5t-71 -62.5q-15 -27 -20 -65t-5 -84q0 -80 13 -140t53 -105q22 -25 56.5 -33t82.5 -8h44q60 0 89.5 20.5t37.5 50.5
t11 78q2 32 4 45q-11 4 -29 4q-20 0 -41 -3q-26 -2 -35 -2l-10 1q0 -38 -19 -63t-47 -25q-49 0 -66.5 45t-17.5 107l8 5q9 -5 34 -5zM314.5 322q-6.5 -2 -14.5 -2q-15 0 -25 4h-55q-27 -3 -36 -3q-32 0 -32 19q0 39 23 59.5t60 20.5q25 0 45 -10q41 -21 41 -81q0 -5 -6.5 -7
zM182 391q-20 -21 -20 -55q12 -6 29 -6q11 0 19.5 1t14.5 2q17 3 33 3q11 0 29 -2q16 -2 24 -2q0 52 -36 69q-24 11 -43 11q-30 0 -50 -21z" />
    <glyph glyph-name="egrave" unicode="&#xe8;" horiz-adv-x="444" 
d="M218.5 711.5q24.5 -24.5 70.5 -74.5q4 -5 16.5 -19t25.5 -23v-8q-17 -9 -81 -9q-60 0 -60 7q-9 15 -57 53q-44 34 -44 42v8l69 70h6q30 -22 54.5 -46.5zM98 684l24 -21q66 -54 75 -72q14 -4 49 -4q47 0 71 6q-13 11 -35 37q-41 44 -66.5 69.5t-54.5 47.5zM161 243
q0 -62 16 -97t61 -35q31 0 42 24t11 56l6 6q5 -1 17 -1q11 0 37 2t38 2q16 0 25 -2t13 -10q-4 -19 -6 -58q-4 -51 -13 -80t-41.5 -48.5t-98.5 -19.5h-38q-50 0 -86 8.5t-60 35.5q-70 81 -70 226q0 62 12 132q11 67 68 101t130 34q35 0 73 -8t64 -27q37 -28 54 -75.5
t17 -102.5q0 -24 -3 -47q-13 -13 -69.5 -15t-122.5 -2q-9 0 -21.5 -1t-26.5 -1q-16 0 -28 3zM193 250q16 0 27 1t17 1q153 0 182 11q2 28 2 42q0 109 -60 166q-22 22 -60 30.5t-80 8.5q-54 0 -100 -20.5t-71 -62.5q-15 -27 -20 -65t-5 -84q0 -80 13 -140t53 -105
q22 -25 56.5 -33t82.5 -8h44q60 0 89.5 20.5t37.5 50.5t11 78q2 32 4 45q-11 4 -29 4q-20 0 -41 -3q-26 -2 -35 -2l-10 1q0 -38 -19 -63t-47 -25q-49 0 -66.5 45t-17.5 107l8 5q9 -5 34 -5zM314.5 322q-6.5 -2 -14.5 -2q-15 0 -25 4h-55q-27 -3 -36 -3q-32 0 -32 19
q0 39 23 59.5t60 20.5q25 0 45 -10q41 -21 41 -81q0 -5 -6.5 -7zM182 391q-20 -21 -20 -55q12 -6 29 -6q11 0 19.5 1t14.5 2q17 3 33 3q11 0 29 -2q16 -2 24 -2q0 52 -36 69q-24 11 -43 11q-30 0 -50 -21z" />
    <glyph glyph-name="f" unicode="f" horiz-adv-x="379" 
d="M197 0q-22 0 -45 -3q-28 -2 -42 -2q-22 0 -28 9t-6 31q0 53 2 157t2 158l-66 -1q-9 5 -9 91q0 35 6 41l66 -1q0 98 40 144.5t97 57.5t150 11q14 0 18 -13t4 -32q0 -15 -1 -27t-2 -20q-4 -32 -4 -48q-5 -5 -63 -9q-9 -1 -36 -3.5t-38 -6.5q-20 -7 -20 -40q0 -6 2 -16h149
q6 1 6 -50v-9q0 -14 -3.5 -44t-8.5 -32q-29 3 -88 5q-20 0 -58 2v-346l-5 -5zM163 7q32 2 48 2v346l6 6q24 -2 72 -4q37 0 73 -3q3 6 3 42l-1 54q0 6 2 18h-146q-9 4 -9 35q0 33 42.5 43t115.5 12q0 12 1 21t2 16q4 30 4 46q0 21 -6 42h-45q-46 0 -81 -4t-63 -17
q-43 -19 -69.5 -62.5t-26.5 -92.5q0 -15 3 -30l-5 -7l-67 1l3 -112l66 1l5 -5l1 -349q7 -1 23 -1q15 0 49 2z" />
    <glyph glyph-name="g" unicode="g" horiz-adv-x="467" 
d="M178.5 -202q-41.5 4 -80 27.5t-52.5 75.5q-8 28 -8 42q0 18 16.5 23t57.5 5q48 0 64 -8q0 -27 18 -42t39 -15q24 0 40 17.5t16 50.5q0 8 -2 16.5t-2 15.5l1 6q-26 -18 -76 -18q-64 0 -104.5 13.5t-66 62t-25.5 146.5q0 134 43 210.5t139 76.5q29 0 53 -10.5t38 -31.5v12
q-2 6 -2 9q0 14 9 19t26 5h24l40 1q42 0 50 -8q4 -120 4 -181v-163q0 -47 -4 -141q0 -23 -2 -71q0 -8 -1 -37.5t-13 -48t-39 -37.5q-37 -26 -88 -26q-71 0 -112.5 4zM407 -139.5q10 15.5 12 29.5t3 54l2 67q4 96 4 145v159q0 100 -4 179l-46 1q-15 1 -46 1q-36 0 -36 -10
q0 -6 1.5 -12.5t1.5 -12.5q0 -7 -2 -10t-6 -7h-2q-4 -1 -9.5 5t-10.5 13q-10 14 -18 19q-25 13 -55 13q-90 0 -131 -74t-41 -203q0 -93 23 -139.5t61 -60t97 -13.5q30 0 50.5 4.5t35.5 19.5l8 -6q-2 -8 -2 -12q0 -7 1.5 -14t1.5 -15q0 -42 -19 -63.5t-51 -21.5
q-25 0 -43.5 15.5t-18.5 43.5q-51 8 -72 8q-23 0 -35.5 -3.5t-12.5 -16.5q0 -15 8 -39q13 -44 44.5 -66t70.5 -28t92 -6h23q15 0 22 1q34 0 65 23q24 17 34 32.5zM149.5 329.5q19.5 47.5 66.5 49.5q40 0 58.5 -20t23.5 -54t5 -97q0 -38 -4.5 -59t-20 -31.5t-48.5 -10.5
q-48 0 -74 37t-26 83v2q0 53 19.5 100.5zM282 137.5q14 22.5 14 65.5q0 21 -4 51q-2 18 -2 22t-3 33t-19 45t-46 16q-44 0 -63 -44.5t-19 -97.5q0 -46 26.5 -79.5t65.5 -33.5q36 0 50 22.5z" />
    <glyph glyph-name="h" unicode="h" horiz-adv-x="448" 
d="M419 196q-3 -73 -3 -146q0 -24 3 -48q-4 -9 -52 -9q-5 0 -18.5 -1.5t-23.5 -1.5q-43 0 -43 27l1 136q0 45 -4 81q-2 16 -2 23q-2 25 -5 38.5t-13 26.5q-9 0 -31 9q-38 0 -51 -24.5t-13 -60.5q0 -42 3 -84q2 -56 2 -84q0 -14 -2 -38t-2 -37q-3 -6 -20 -9.5t-33 -3.5
q-9 0 -27 2t-28 2h-25q0 111 -2 335q-3 168 -3 336q0 58 9 63q8 0 17 -1.5t18 -1.5q13 0 23 3q22 4 49 4q28 0 28 -7v-7q2 -6 2 -30l-1 -42v-191l14 7q18 18 50 28t58 10q56 0 83.5 -19.5t35.5 -52.5t8 -88q0 -48 -2 -144zM406 43q0 50 2 150q3 77 3 152q0 51 -7 81t-32 47
t-77 17q-32 0 -60 -12.5t-65 -35.5l-8 5v266q-1 4 -1 9q-13 0 -41 -4q-22 -5 -41 -5q-10 0 -21.5 1.5t-16.5 2.5q-3 -55 -3 -112q0 -102 2 -302l1 -300q16 2 28 2q16 0 26 -3h23.5t36.5 5l1 48q2 34 2 50q0 29 -3 60q-1 10 -2 26t-1 38q0 54 15 82.5t56 28.5q29 0 36 -8
q22 -5 27.5 -49.5t5.5 -110.5v-62q0 -20 -1 -31l-1 -36q0 -22 3 -40l51 -1q36 0 64 4q-2 24 -2 37z" />
    <glyph glyph-name="i" unicode="i" horiz-adv-x="207" 
d="M176 684q4 -12 4 -46l-1 -48q0 -9 -19 -13t-38 -4q-78 0 -88 11q0 21 -2 63q-3 32 -3 64q0 11 6 15l136 -3l5 -5v-34zM166 713l-126 3l-1 -18q0 -28 3 -55q2 -36 2 -55l30 -2q48 -3 52 -3q33 0 43 9q0 29 -1 44l-1 43q-2 5 -2 16q0 12 1 18zM178 332q-3 -85 -3 -171
t4 -155q0 -7 -14.5 -10.5t-31.5 -3.5q-14 0 -42 2t-38 2q-14 0 -19 -1l-6 6q3 34 3 102l-1 133q-2 90 -2 135q0 22 1.5 79.5t4.5 57.5v-3l5 6l67 -1q46 -2 69 -2l5 -5q0 -57 -2 -171zM168 330q2 112 2 168q-22 0 -64 2l-62 1q-5 -59 -5 -140q0 -41 2 -119l1 -120
q0 -57 -3 -116q14 0 44 -2q24 -3 47 -3q22 0 39 7q-4 68 -4 153t3 169z" />
    <glyph glyph-name="iacute" unicode="&#xed;" horiz-adv-x="207" 
d="M217 739q13 -12 31 -32l19 -20v-6q-7 -7 -35 -31q-57 -47 -66 -65q-7 -7 -62 -7q-29 0 -52.5 2.5t-27.5 6.5v8q28 24 80 78q48 53 87 85q13 -7 26 -19zM181.5 619.5q18.5 17.5 38.5 33.5q23 18 36 31l-62 63q-34 -27 -93 -90q-31 -33 -64 -64q33 -6 72 -6q28 0 48 4
q6 11 24.5 28.5zM176 448q1 -9 2 -27t1 -32q0 -46 -2 -136t-2 -136q0 -65 4 -117l-5 -5l-5 1q-11 0 -43 -2q-36 -2 -53 -2q-20 0 -30.5 3t-14.5 12q3 75 3 151q0 57 -2 171q-2 116 -2 173l5 6h17l20 -1q16 0 50 2q32 2 49 2l5 -5q0 -29 3 -58zM124 4q30 2 44 2q-4 55 -4 124
q0 40 2 120l1 118q0 73 -4 133q-17 0 -47 -2q-32 -2 -48 -2l-19 1h-12l1 -171q2 -114 2 -172q0 -98 -2 -147q12 -6 38 -6q14 0 48 2z" />
    <glyph glyph-name="icircumflex" unicode="&#xee;" horiz-adv-x="207" 
d="M241 586q-32 -5 -50 -5q-32 0 -49.5 11.5t-28.5 32.5l-8 8q-9 -7 -28 -26q-11 -13 -21.5 -18.5t-37.5 -5.5q-39 0 -72 6l-3 9q26 34 56 64t75 70l31 29q2 -1 7 -1l163 -162l-4 -8q-10 0 -30 -4zM158 700l-50 50l-39 -36q-44 -41 -68 -64.5t-46 -51.5q32 -4 69 -4
q23 0 34 6.5t22 20.5q14 17 22 22h6q9 -6 25 -26l14 -16l9 -6q40 -2 60 -2q7 0 12 1t9 2l22 3q-51 50 -101 101zM178 332q-3 -85 -3 -171t4 -155q0 -7 -14.5 -10.5t-31.5 -3.5q-14 0 -42 2t-38 2q-14 0 -19 -1l-6 6q3 34 3 102l-1 133q-2 90 -2 135q0 22 1.5 79.5t4.5 57.5
v-3l5 6l67 -1q46 -2 69 -2l5 -5q0 -57 -2 -171zM168 330q2 112 2 168q-22 0 -64 2l-62 1q-5 -59 -5 -140q0 -41 2 -119l1 -120q0 -57 -3 -116q14 0 44 -2q24 -3 47 -3q22 0 39 7q-4 68 -4 153t3 169z" />
    <glyph glyph-name="idieresis" unicode="&#xef;" horiz-adv-x="207" 
d="M90 677q1 -12 0 -27t-1 -21q0 -9 -19 -13t-38 -4q-78 0 -88 11q0 21 -2 63q-3 32 -3 64q0 11 6 15l136 -3h6zM274 677q1 -12 0 -27t-1 -21q0 -9 -19 -13t-38 -4q-78 0 -88 11q0 21 -2 63q-3 32 -3 64q0 11 6 15l136 -3h5zM-50 755l-1 -18q0 -19 2 -55q3 -27 3 -55l30 -2
q48 -3 52 -3q33 0 43 9l-3 121zM134 755l-1 -18q0 -28 3 -55q2 -36 2 -55l30 -2q48 -3 52 -3q33 0 43 9l-3 121zM178 332q-3 -85 -3 -171t4 -155q0 -7 -14.5 -10.5t-31.5 -3.5q-14 0 -42 2t-38 2q-14 0 -19 -1l-6 6q3 34 3 102l-1 133q-2 90 -2 135q0 22 1.5 79.5t4.5 57.5
v-3l5 6l67 -1q46 -2 69 -2l5 -5q0 -57 -2 -171zM168 330q2 112 2 168q-22 0 -64 2l-62 1q-5 -59 -5 -140q0 -41 2 -119l1 -120q0 -57 -3 -116q14 0 44 -2q24 -3 47 -3q22 0 39 7q-4 68 -4 153t3 169z" />
    <glyph glyph-name="igrave" unicode="&#xec;" horiz-adv-x="207" 
d="M70.5 711.5q24.5 -24.5 70.5 -74.5q4 -5 16.5 -19t25.5 -23v-8q-17 -9 -81 -9q-60 0 -60 7q-9 15 -57 53q-44 34 -44 42v8l69 70h6q30 -22 54.5 -46.5zM-50 684l24 -21q66 -54 75 -72q14 -4 49 -4q47 0 71 6q-13 11 -35 37q-41 44 -66.5 69.5t-54.5 47.5zM178 332
q-3 -85 -3 -171t4 -155q0 -7 -14.5 -10.5t-31.5 -3.5q-14 0 -42 2t-38 2q-14 0 -19 -1l-6 6q3 34 3 102l-1 133q-2 90 -2 135q0 22 1.5 79.5t4.5 57.5v-3l5 6l67 -1q46 -2 69 -2l5 -5q0 -57 -2 -171zM168 330q2 112 2 168q-22 0 -64 2l-62 1q-5 -59 -5 -140q0 -41 2 -119
l1 -120q0 -57 -3 -116q14 0 44 -2q24 -3 47 -3q22 0 39 7q-4 68 -4 153t3 169z" />
    <glyph glyph-name="ij" unicode="&#x133;" horiz-adv-x="500" 
d="M180 611q-1 -15 -1 -21q0 -9 -19 -13t-38 -4q-78 0 -88 11q0 21 -2 63q-3 32 -3 64q0 11 6 15h71q48 0 71 -1l3 -87q1 -12 0 -27zM468.5 631.5q1.5 -13.5 1.5 -22.5q0 -21 -12.5 -28.5t-44.5 -7.5q-76 0 -86 11q0 21 -2 63q-3 32 -3 64q0 11 6 15l137 -2l2 -72
q0 -7 1.5 -20.5zM166 713l-126 3l-1 -18q0 -28 3 -55q2 -36 2 -55l30 -2q48 -3 52 -3q33 0 43 9q0 29 -1 44l-1 43q-2 5 -2 16q0 12 1 18zM333 716l-1 -18q0 -28 3 -55q2 -36 2 -55q11 0 35 -2q21 -3 42 -3q28 0 45 8v1l-3 121zM179 6q0 -7 -14.5 -10.5t-31.5 -3.5
q-67 0 -104 3q2 20 2 65v43l-1 133q-2 90 -2 135q0 23 2.5 85t8.5 55l140 -1l-4 -349q-1 -64 4 -155zM361 498q15 0 45 4q32 4 44 4q14 0 18.5 -11t4.5 -30q0 -29 -2 -85q-2 -54 -2 -78l1 -133v-40q0 -112 -8 -181q-1 -6 -2.5 -20.5t-5 -26t-9.5 -20.5q-54 -74 -224 -74
q-30 0 -45 1q-14 7 -14 68q0 43 9 73q9 4 27.5 6t23.5 2q41 2 65.5 8t37.5 25v514l10 -2q11 -4 26 -4zM168 330q2 112 2 168q-22 0 -64 2l-62 1q-5 -59 -5 -140q0 -41 2 -119l1 -120q0 -57 -3 -116q14 0 44 -2q24 -3 47 -3q22 0 39 7q-4 68 -4 153t3 169zM402 492
q-28 -4 -42 -4q-9 0 -21 2l-1 -155q-2 -104 -2 -157v-99l1 -46q0 -42 -3 -48q-22 -42 -155 -42q-8 -29 -8 -63q0 -37 9 -62q14 -1 46 -1q177 0 219 85q14 86 14 222l-1 156q0 30 2 88t2 88q0 21 -3 39l-13 1q-14 0 -44 -4z" />
    <glyph glyph-name="j" unicode="j" horiz-adv-x="204" 
d="M174 609q0 -21 -12.5 -28.5t-44.5 -7.5q-76 0 -86 11q0 21 -2 63q-3 32 -3 64q0 11 6 15l133 -3l5 -5zM160 713l-123 3l-1 -18q0 -28 3 -55q2 -36 2 -55q11 0 35 -2q21 -3 42 -3q28 0 45 8v1q0 29 -1 44l-1 43q-2 5 -2 16q0 12 1 18zM65 498q15 0 45 4q32 4 44 4
q14 0 18.5 -11t4.5 -30q0 -29 -2 -85q-2 -54 -2 -78l1 -133v-40q0 -112 -8 -181q-1 -6 -2.5 -20.5t-5 -26t-9.5 -20.5q-54 -74 -224 -74q-30 0 -45 1q-14 7 -14 68q0 43 9 73q9 4 27.5 6t23.5 2q41 2 65.5 8t37.5 25q0 84 2 252q2 170 2 254l6 6q11 -4 26 -4zM106 492
q-28 -4 -42 -4q-9 0 -21 2l-1 -155q-2 -104 -2 -157v-99l1 -46q0 -42 -3 -48q-22 -42 -155 -42q-8 -29 -8 -63q0 -37 9 -62q14 -1 46 -1q177 0 219 85q14 86 14 222l-1 156q0 30 2 88t2 88q0 21 -3 39l-13 1q-14 0 -44 -4z" />
    <glyph glyph-name="k" unicode="k" horiz-adv-x="435" 
d="M177 387q20 22 46 65q12 19 26 39t28 34q22 -9 56 -9q17 0 30.5 1t22.5 2q26 3 48 3l4 -8q-31 -47 -103 -142q-34 -42 -60 -79q36 -60 55 -90q9 -15 47.5 -78.5t70.5 -122.5q-5 -7 -43.5 -10t-80.5 -3q-35 0 -47 9.5t-17.5 25t-9.5 23.5q-24 50 -38 77t-33 53l1 -51
q2 -36 2 -55q0 -45 -7 -73q-14 -7 -55 -7h-35q-36 0 -52 8q-5 135 -5 242q0 121 3 242q2 162 2 242q9 9 63 9l40 1q39 0 43 -9v-219q0 -14 -2 -44t-2 -45q0 -11 2 -31zM132 724q-16 0 -46 -2l-43 -1q0 -79 -2 -239q-3 -120 -3 -239q0 -106 5 -239q12 -2 39 -2q20 0 58 2
l26 1q7 34 7 73q0 20 -2 58t-2 56l9 4q25 -36 59 -104q30 -60 48 -88q18 -6 47 -6q18 0 52 4q10 1 22.5 2t28.5 1q-38 70 -112 190l-58 96v4q40 54 61 80q68 90 99 137q-22 0 -46 -3q-9 -1 -21.5 -2t-29.5 -1q-31 0 -51 8q-10 -13 -24 -38q-2 -4 -10.5 -18t-16.5 -22
q-28 -43 -49 -63q-7 3 -9.5 12t-2.5 23q0 17 2 49q2 34 2 49v216q-12 2 -37 2z" />
    <glyph glyph-name="l" unicode="l" horiz-adv-x="206" 
d="M178 420q-1 -38 -3 -135t-2 -175q0 -53 6 -104q0 -7 -15 -10.5t-32 -3.5q-14 0 -50 2t-56 2l2 32q1 20 3 71.5t2 90.5q0 58 -4 176q-4 116 -4 175q0 119 8 190q1 1 3 0.5t3 0.5l136 -3l8 -1q0 -136 -5 -308zM43 722q-9 -75 -9 -174q0 -59 4 -177q5 -100 5 -179
q0 -83 -5 -186l15 1q19 0 38 -3q7 -1 16.5 -2t22.5 -1q23 0 38 7q-5 40 -5 97l1 62q1 20 1 61q0 81 2 245q3 123 3 246z" />
    <glyph glyph-name="m" unicode="m" horiz-adv-x="684" 
d="M654 192q-2 -94 -2 -142q0 -24 3 -48q-4 -9 -52 -9q-5 0 -18.5 -1.5t-23.5 -1.5q-43 0 -43 27l1 142q0 56 -5.5 110.5t-23.5 54.5l-1 1q-12 6 -28 6q-24 0 -39 -12q0 -65 -3 -130q-1 -22 -2 -62.5t-1 -70.5q0 -29 4 -52q-4 -11 -55 -11q-4 0 -16.5 -1.5t-23.5 -1.5
q-42 0 -42 27l1 136q0 45 -4 81q-2 16 -2 23q-2 25 -5 38.5t-13 26.5q-8 0 -31 9q-38 0 -51 -24.5t-13 -60.5q0 -42 3 -84q2 -56 2 -84q0 -14 -2 -38t-2 -37q-3 -6 -20 -9.5t-33 -3.5q-9 0 -27 2t-28 2h-25q0 107 -3 215q-1 35 -2 101t-1 116q0 73 9 77q8 0 17 -1.5t18 -1.5
q12 0 23 3q22 4 49 4q23 0 27 -4q0 -17 2 -49q62 46 129 46q34 0 62.5 -11.5t42.5 -34.5q20 10 29 16q28 15 47.5 22.5t47.5 7.5q58 0 85 -19t34.5 -52t7.5 -93q0 -72 -3 -144zM642 43q0 50 2 150q3 77 3 152q0 51 -7 81t-32 47t-77 17q-32 0 -62 -12.5t-62 -34.5l-8 3
q-8 25 -37 33.5t-58 8.5q-64 0 -133 -46l-8 3q-1 9 -1 26q0 18 -1 26q-13 0 -41 -4q-22 -5 -41 -5q-10 0 -21.5 1.5t-16.5 2.5q-3 -79 -3 -160q0 -66 2 -198q2 -88 2 -131q16 2 28 2q16 0 26 -3h23.5t36.5 5l1 48q2 34 2 50q0 29 -3 60q-1 10 -2 26t-1 38q0 54 15 82.5
t56 28.5q29 0 36 -8q22 -5 27.5 -49.5t5.5 -110.5v-62q0 -20 -1 -31l-1 -36q0 -22 3 -40l51 -1q36 0 64 4q-3 24 -3 48q0 45 1 78t2 56q3 66 3 133q5 10 19 15t29 5q32 0 46.5 -21.5t18 -55t3.5 -92.5v-62q0 -20 -1 -31l-1 -36q0 -22 3 -40l51 -1q36 0 64 4q-2 24 -2 37z
" />
    <glyph glyph-name="n" unicode="n" horiz-adv-x="450" 
d="M421 196q-3 -73 -3 -146q0 -24 3 -48q-4 -9 -52 -9q-5 0 -18.5 -1.5t-23.5 -1.5q-43 0 -43 27l1 136q0 45 -4 81q-2 16 -2 23q-2 25 -5 38.5t-13 26.5q-8 0 -31 9q-38 0 -51 -24.5t-13 -60.5q0 -42 3 -84q2 -56 2 -84q0 -14 -2 -38t-2 -37q-3 -6 -21 -10t-32 -3l-80 3
q0 109 -3 215q-1 36 -2 102t-1 116q0 73 9 77q8 0 17 -1.5t18 -1.5q13 0 23 3q22 4 49 4q23 0 27 -4q0 -17 2 -49q27 20 60 33t63 13q56 0 83.5 -19.5t35.5 -52.5t8 -88q0 -48 -2 -144zM408 43q0 50 2 150q3 77 3 152q0 51 -7 81t-32 47t-77 17q-32 0 -60 -12.5t-65 -35.5
l-8 3q-1 9 -1 26q0 18 -1 26q-13 0 -41 -4q-22 -5 -41 -5q-10 0 -21.5 1.5t-16.5 2.5q-3 -79 -3 -160q0 -66 2 -198q2 -88 2 -131q16 2 28 2q16 0 26 -3h23.5t36.5 5l1 48q2 34 2 50q0 29 -3 60q-1 10 -2 26t-1 38q0 54 15 82.5t56 28.5q29 0 36 -8q22 -5 27.5 -49.5
t5.5 -110.5v-62q0 -20 -1 -31l-1 -36q0 -22 3 -40l51 -1q36 0 64 4q-2 24 -2 37z" />
    <glyph glyph-name="ntilde" unicode="&#xf1;" horiz-adv-x="450" 
d="M123 585q-21 0 -30 3l-68 -1l-5 6q17 66 53 117.5t89 51.5q29 0 46 -11t36 -32q13 -15 22.5 -22.5t22.5 -10.5q19 3 32 21t18 39q14 7 44 7l28 -1l15 1q7 0 11 -1q0 -72 -32 -122.5t-92 -50.5q-29 0 -44 10.5t-31 31.5q-12 15 -22 23t-27 8q-18 0 -32 -10t-14 -30
q0 -4 2 -11.5t2 -11.5l-5 -5q-6 1 -19 1zM53 598q16 2 23 2q12 0 22 -3q24 0 37 -2q-2 8 -2 13q0 23 16.5 39.5t40.5 16.5q20 0 31 -8.5t21 -25.5q13 -20 27 -30.5t44 -10.5q54 0 82 43.5t28 109.5l-40 -1q-32 0 -35 -1q-4 -19 -15 -33.5t-23.5 -22.5t-20.5 -8
q-12 0 -21.5 8t-22.5 24q-14 18 -22 24q-24 19 -62 19q-37 0 -62 -23.5t-38.5 -53.5t-28.5 -77zM379.5 480.5q27.5 -19.5 35.5 -52.5t8 -88q0 -48 -2 -144q-3 -73 -3 -146q0 -24 3 -48q-4 -9 -52 -9q-5 0 -18.5 -1.5t-23.5 -1.5q-43 0 -43 27l1 136q0 45 -4 81q-2 16 -2 23
q-2 25 -5 38.5t-13 26.5q-8 0 -31 9q-38 0 -51 -24.5t-13 -60.5q0 -42 3 -84q2 -56 2 -84q0 -14 -2 -38t-2 -37q-3 -6 -20 -9.5t-33 -3.5q-9 0 -27 2t-28 2l-27 -3q0 71 -2 215t-2 220q0 73 9 77q8 0 17 -1.5t18 -1.5q13 0 23 3q22 4 49 4q23 0 27 -4q0 -17 2 -49
q27 20 60 33t63 13q56 0 83.5 -19.5zM408 43q0 50 2 150q3 77 3 152q0 51 -7 81t-32 47t-77 17q-32 0 -60 -12.5t-65 -35.5l-8 3q-1 9 -1 26q0 18 -1 26q-13 0 -41 -4q-22 -5 -41 -5q-10 0 -21.5 1.5t-16.5 2.5q-3 -79 -3 -160q0 -66 2 -198q2 -88 2 -131q16 2 28 2
q16 0 26 -3h23.5t36.5 5l1 48q2 34 2 50q0 29 -3 60q-1 10 -2 26t-1 38q0 54 15 82.5t56 28.5q29 0 36 -8q22 -5 27.5 -49.5t5.5 -110.5v-62q0 -20 -1 -31l-1 -36q0 -22 3 -40l51 -1q36 0 64 4q-2 24 -2 37z" />
    <glyph glyph-name="o" unicode="o" horiz-adv-x="448" 
d="M239 519q41 0 72 -7t63 -27q37 -23 47 -72t10 -122q0 -76 -3.5 -125.5t-15.5 -98.5q-12 -45 -54 -64t-96 -19q-16 0 -27.5 1t-18.5 2l-27 2q-36 2 -53 5t-35 15t-44 39q-37 39 -37 148v94q0 76 4 113q1 11 9 31l7 23q11 33 54 47t80 14zM29 257v-31q0 -82 17.5 -139
t77.5 -78q15 -5 31.5 -7t32.5 -3q6 0 15 -0.5t21 -2.5q17 -3 39 -3q60 0 91 18.5t42.5 48t15.5 76.5l2 21q7 84 7 129q0 124 -33 175q-38 30 -67.5 39t-73.5 9l-72 -1q-31 0 -73.5 -11t-51.5 -43l-7 -22q-8 -20 -9 -31q-5 -47 -5 -144zM287.5 338q18.5 -31 18.5 -96
q0 -60 -17.5 -88t-57.5 -28q-32 0 -56.5 14.5t-24.5 40.5l1 31l-1 55q0 58 17 75q10 13 27 20t35 7q40 0 58.5 -31zM161 207q0 -6 -1 -12.5t-1 -13.5q0 -21 21.5 -33t49.5 -12q37 0 51 25.5t14 82.5q0 62 -16 88t-51 26q-15 0 -29.5 -6t-24.5 -17q-14 -14 -14 -74z" />
    <glyph glyph-name="oacute" unicode="&#xf3;" horiz-adv-x="448" 
d="M349 650q-57 -47 -66 -65q-7 -7 -62 -7q-29 0 -52.5 2.5t-27.5 6.5v8q28 24 80 78q48 53 87 85q13 -7 26 -19t31 -32l19 -20v-6q-7 -7 -35 -31zM311 747q-34 -27 -93 -90q-31 -33 -64 -64q33 -6 72 -6q28 0 48 4q6 11 24.5 28.5t38.5 33.5q23 18 36 31zM239 519
q41 0 72 -7t63 -27q37 -23 47 -72t10 -122q0 -76 -3.5 -125.5t-15.5 -98.5q-12 -45 -54 -64t-96 -19q-16 0 -27.5 1t-18.5 2l-27 2q-36 2 -53 5t-35 15t-44 39q-37 39 -37 148v94q0 76 4 113q1 11 9 31l7 23q11 33 54 47t80 14zM29 257v-31q0 -82 17.5 -139t77.5 -78
q15 -5 31.5 -7t32.5 -3q6 0 15 -0.5t21 -2.5q17 -3 39 -3q60 0 91 18.5t42.5 48t15.5 76.5l2 21q7 84 7 129q0 124 -33 175q-38 30 -67.5 39t-73.5 9l-72 -1q-31 0 -73.5 -11t-51.5 -43l-7 -22q-8 -20 -9 -31q-5 -47 -5 -144zM287.5 338q18.5 -31 18.5 -96q0 -60 -17.5 -88
t-57.5 -28q-32 0 -56.5 14.5t-24.5 40.5l1 31l-1 55q0 58 17 75q10 13 27 20t35 7q40 0 58.5 -31zM161 207q0 -6 -1 -12.5t-1 -13.5q0 -21 21.5 -33t49.5 -12q37 0 51 25.5t14 82.5q0 62 -16 88t-51 26q-15 0 -29.5 -6t-24.5 -17q-14 -14 -14 -74z" />
    <glyph glyph-name="ocircumflex" unicode="&#xf4;" horiz-adv-x="448" 
d="M365 586q-32 -5 -50 -5q-32 0 -49.5 11.5t-28.5 32.5l-8 8q-9 -7 -28 -26q-11 -13 -21.5 -18.5t-37.5 -5.5q-39 0 -72 6l-3 9q26 34 56 64t75 70l31 29q2 -1 7 -1l163 -162l-4 -8q-10 0 -30 -4zM282 700l-50 50l-39 -36q-44 -41 -68 -64.5t-46 -51.5q32 -4 69 -4
q23 0 34 6.5t22 20.5q14 17 22 22h6q9 -6 25 -26l14 -16l9 -6q40 -2 60 -2q7 0 12 1t9 2l22 3q-51 50 -101 101zM239 519q41 0 72 -7t63 -27q37 -23 47 -72t10 -122q0 -76 -3.5 -125.5t-15.5 -98.5q-12 -45 -54 -64t-96 -19q-16 0 -27.5 1t-18.5 2l-27 2q-36 2 -53 5t-35 15
t-44 39q-37 39 -37 148v94q0 76 4 113q1 11 9 31l7 23q11 33 54 47t80 14zM29 257v-31q0 -82 17.5 -139t77.5 -78q15 -5 31.5 -7t32.5 -3q6 0 15 -0.5t21 -2.5q17 -3 39 -3q60 0 91 18.5t42.5 48t15.5 76.5l2 21q7 84 7 129q0 124 -33 175q-38 30 -67.5 39t-73.5 9l-72 -1
q-31 0 -73.5 -11t-51.5 -43l-7 -22q-8 -20 -9 -31q-5 -47 -5 -144zM287.5 338q18.5 -31 18.5 -96q0 -60 -17.5 -88t-57.5 -28q-32 0 -56.5 14.5t-24.5 40.5l1 31l-1 55q0 58 17 75q12 12 28 19.5t34 7.5q40 0 58.5 -31zM161 207q0 -6 -1 -12.5t-1 -13.5q0 -21 21.5 -33
t49.5 -12q37 0 51 25.5t14 82.5q0 62 -16 88t-51 26q-15 0 -29.5 -6t-24.5 -17q-14 -14 -14 -74z" />
    <glyph glyph-name="odieresis" unicode="&#xf6;" horiz-adv-x="448" 
d="M199 723q4 -12 4 -46l-1 -48q0 -9 -19 -13t-38 -4q-78 0 -88 11q0 21 -2 63q-3 32 -3 64q0 11 6 15l136 -3l5 -5v-34zM383 723q4 -12 4 -46l-1 -48q0 -9 -19 -13t-38 -4q-78 0 -88 11q0 21 -2 63q-3 32 -3 64q0 11 6 15l136 -3l5 -5v-34zM189 752l-126 3l-1 -18
q0 -28 3 -55q2 -36 2 -55l30 -2q48 -3 52 -3q33 0 43 9q0 29 -1 44l-1 43q-2 5 -2 16q0 12 1 18zM373 752l-126 3l-1 -18q0 -28 3 -55q2 -36 2 -55l30 -2q48 -3 52 -3q33 0 43 9q0 29 -1 44l-1 43q-2 5 -2 16q0 12 1 18zM239 519q41 0 72 -7t63 -27q37 -23 47 -72t10 -122
q0 -76 -3.5 -125.5t-15.5 -98.5q-12 -45 -54 -64t-96 -19q-16 0 -27.5 1t-18.5 2l-27 2q-36 2 -53 5t-35 15t-44 39q-37 39 -37 148v94q0 76 4 113q1 11 9 31l7 23q11 33 54 47t80 14zM29 257v-31q0 -82 17.5 -139t77.5 -78q15 -5 31.5 -7t32.5 -3q6 0 15 -0.5t21 -2.5
q17 -3 39 -3q60 0 91 18.5t42.5 48t15.5 76.5l2 21q7 84 7 129q0 124 -33 175q-38 30 -67.5 39t-73.5 9l-72 -1q-31 0 -73.5 -11t-51.5 -43l-7 -22q-8 -20 -9 -31q-5 -47 -5 -144zM287.5 338q18.5 -31 18.5 -96q0 -60 -17.5 -88t-57.5 -28q-32 0 -56.5 14.5t-24.5 40.5l1 31
l-1 55q0 58 17 75q10 13 27 20t35 7q40 0 58.5 -31zM161 207q0 -6 -1 -12.5t-1 -13.5q0 -21 21.5 -33t49.5 -12q37 0 51 25.5t14 82.5q0 62 -16 88t-51 26q-15 0 -29.5 -6t-24.5 -17q-14 -14 -14 -74z" />
    <glyph glyph-name="ograve" unicode="&#xf2;" horiz-adv-x="448" 
d="M205.5 711.5q24.5 -24.5 70.5 -74.5q4 -5 16.5 -19t25.5 -23v-8q-17 -9 -81 -9q-60 0 -60 7q-9 15 -57 53q-44 34 -44 42v8l69 70h6q30 -22 54.5 -46.5zM85 684l24 -21q66 -54 75 -72q14 -4 49 -4q47 0 71 6q-13 11 -35 37q-41 44 -66.5 69.5t-54.5 47.5zM239 519
q41 0 72 -7t63 -27q37 -23 47 -72t10 -122q0 -76 -3.5 -125.5t-15.5 -98.5q-12 -45 -54 -64t-96 -19q-16 0 -27.5 1t-18.5 2l-27 2q-36 2 -53 5t-35 15t-44 39q-37 39 -37 148v94q0 76 4 113q1 11 9 31l7 23q11 33 54 47t80 14zM29 257v-31q0 -82 17.5 -139t77.5 -78
q15 -5 31.5 -7t32.5 -3q6 0 15 -0.5t21 -2.5q17 -3 39 -3q60 0 91 18.5t42.5 48t15.5 76.5l2 21q7 84 7 129q0 124 -33 175q-38 30 -67.5 39t-73.5 9l-72 -1q-31 0 -73.5 -11t-51.5 -43l-7 -22q-8 -20 -9 -31q-5 -47 -5 -144zM287.5 338q18.5 -31 18.5 -96q0 -60 -17.5 -88
t-57.5 -28q-32 0 -56.5 14.5t-24.5 40.5l1 31l-1 55q0 58 17 75q10 13 27 20t35 7q40 0 58.5 -31zM161 207q0 -6 -1 -12.5t-1 -13.5q0 -21 21.5 -33t49.5 -12q37 0 51 25.5t14 82.5q0 62 -16 88t-51 26q-15 0 -29.5 -6t-24.5 -17q-14 -14 -14 -74z" />
    <glyph glyph-name="oslash" unicode="&#xf8;" horiz-adv-x="351" 
d="M311 59q-18 -53 -77 -69q-6 -2 -38 -4q-38 -3 -56 -6t-17 -9q-16 -4 -39 -4h-21t-29.5 2.5t-11.5 8.5q0 8 6 25.5t13 34.5q-23 107 -23 198q0 19 4 57q1 9 2 22.5t1 32.5q0 76 36 111.5t109 35.5q20 0 29 -1q0 15 8 15q5 0 10 -1t10 -1l23 1q8 1 23 1q27 0 38 -11
q0 -7 -6 -21q-7 -12 -7 -22q0 -3 1 -5q33 -40 33 -114q0 -14 -2 -38l-1 -109q0 -77 -18 -130zM322 337q0 39 -10 68q-2 5 -11 19q-2 3 -7.5 13t-5.5 18t6 21t7 19q-10 3 -21 3q-8 0 -24 -2t-24 -2q-14 0 -23 5v-10l-1 -3l-1 -1l-4 -2q-21 3 -43 3q-55 0 -81.5 -22.5
t-33.5 -51.5t-10 -77q0 -8 -2 -24q-3 -16 -3 -34v-85q0 -17 2 -38.5t3 -30.5q2 -17 8 -38q8 -32 8 -45l1 -2l-1 -3l-1 -1q-6 -12 -9 -28q-1 -4 -3 -11t-6 -16l27 -1q9 -1 26 -1q16 0 33 3l9 9q8 8 45 8l18 -1q58 0 86.5 29t35.5 69t7 96l1 107v2q2 24 2 38zM97 218
q0 19 5 46q3 9 4 22q2 36 5 56t17 36.5t43 16.5l5 -5q0 -7 -5.5 -22.5t-7.5 -21.5l-24 -73q-20 -58 -29 -87h-9q-4 5 -4 32zM164 385q-29 -5 -38 -24t-9 -52l1 -18q0 -31 -7 -45q0 -6 -1.5 -17t-2.5 -18zM241 225q3 -25 3 -49q0 -42 -16 -67.5t-59 -32.5l-4 4l-2 4
q8 17 26 75q25 81 41 113l9 -2q0 -15 2 -45zM230 224l-1 22l-54 -159q35 8 50 33q7 28 7 61q0 13 -2 43z" />
    <glyph glyph-name="otilde" unicode="&#xf5;" horiz-adv-x="448" 
d="M121 585q-21 0 -30 3l-68 -1l-5 6q17 66 53 117.5t89 51.5q29 0 46 -11t36 -32q13 -15 22.5 -22.5t22.5 -10.5q19 3 32 21t18 39q14 7 44 7l28 -1l15 1l4 -2l1 -1q0 -4 2 -4q0 -72 -30 -119.5t-90 -47.5q-29 0 -44 10.5t-31 31.5q-12 15 -22 23t-27 8q-18 0 -32 -10
t-14 -30q0 -4 2 -11.5t2 -11.5l-5 -5q-6 1 -19 1zM131 608q0 23 16.5 39.5t40.5 16.5q20 0 31 -8.5t21 -25.5q13 -20 27 -30.5t44 -10.5q54 0 82 43.5t28 109.5l-40 -1q-32 0 -35 -1q-4 -19 -15 -33.5t-23.5 -22.5t-20.5 -8q-12 0 -21.5 8t-22.5 24q-14 18 -22 24
q-24 19 -62 19q-37 0 -62 -23.5t-38.5 -53.5t-28.5 -77l22 1q14 2 23 2q11 0 21 -3q24 0 37 -2q-2 8 -2 13zM239 519q41 0 72 -7t63 -27q37 -23 47 -72t10 -122q0 -76 -3.5 -125.5t-15.5 -98.5q-12 -45 -54 -64t-96 -19q-16 0 -27.5 1t-18.5 2l-27 2q-36 2 -53 5t-35 15
t-44 39q-37 39 -37 148v94q0 76 4 113q1 11 9 31l7 23q11 33 54 47t80 14zM29 257v-31q0 -82 17.5 -139t77.5 -78q15 -5 31.5 -7t32.5 -3q6 0 15 -0.5t21 -2.5q17 -3 39 -3q60 0 91 18.5t42.5 48t15.5 76.5l2 21q7 84 7 129q0 124 -33 175q-38 30 -67.5 39t-73.5 9l-72 -1
q-31 0 -73.5 -11t-51.5 -43l-7 -22q-8 -20 -9 -31q-5 -47 -5 -144zM287.5 338q18.5 -31 18.5 -96q0 -60 -17.5 -88t-57.5 -28q-32 0 -56.5 14.5t-24.5 40.5l1 31l-1 55q0 58 17 75q10 13 27 20t35 7q40 0 58.5 -31zM161 207q0 -6 -1 -12.5t-1 -13.5q0 -21 21.5 -33t49.5 -12
q37 0 51 25.5t14 82.5q0 62 -16 88t-51 26q-15 0 -29.5 -6t-24.5 -17q-14 -14 -14 -74z" />
    <glyph glyph-name="oe" unicode="&#x153;" horiz-adv-x="703" 
d="M284 8q-47 -14 -115 -14q-54 0 -90.5 39.5t-54 99t-17.5 119.5q0 91 37 162q28 54 72.5 72.5t111.5 18.5q48 0 82.5 -9.5t49.5 -41.5q29 33 69.5 41t103.5 8q35 0 57 -6.5t43 -28.5q29 -31 43 -76t14 -94q0 -28 -2 -41q-17 -17 -178 -17q-16 0 -25 -1l-33 -1q-20 0 -32 4
q0 -64 15.5 -98.5t61.5 -34.5q51 0 51 86h8q5 -1 17 -1q11 0 37 2t38 2q16 0 25 -2t13 -10q-3 -15 -5 -54q-3 -41 -7 -64.5t-13 -34.5q-10 -22 -48.5 -31.5t-83.5 -9.5q-36 0 -60 4q-41 6 -64.5 21.5t-50.5 50.5q-23 -46 -70 -60zM611 12q35 12 42 27q10 20 13 40.5t5 56.5
q2 32 4 48q-11 4 -29 4q-20 0 -41 -3q-26 -2 -35 -2l-10 1q0 -38 -19 -63t-47 -25q-45 0 -65 43t-20 97q0 13 9 17q9 -5 34 -5q16 0 27 1t17 1q153 0 182 11q2 24 2 36q0 48 -13 91t-41 73q-19 20 -41 26t-57 6q-53 0 -95 -12.5t-72 -46.5q-2 0 -3.5 4t-2.5 5q-21 34 -48 43
t-67 9q-71 0 -116 -16t-72 -69q-35 -67 -35 -157q0 -57 16.5 -114.5t50 -96t82.5 -38.5q47 0 78.5 3.5t60.5 19.5t43 50l1.5 2.5t4.5 2.5l21 -22q25 -27 42.5 -38.5t52.5 -15.5q40 -6 71 -6q35 0 70 12zM494 318q-27 0 -38 0.5t-13 0.5q-32 0 -32 19q0 39 23 59.5t60 20.5
q25 0 45 -10q41 -21 41 -81q0 -9 -86 -9zM274.5 385.5q15.5 -30.5 15.5 -85.5q0 -70 -5 -112.5t-25.5 -70t-63.5 -27.5q-46 0 -66.5 48t-20.5 113q0 55 14 99q6 29 32.5 47.5t57.5 18.5q46 0 61.5 -30.5zM441 389q-20 -21 -20 -55q12 -6 29 -6q14 0 38 2q26 2 43 2
q9 0 39 -2q0 52 -36 69q-24 11 -43 11q-30 0 -50 -21zM139 144.5q20 -47.5 57 -47.5q42 0 62.5 39.5t20.5 101.5v36q0 47 -4 74t-18 42.5t-43 15.5q-28 0 -52 -16.5t-29 -42.5q-14 -39 -14 -94q0 -61 20 -108.5z" />
    <glyph glyph-name="p" unicode="p" horiz-adv-x="464" 
d="M93 -215q-31 0 -47 4l-7 2l-3 6q0 129 -5 291q-1 37 -3 128.5t-2 164.5q0 66 4 119q14 7 48 7l43 -1h16q33 0 38 -8v-1q2 -4 2 -18t1 -22q16 46 81 46q101 0 145 -71.5t44 -203.5q0 -119 -34.5 -176.5t-118.5 -57.5q-94 0 -120 15q2 -48 2 -91q0 -53 -5 -121l-4 -5
q-32 -7 -75 -7zM162 -199q-1 4 -1 29q0 45 3 168l1 26h2l8 1v-1q13 -14 38.5 -18t56.5 -4q46 0 80.5 10.5t53.5 40.5q33 50 33 158q0 79 -11.5 138.5t-50.5 101.5t-116 42q-30 0 -42.5 -7.5t-21.5 -22.5q-4 -5 -8.5 -10.5t-10.5 -8.5q-11 6 -11 34l1 15q-14 3 -43 3l-42 -1
q-14 -1 -41 -1q-4 -51 -4 -116q0 -128 5 -288q1 -37 3 -127.5t2 -162.5q15 -5 48 -5q40 0 68 6zM294 128.5q-28 -19.5 -67 -19.5q-42 0 -56 22t-14 63q0 61 4 97.5t21.5 62t54.5 25.5q25 0 48 -18.5t37 -48.5t14 -63q0 -36 -9 -66v2q-5 -37 -33 -56.5zM302.5 327.5
q-21.5 41.5 -70.5 41.5q-34 0 -48 -30.5t-14 -73.5l1 -36l-1 -41q0 -35 10.5 -53.5t44.5 -18.5q33 0 60.5 19.5t31.5 50.5q2 6 3 13.5t1 10.5t1 9.5t2 10.5q0 56 -21.5 97.5z" />
    <glyph glyph-name="thorn" unicode="&#xfe;" horiz-adv-x="470" 
d="M30 110l-1 309q0 188 7 308q38 4 60 4q44 0 86 -8q0 -84 -1 -126l-1 -126q14 20 44.5 26.5t59.5 6.5q28 0 58.5 -17.5t54.5 -44t34 -50.5q25 -63 25 -135q0 -65 -19.5 -126t-57 -100t-87.5 -39q-28 0 -57 12.5t-54 35.5v-131l-1 -33q0 -23 4 -40q-5 -9 -16.5 -12.5
t-31.5 -3.5l-111 4q5 117 5 286zM235 17.5q32 -14.5 64 -14.5q44 0 77.5 35t51 94t17.5 128q0 98 -44 165t-135 67q-20 3 -48.5 -6t-37.5 -37l-10 3l1 133q1 44 1 133l-126 3q-7 -124 -7 -317l1 -293q0 -161 -5 -275q17 0 38 -3q54 -3 59 -3q29 0 41 6q-3 18 -3 37l1 37v141
l9 4q23 -23 55 -37.5zM308.5 167.5q-25.5 -34.5 -69.5 -34.5q-33 0 -50.5 19t-17.5 65l1 43q0 5 -1 16t-1 28q0 36 12 50t40 14q37 0 67.5 -16.5t37.5 -50.5q7 -22 7 -51q0 -48 -25.5 -82.5zM187 343q-7 -15 -7 -41q0 -12 1 -23t1 -20l-1 -41q0 -35 11.5 -55t46.5 -20
q43 0 63.5 34t20.5 81q-2 29 -6 40q-6 32 -35 46t-64 14q-24 0 -31 -15z" />
    <glyph glyph-name="q" unicode="q" horiz-adv-x="463" 
d="M288 11q-24 -18 -84 -18q-56 0 -94 10.5t-59 45.5q-36 58 -36 156q0 125 36 212t145 87q30 0 54 -11.5t36 -35.5q1 0 1 2l-1 14q0 21 7.5 27t28.5 6h21h36q47 0 55 -7q1 -43 1 -130q0 -95 -1 -167t-2 -119q-4 -192 -4 -287q-5 -11 -60 -11q-30 0 -49.5 2.5t-26.5 10.5v11
q-4 32 -4 60v35v107zM356 -205q30 0 62 5q0 93 4 283q1 47 2 117.5t1 164.5q0 86 -1 129l-42 1q-28 2 -43 2q-21 0 -41 -3v-21t-3 -19t-12 -9q-5 4 -14.5 18.5t-25 23t-46.5 8.5q-87 0 -130 -71.5t-43 -199.5q0 -52 9 -97t26 -73q18 -30 54 -40.5t84 -10.5q31 0 54 4t38 19
l10 -1q-1 -26 -1 -78l2 -65l2 -74v-7q26 -6 54 -6zM128 241q0 54 27.5 95.5t71.5 41.5q41 0 59.5 -34.5t18.5 -117.5q0 -45 -4 -69t-17 -36t-41 -12q-43 0 -71.5 18t-34.5 57l1 -1q-10 24 -10 58zM247 119q29 0 38.5 20.5t9.5 56.5q0 56 -3.5 91t-18.5 58.5t-47 23.5
q-40 0 -64 -40t-24 -90q0 -29 9 -52v-2q10 -66 100 -66z" />
    <glyph glyph-name="r" unicode="r" horiz-adv-x="368" 
d="M31 209q-3 107 -3 217q0 73 9 77q8 0 17 -1.5t18 -1.5q7 0 23 2q22 4 57 4q11 0 17 -1t8 -5v-27q31 14 71 23.5t75 9.5q16 0 26.5 -1.5t13.5 -7.5l-1 -58q-2 -40 -2 -60q0 -29 3 -58l-7 -5q-32 12 -59.5 16t-59.5 4q-65 0 -65 -68q0 -66 3 -132q2 -90 2 -133
q-4 -10 -40 -10q-21 0 -32 1l-33 1l-39 3q0 71 -2 211zM168 469q-2 6 -2 11l1 16h-25q-9 -4 -27 -6t-35 -2q-10 0 -21.5 1.5t-16.5 2.5q-3 -79 -3 -160q0 -66 2 -198q2 -88 2 -131q8 1 23 1q20 0 30 -1l29 -1q25 0 42 5q0 41 -2 127q-2 84 -2 126q0 41 15.5 63.5t61.5 22.5
q57 0 112 -18q-3 24 -3 50q0 18 2 58q2 38 2 57q-55 0 -97 -6.5t-80 -25.5l-8 5v3z" />
    <glyph glyph-name="s" unicode="s" horiz-adv-x="450" 
d="M349 334q-54 0 -60 14v1q0 24 -16.5 38t-39.5 14q-19 0 -33 -8.5t-17 -26.5q0 -36 26.5 -49t76.5 -20q31 -5 35 -6q55 -14 85 -50.5t30 -87.5q0 -95 -59.5 -134.5t-140.5 -39.5q-99 0 -164.5 42t-65.5 135q9 9 43 9h16l45 1q46 0 54 -8v-4l3 -1h-3q2 -21 19.5 -32.5
t41.5 -11.5q26 0 41.5 12.5t15.5 33.5q0 27 -27.5 39t-70.5 19q-69 12 -118.5 53t-49.5 104q0 87 59.5 121.5t140.5 34.5q57 0 98 -6t71 -29t43 -62t13 -83l-4 -5q-49 -7 -88 -7zM431 350q0 70 -27.5 106t-69 47.5t-97.5 11.5q-90 0 -150 -27.5t-60 -116.5q0 -54 39 -93
t101 -52l21 -4q46 -7 74 -19.5t28 -44.5q0 -30 -18 -45.5t-43 -15.5q-27 0 -49.5 16t-25.5 40q-58 2 -88 2q-34 0 -50 -2q0 -84 61.5 -124.5t148.5 -40.5q198 0 198 164q0 47 -26 80.5t-79 48.5q-4 1 -35 6q-51 7 -81 22t-30 53q0 23 17 36.5t40 13.5q27 0 48 -16.5
t21 -45.5q27 -7 58 -7q32 0 74 7z" />
    <glyph glyph-name="scaron" unicode="&#x161;" horiz-adv-x="450" 
d="M217 547l-174 172l102 8q19 1 28.5 -5t21.5 -20q15 -19 28 -27l7 6q6 13 24.5 28.5t34.5 15.5q30 0 51.5 -1.5t46.5 -6.5q-30 -38 -64.5 -73.5t-83.5 -81.5l-16 -15h-6zM69 707l151 -149l34 32q45 42 69.5 66t47.5 53l-18 -1q-11 0 -23 3q-24 4 -36 3q-15 0 -24.5 -6.5
t-23.5 -20.5q-13 -17 -25 -23q-11 6 -27 26q-10 15 -22 23l-63 1zM289 348v1q0 24 -16.5 38t-39.5 14q-19 0 -33 -8.5t-17 -26.5q0 -36 26.5 -49t76.5 -20q31 -5 35 -6q55 -14 85 -50.5t30 -87.5q0 -95 -59.5 -134.5t-140.5 -39.5q-99 0 -164.5 42t-65.5 135q9 9 43 9h16
l45 1q46 0 54 -8v-4l3 -1h-3q2 -21 19.5 -32.5t41.5 -11.5q26 0 41.5 12.5t15.5 33.5q0 27 -27.5 39t-70.5 19q-69 12 -118.5 53t-49.5 104q0 87 59.5 121.5t140.5 34.5q57 0 98 -6t71 -29t43 -62t13 -83l-4 -5q-49 -7 -88 -7q-54 0 -60 14zM278 395.5q21 -16.5 21 -45.5
q27 -7 58 -7q32 0 74 7q0 70 -27.5 106t-69 47.5t-97.5 11.5q-90 0 -150 -27.5t-60 -116.5q0 -54 39 -93t101 -52l21 -4q46 -7 74 -19.5t28 -44.5q0 -30 -18 -45.5t-43 -15.5q-27 0 -49.5 16t-25.5 40q-58 2 -88 2q-34 0 -50 -2q0 -84 61.5 -124.5t148.5 -40.5
q198 0 198 164q0 47 -26 80.5t-79 48.5q-4 1 -35 6q-51 7 -81 22t-30 53q0 23 17 36.5t40 13.5q27 0 48 -16.5z" />
    <glyph glyph-name="germandbls" unicode="&#xdf;" horiz-adv-x="470" 
d="M254 411q7 13 24 30q14 16 20.5 26t6.5 21q0 26 -30.5 42.5t-73.5 16.5q-20 0 -35 -6q-4 -27 -4 -61q0 -48 2 -108.5t3 -84.5q5 -107 5 -193v-34q0 -33 -1.5 -45.5t-8.5 -17t-24 -4.5q-9 0 -22 1t-32 1l-25 -1q-10 0 -15.5 1.5t-10.5 6.5q-3 92 -3 182l1 163q1 54 1 162
q0 121 -2 182q7 14 91 24q42 4 67 4q105 0 177.5 -47t72.5 -158q0 -55 -24 -114l-14 -28q-10 -18 -14 -28q1 -1 1 -2.5t1 -2.5q37 -37 57 -81.5t20 -88.5q0 -42 -21.5 -83t-65 -67.5t-105.5 -26.5q-10 0 -23.5 1.5t-20.5 1.5q-6 3 -9.5 29t-3.5 56t6.5 44t15.5 17.5t34 9.5
q24 18 24 51q0 17 -7 32t-22 36q-16 23 -25 42t-9 42v2q9 35 21 55zM291 154q-5 -7 -11 -10t-11 -5t-7 -2q-19 -4 -28 -15t-9 -48q0 -35 8 -69q18 -2 28 -2q81 0 137.5 44.5t56.5 131.5q0 36 -12 60.5t-37 57.5q-22 30 -30 46q-1 12 18 42q8 11 11 19q23 57 23 101
q0 109 -67 156.5t-169 47.5q-72 0 -152 -20q2 -116 2 -174q0 -105 -1 -157l-1 -158q0 -96 3 -194l113 -1q8 20 8 70q0 82 -6 216q-6 122 -6 187q0 40 5 67q7 7 17.5 9t26.5 2q59 0 86 -21t27 -45q0 -14 -8 -27t-25 -34q-7 -7 -19 -23q-7 -10 -11.5 -24.5t-7.5 -28.5
q1 -21 9.5 -39.5t24.5 -40.5q15 -23 22.5 -39t7.5 -33q0 -22 -16 -47z" />
    <glyph glyph-name="t" unicode="t" horiz-adv-x="387" 
d="M308 503q21 2 59 4q14 -15 14 -45q0 -16 -3 -33q-2 -22 -2 -32t1 -15l2 -12l-156 2v-97q0 -65 1 -98q13 -21 49 -29.5t76 -8.5q17 0 24 1q12 -24 12 -96q0 -25 -7 -46q-7 -4 -30 -4q-93 0 -158.5 17t-94.5 75q-9 17 -12 51.5t-3.5 61.5t-0.5 33q-2 54 -2 80q0 38 1 57
q-9 -1 -21.5 -1h-17.5q-26 0 -33 7v10v43q0 69 9 73q11 -1 32 -1h33q0 21 -2 69q-3 38 -3 75q0 23 5 36t22 13q13 0 23.5 -1t17.5 -2q28 -4 43 -4q16 0 24 2l11 2v-191q29 0 87 4zM189 675q-14 0 -42 4q-30 4 -43 4q-10 0 -13 -3.5t-3 -10.5l1 -87q1 -29 1 -87q-7 -7 -29 -7
q-12 0 -22 1t-20 1l-3 -111q31 0 73 4q-2 -26 -2 -81q0 -86 8 -154q1 -7 2.5 -24.5t5.5 -31.5t12 -24q51 -64 211 -64q30 0 43 1q6 20 6 40q0 22 -3 48.5t-4 36.5q-6 -1 -22 -1q-45 0 -89.5 13.5t-44.5 42.5l1 19l1 89q0 50 -1 69t0 20h153q-2 10 -2 16q0 15 3 31
q0 5 1.5 16t1.5 19q0 21 -6 33l-45 -3q-14 -1 -48.5 -3t-60.5 -2v188q-14 -2 -21 -2z" />
    <glyph glyph-name="u" unicode="u" horiz-adv-x="450" 
d="M276 45q-24 -23 -58.5 -34t-62.5 -11q-72 0 -107 36q-10 11 -14 28.5t-5 33t-1 20.5q-3 45 -3 89q0 42 2 124q3 62 3 125l-1 41q10 10 49 10h81q7 -15 7 -40q0 -49 -1 -74l-1 -79q0 -91 20 -131l5 -5q3 -2 12.5 -5t17.5 -5q38 0 51.5 24.5t13.5 62.5q0 29 -1 50.5
t-2 36.5q-3 44 -3 86q0 18 3 34q2 22 2 34l3 6q28 8 50 8q9 0 27 -2q16 -2 26 -2q7 0 23 2l5 -5q0 -59 2 -175l1 -176q0 -100 -2 -150q-3 -3 -6 -4t-6 -1l-99 -4q-17 0 -22 1.5t-7 6.5v-1q-3 11 -3 24q0 14 1 21zM287 29q1 -9 1 -26q13 0 23.5 1t18.5 2q30 4 49 4
q7 0 14 -1.5t15 -1.5q2 49 2 147l-1 172q-2 114 -2 171q-18 -2 -31 -2q-7 0 -23 2l-21 1q-23 0 -39 -5q0 -11 -2 -33q-3 -16 -3 -33q0 -37 3 -79q0 -14 1.5 -43t1.5 -52q0 -39 -14.5 -67t-52.5 -28q-25 0 -41 10l-1 1q-31 14 -31 124l1 70q2 46 2 71q0 32 -3 63h-51
q-43 0 -64 -3q1 -13 1 -39q0 -50 -1 -88t-2 -63q-3 -73 -3 -146q0 -50 8 -81t33 -49t76 -18q28 0 49 8t49 25q6 3 13.5 7.5t16.5 8.5l7 -5z" />
    <glyph glyph-name="uacute" unicode="&#xfa;" horiz-adv-x="449" 
d="M348 650q-57 -47 -66 -65q-7 -7 -62 -7q-29 0 -52.5 2.5t-27.5 6.5v8q28 24 80 78q48 53 87 85q13 -7 26 -19t31 -32l19 -20v-6q-7 -7 -35 -31zM310 747q-34 -27 -93 -90q-31 -33 -64 -64q33 -6 72 -6q28 0 48 4q6 11 24.5 28.5t38.5 33.5q23 18 36 31zM276 45
q-24 -23 -58.5 -34t-62.5 -11q-72 0 -107 36q-11 11 -14.5 28t-4.5 32.5t-1 21.5q-3 45 -3 89q0 42 2 124q3 62 3 125l-1 41q10 10 49 10h81q7 -15 7 -40q0 -49 -1 -74l-1 -79q0 -91 20 -131l5 -5q3 -2 12.5 -5t17.5 -5q38 0 51.5 24.5t13.5 62.5q0 29 -1 50.5t-2 36.5
q-3 44 -3 86q0 18 3 34q2 22 2 34l3 6q28 8 50 8q9 0 27 -2q16 -2 26 -2q7 0 23 2l5 -5q0 -59 2 -175l1 -176q0 -100 -2 -150q-3 -3 -6 -4t-6 -1h-10q-10 0 -13 2h-10q-1 0 -8.5 -3t-57.5 -3q-17 0 -22 1.5t-7 6.5v-1q-3 11 -3 24q0 14 1 21zM287 29q1 -9 1 -26q13 0 23.5 1
t18.5 2q30 4 49 4q7 0 14 -1.5t15 -1.5q2 49 2 147l-1 172q-2 114 -2 171q-18 -2 -31 -2q-7 0 -23 2l-21 1q-23 0 -39 -5q0 -11 -2 -33q-3 -16 -3 -33q0 -37 3 -79q0 -14 1.5 -43t1.5 -52q0 -39 -14.5 -67t-52.5 -28q-5 0 -11.5 2t-9.5 3q-12 5 -20 5l-1 1q-25 12 -25 76
q-6 17 -6 48l1 70q2 46 2 71q0 32 -3 63h-51q-43 0 -64 -3q1 -13 1 -39q0 -50 -1 -88t-2 -63q-3 -75 -3 -148q0 -50 8 -80.5t33 -48t76 -17.5q28 0 49 8t49 25q6 3 13.5 7.5t16.5 8.5l7 -5z" />
    <glyph glyph-name="ucircumflex" unicode="&#xfb;" horiz-adv-x="450" 
d="M364 586q-32 -5 -50 -5q-32 0 -49.5 11.5t-28.5 32.5l-8 8q-9 -7 -28 -26q-11 -13 -21.5 -18.5t-37.5 -5.5q-39 0 -72 6l-3 9q26 34 56 64t75 70l31 29q2 -1 7 -1l163 -162l-4 -8q-10 0 -30 -4zM281 700l-50 50l-39 -36q-44 -41 -68 -64.5t-46 -51.5q32 -4 69 -4
q23 0 34 6.5t22 20.5q14 17 22 22h6q9 -6 25 -26l14 -16l9 -6q40 -2 60 -2q7 0 12 1t9 2l22 3q-51 50 -101 101zM276 45q-24 -23 -58.5 -34t-62.5 -11q-72 0 -107 36q-11 11 -14.5 28t-4.5 32.5t-1 21.5q-3 45 -3 89q0 42 2 124q3 62 3 125l-1 41q10 10 49 10h81
q7 -15 7 -40q0 -49 -1 -74l-1 -79q0 -91 20 -131l5 -5q3 -2 12.5 -5t17.5 -5q38 0 51.5 24.5t13.5 62.5q0 29 -1 50.5t-2 36.5q-3 44 -3 86q0 18 3 34q2 22 2 34l3 6q28 8 50 8q9 0 27 -2q16 -2 26 -2q7 0 23 2l5 -5q0 -59 2 -175l1 -176q0 -100 -2 -150q-3 -3 -6 -4t-6 -1
h-10q-10 0 -13 2h-10q-1 0 -8.5 -3t-57.5 -3q-17 0 -22 1.5t-7 6.5v-1q-3 11 -3 24q0 14 1 21zM287 29q1 -9 1 -26q13 0 23.5 1t18.5 2q30 4 49 4q7 0 14 -1.5t15 -1.5q2 49 2 147l-1 172q-2 114 -2 171q-18 -2 -31 -2q-7 0 -23 2l-21 1q-23 0 -39 -5q0 -11 -2 -33
q-3 -16 -3 -33q0 -37 3 -79q0 -14 1.5 -43t1.5 -52q0 -39 -14.5 -67t-52.5 -28q-5 0 -11.5 2t-9.5 3q-12 5 -20 5l-1 1q-25 12 -25 76q-6 17 -6 48l1 70q2 46 2 71q0 32 -3 63h-51q-43 0 -64 -3q1 -13 1 -39q0 -50 -1 -88t-2 -63q-3 -75 -3 -148q0 -50 8 -80.5t33 -48
t76 -17.5q28 0 49 8t49 25q6 3 13.5 7.5t16.5 8.5l7 -5z" />
    <glyph glyph-name="udieresis" unicode="&#xfc;" horiz-adv-x="449" 
d="M201 629q0 -9 -19 -13t-38 -4q-78 0 -88 11q0 21 -2 63q-3 32 -3 64q0 11 6 15l143 -3l2 -85zM386 650q-1 -15 -1 -21q0 -9 -19 -13t-38 -4q-78 0 -88 11q0 21 -2 63q-3 32 -3 64q0 11 6 15l141 -3l4 -85q1 -12 0 -27zM62 755q-1 -8 -1 -23q0 -26 3 -52q2 -36 2 -53
l30 -2q48 -3 52 -3q33 0 43 9l-3 121zM246 755l-1 -18q0 -28 3 -55q2 -36 2 -55l30 -2q48 -3 52 -3q33 0 43 9l-3 121zM276 45q-24 -23 -58.5 -34t-62.5 -11q-72 0 -107 36q-11 11 -14.5 28t-4.5 32.5t-1 21.5q-3 45 -3 89q0 42 2 124q3 62 3 125l-1 41q10 10 49 10h81
q7 -15 7 -40q0 -53 -1 -80l-1 -89q0 -56 10 -90.5t45 -39.5q38 0 51.5 24.5t13.5 62.5q0 29 -1 50.5t-2 36.5q-3 44 -3 86q0 18 3 34q2 22 2 34l1 8q17 7 38 7q18 0 35 -3q22 -2 32 -2q4 0 8.5 1t8.5 1q7 0 11 -5q0 -59 2 -175l1 -176q0 -100 -2 -150q-3 -3 -6 -4t-6 -1
l-99 -4q-17 0 -22 1.5t-7 6.5v-1q-3 11 -3 24q0 14 1 21zM287 34l1 -31q13 0 23.5 1t18.5 2q30 4 49 4q7 0 14 -1.5t15 -1.5q2 49 2 147l-1 172q-2 114 -2 171q-18 -2 -31 -2q-7 0 -23 2l-21 1q-23 0 -39 -5q0 -11 -2 -33q-3 -16 -3 -33q0 -37 3 -79q0 -14 1.5 -43t1.5 -52
q0 -39 -14.5 -67t-52.5 -28q-12 0 -20 2t-21 8l-1 1q-31 14 -31 124l1 70q2 46 2 71q0 32 -3 63h-51q-43 0 -64 -3q1 -13 1 -39q0 -50 -1 -88t-2 -63q-3 -75 -3 -148q0 -50 8 -80.5t33 -48t76 -17.5q28 0 49 8t49 25q6 3 13.5 7.5t16.5 8.5l6 5q0 -8 2 -30z" />
    <glyph glyph-name="ugrave" unicode="&#xf9;" horiz-adv-x="450" 
d="M204.5 711.5q24.5 -24.5 70.5 -74.5q4 -5 16.5 -19t25.5 -23v-8q-17 -9 -81 -9q-60 0 -60 7q-9 15 -57 53q-44 34 -44 42v8l69 70h6q30 -22 54.5 -46.5zM84 684l24 -21q66 -54 75 -72q14 -4 49 -4q47 0 71 6q-13 11 -35 37q-41 44 -66.5 69.5t-54.5 47.5zM276 45
q-24 -23 -58.5 -34t-62.5 -11q-72 0 -107 36q-11 11 -14.5 28t-4.5 32.5t-1 21.5q-3 45 -3 89q0 42 2 124q3 62 3 125l-1 41q10 10 49 10h81q7 -15 7 -40q0 -49 -1 -74l-1 -79q0 -91 20 -131l5 -5q3 -2 12.5 -5t17.5 -5q38 0 51.5 24.5t13.5 62.5q0 29 -1 50.5t-2 36.5
q-3 44 -3 86q0 18 3 34q2 22 2 34l3 6q28 8 50 8q9 0 27 -2q16 -2 26 -2q7 0 23 2l5 -5q0 -59 2 -175l1 -176q0 -100 -2 -150q-3 -3 -6 -4t-6 -1h-10q-10 0 -13 2h-10q-1 0 -8.5 -3t-57.5 -3q-17 0 -22 1.5t-7 6.5v-1q-3 11 -3 24q0 14 1 21zM287 29q1 -9 1 -26q13 0 23.5 1
t18.5 2q30 4 49 4q7 0 14 -1.5t15 -1.5q2 49 2 147l-1 172q-2 114 -2 171q-18 -2 -31 -2q-7 0 -23 2l-21 1q-23 0 -39 -5q0 -11 -2 -33q-3 -16 -3 -33q0 -37 3 -79q0 -14 1.5 -43t1.5 -52q0 -39 -14.5 -67t-52.5 -28q-5 0 -11.5 2t-9.5 3q-12 5 -20 5l-1 1q-25 12 -25 76
q-6 17 -6 48l1 70q2 46 2 71q0 32 -3 63h-51q-43 0 -64 -3q1 -13 1 -39q0 -50 -1 -88t-2 -63q-3 -75 -3 -148q0 -50 8 -80.5t33 -48t76 -17.5q28 0 49 8t49 25q6 3 13.5 7.5t16.5 8.5l7 -5z" />
    <glyph glyph-name="v" unicode="v" horiz-adv-x="429" 
d="M215 170q17 54 32 149q9 57 18.5 98.5t24.5 80.5l4 3l66 1q46 2 68 2l5 -7q-25 -68 -43 -139t-41 -181q-27 -127 -41 -180q-10 -10 -55 -10l-65 1q-63 0 -78 8q-39 247 -104 503l6 6q20 -3 40 -3l32 1q11 1 32 1q11 0 35 -2l4 -5q28 -211 60 -327zM115 493l-63 -1
q-23 0 -34 2q66 -270 101 -492l48 -1q50 -2 76 -2q41 0 56 4q17 65 42 184q22 102 39 171t41 136l-61 -1q-42 -2 -63 -2q-15 -38 -23.5 -78t-18.5 -101q-15 -103 -34 -159h-9q-13 30 -20 63t-14 79l-4 24l-4 22q-12 67 -25 151q-10 1 -30 1z" />
    <glyph glyph-name="w" unicode="w" horiz-adv-x="683" 
d="M164 451l5 -28q18 -156 47 -254q16 46 27.5 99.5t13.5 64.5q7 43 18 87q2 8 3 15.5t2 13.5q4 50 16 56q9 -3 20 -3q8 0 17.5 1.5t14.5 1.5q15 3 31 3q28 0 32 -9q4 -26 11 -67q9 -53 15 -101q11 -108 33 -163q13 32 21 68.5t17 92.5q9 55 17.5 94t22.5 75l4 3q18 0 54 2
q29 3 56 3q22 0 25 -9q-25 -68 -43 -139t-41 -181q-27 -127 -41 -180q-9 -9 -56 -9q-24 0 -68 2q-40 2 -57 2l-5 4l-17 103q-5 34 -17 102q-8 -41 -12 -82q-1 -9 -7 -48.5t-15 -73.5q-10 -10 -55 -10l-65 1q-63 0 -78 8q-39 247 -104 503l6 6q18 -3 37 -3l33 1q11 1 33 1
q25 0 37 -2l4 -5q1 -21 8 -46zM115 493l-63 -1q-23 0 -34 2q66 -270 101 -492l48 -1q50 -2 76 -2q41 0 56 4q11 39 21 123q1 10 6 43.5t11 60.5l11 1l-1 -3q13 -69 38 -226l44 -1q46 -2 72 -2q39 0 52 4q16 61 42 185q22 102 39 171t41 136q-8 1 -24 1q-15 0 -47 -2
q-24 -3 -49 -3q-14 -35 -22 -72.5t-17 -93.5q-9 -55 -17.5 -95t-23.5 -77h-9q-13 31 -20.5 66.5t-14.5 85.5l-4 25q-18 110 -26 165q-11 2 -33 2q-13 -4 -32 -4l-38 1q-4 -19 -13 -70q-17 -93 -30.5 -152.5t-33.5 -118.5h-9q-13 31 -20.5 66.5t-14.5 85.5q-2 8 -4 24l-10 60
q-12 68 -17 103q-10 1 -31 1z" />
    <glyph glyph-name="x" unicode="x" horiz-adv-x="413" 
d="M417 498q-7 -23 -17.5 -51t-14.5 -39q-20 -49 -32 -86.5t-18 -75.5q10 -56 42 -151q4 -12 13.5 -41t15.5 -52l-5 -7l-29 1q-6 -2 -40 -2l-64 1q-19 0 -27.5 21t-13.5 57l-6 29q-2 7 -8 21t-8 23q-9 -22 -22 -72q-2 -6 -8.5 -31t-15.5 -46l-5 -3l-153 -1l3 12q6 30 29 91
q3 9 5.5 15.5t4.5 12.5q18 47 38 123q-9 43 -23 85t-38 104l-22 59q5 12 103 12q23 0 37 -1t19 -4h1q7 -7 13.5 -33t8.5 -33l9 -37q2 -7 6.5 -25.5t9.5 -32.5q11 38 17 65q16 62 26 93l5 4h8q5 3 95 3h22q16 0 26.5 -1t13.5 -4v-1l-5 -4zM329 494l-72 -1q-8 -24 -20 -74
q-14 -64 -27 -94h-9q-9 21 -25 87q-10 44 -16 63t-12 19l-6 -1l-35 1q-12 1 -35 1q-42 0 -63 -2l21 -53q31 -79 46 -129q2 -7 8.5 -30t6.5 -36q-8 -39 -22.5 -80t-17.5 -50q-25 -62 -36 -108q14 -6 40 -6q25 0 43 3q20 2 29 2q15 0 24 -2q9 22 21 70q8 31 14.5 51t16.5 39
q11 -11 17.5 -31t12.5 -51q7 -32 11 -47.5t13 -26.5q-2 -2 4.5 -2t13 0.5t9.5 0.5l51 1q39 0 59 -3q-8 29 -31 101l-21 65q-2 5 -10 28.5t-8 41.5l1 6q5 38 17 75t32 89q22 56 31 85q-26 0 -76 -2z" />
    <glyph glyph-name="y" unicode="y" horiz-adv-x="449" 
d="M178 379l13 -66q7 -41 16.5 -83.5t20.5 -77.5q10 33 14.5 64.5t11.5 93.5q7 69 14 110t23 81l4 3l61 1q20 1 61 1q26 0 29 -9q-26 -92 -56 -229q-4 -14 -10 -42l-8 -36q-27 -121 -56 -195t-96.5 -126t-187.5 -52q-26 0 -38 1q-10 5 -13.5 30t-3.5 50q0 58 11 63
q10 0 32 -2l31 -1q31 0 47.5 11t16.5 43q0 9 -2 19.5t-3 15.5q-21 105 -50 217t-34 130q-10 35 -28 105l6 6q20 -3 39 -3l36 1q11 1 34 1q26 0 39 -2l4 -5q7 -51 22 -118zM112 494q-23 0 -34 -1l-34 -1q-23 0 -34 2q15 -63 38 -141q37 -133 52 -206q6 -33 20 -97
q0 -1 2.5 -13.5t2.5 -18.5q0 -41 -18.5 -55t-54.5 -14q-19 0 -29 1l-31 1q-5 -28 -5 -52q0 -41 11 -71q12 -1 37 -1q114 0 179 50.5t92.5 121t54.5 188.5l9 42l15 65q5 20 20 83.5t30 117.5q-22 2 -33 2q-17 0 -53 -2l-51 -1q-15 -40 -22 -83.5t-13 -103.5q-5 -55 -11 -95
t-18 -77h-9q-13 32 -21 65.5t-18 83.5l-5 26l-11 54q-18 88 -24 128q-22 2 -34 2z" />
    <glyph glyph-name="yacute" unicode="&#xfd;" horiz-adv-x="449" 
d="M331 650q-57 -47 -66 -65q-7 -7 -62 -7q-29 0 -52.5 2.5t-27.5 6.5v8q28 24 80 78q48 53 87 85q13 -7 26 -19t31 -32l19 -20v-6q-7 -7 -35 -31zM293 747q-34 -27 -93 -90q-31 -33 -64 -64q33 -6 72 -6q28 0 48 4q6 11 24.5 28.5t38.5 33.5q23 18 36 31zM178 379l13 -66
q7 -41 16.5 -83.5t20.5 -77.5q10 33 14.5 64.5t11.5 93.5q7 69 14 110t23 81l4 3l61 1q20 1 61 1q26 0 29 -9q-26 -92 -56 -229q-4 -14 -10 -42l-8 -36q-27 -121 -56 -195t-96.5 -126t-187.5 -52q-26 0 -38 1q-10 5 -13.5 30t-3.5 50q0 58 11 63q10 0 32 -2l31 -1
q31 0 47.5 11t16.5 43q0 9 -2 19.5t-3 15.5q-14 71 -36 157.5t-44 167.5q-20 66 -36 132l49 -2q13 -1 41 1l29 1q26 0 39 -2l4 -5q7 -51 22 -118zM112 494q-23 0 -34 -1l-34 -1q-23 0 -34 2q15 -63 38 -141q37 -133 52 -206q6 -33 20 -97q0 -1 2.5 -13.5t2.5 -18.5
q0 -41 -18.5 -55t-54.5 -14q-19 0 -29 1l-31 1q-5 -28 -5 -52q0 -41 11 -71q12 -1 37 -1q114 0 179 50.5t92.5 121t54.5 188.5l9 42l15 65q5 20 20 83.5t30 117.5q-22 2 -33 2q-17 0 -53 -2l-51 -1q-15 -40 -22 -83.5t-13 -103.5q-5 -55 -11 -95t-18 -77h-9q-13 32 -21 65.5
t-18 83.5l-5 26l-11 54q-18 88 -24 128q-22 2 -34 2z" />
    <glyph glyph-name="ydieresis" unicode="&#xff;" horiz-adv-x="449" 
d="M210 629q0 -9 -19 -13t-38 -4q-78 0 -88 11q0 21 -2 63q-3 32 -3 64q0 11 6 15h71q49 0 72 -1l2 -87zM394 629q0 -9 -19 -13t-38 -4q-78 0 -88 11q0 21 -2 63q-3 32 -3 64q0 11 6 15l143 -3l2 -85zM71 755l-1 -18q0 -28 3 -55q2 -36 2 -55l30 -2q48 -3 52 -3q33 0 43 9
l-3 121zM255 755l-1 -18q0 -28 3 -55q2 -36 2 -55l30 -2q48 -3 52 -3q33 0 43 9l-3 121zM207.5 229.5q9.5 -42.5 20.5 -77.5q10 33 14.5 64.5t11.5 91.5q6 65 14 110t27 86l61 1q20 1 61 1q26 0 29 -9q-26 -92 -56 -229q-4 -14 -10 -42l-8 -36q-27 -121 -56 -195t-96.5 -126
t-187.5 -52q-26 0 -38 1q-10 5 -13.5 30t-3.5 50q0 58 11 63q10 0 32 -2l31 -1q31 0 47.5 11t16.5 43q0 9 -2 19.5t-3 15.5q-15 79 -34.5 157t-50.5 195q-13 44 -28 104l46 -1q13 -1 41 1l29 1q26 0 39 -2l39 -189q7 -41 16.5 -83.5zM112 494q-23 0 -34 -1l-34 -1
q-23 0 -34 2q15 -63 38 -141q37 -133 52 -206q6 -33 20 -97q0 -1 2.5 -13.5t2.5 -18.5q0 -41 -18.5 -55t-54.5 -14q-19 0 -29 1l-31 1q-5 -28 -5 -52q0 -41 11 -71q12 -1 37 -1q114 0 179 50.5t92.5 121t54.5 188.5l9 42l15 65q5 20 20 83.5t30 117.5q-22 2 -33 2
q-17 0 -53 -2l-51 -1q-15 -40 -22 -83.5t-13 -103.5q-5 -55 -11 -95t-18 -77h-9q-13 32 -21 65.5t-18 83.5l-5 26l-11 54q-18 88 -24 128q-22 2 -34 2z" />
    <glyph glyph-name="z" unicode="z" horiz-adv-x="456" 
d="M438 453q-2 -30 -2 -45q0 -22 3 -43q-1 -2 -1 -5q-36 -40 -113 -113q-68 -66 -101 -101q11 1 35 1q30 0 45 -1l47 -1q41 0 83 8q0 -1 -0.5 -3.5t0.5 -3.5l1 -69q1 -24 1 -70l-5 -5q-142 -8 -371 -8q-33 0 -41 8l-6 96q0 32 33 70t97 94q70 64 97 95q-17 -1 -55 -1
q-54 -1 -89.5 -3.5t-66.5 -10.5q-11 6 -11 46q0 45 1 75.5t9 38.5l164 1q41 0 62 -1l61 -1q10 0 40 2q32 2 48 2l27 1q8 0 11 -1l-2 -8zM428 466l1 27q-5 1 -15 1q-22 0 -33 -1l-40 -1l-36 1l-272 -1q0 -15 -2 -49q-2 -32 -2 -49q0 -21 3 -41q29 6 59 8t75 3q11 0 37.5 1
t47.5 3l4 -8q-38 -46 -114 -116q-10 -9 -47.5 -45.5t-66.5 -71.5q-1 -5 -1 -15t2 -30q2 -22 2 -38l-1 -38h88q185 0 309 6q0 42 -1 63l-1 65q-34 -6 -69 -6l-48 1q-34 2 -50 2t-44 -2l-4 9q27 31 107 108q67 62 113 113q-3 15 -3 46q0 19 2 55z" />
    <glyph glyph-name="zcaron" unicode="&#x17e;" horiz-adv-x="456" 
d="M120.5 721.5q28.5 5.5 52.5 5.5q19 0 28.5 -6t21.5 -20q17 -19 28 -26l7 6q6 13 24.5 28.5t34.5 15.5q22 0 45 -3q8 -1 19 -2t26 -1l12 -1q3 0 3 -1l-8 -6q-25 -32 -52.5 -59.5t-71.5 -67.5l-39 -37h-6l-163 162l6 6q4 1 32.5 6.5zM248 558l34 32q45 42 69.5 66t47.5 53
l-18 -1q-9 0 -19 1.5t-14 1.5q-5 1 -11 2t-15 1q-15 0 -24.5 -6.5t-23.5 -20.5q-13 -17 -25 -23q-11 6 -27 26q-10 15 -22 23q-13 3 -31 3q-11 0 -19.5 -1t-16.5 -1h4l-40 -7zM438 453q-2 -30 -2 -45q0 -22 3 -43q-1 -2 -1 -5q-36 -40 -113 -113q-68 -66 -101 -101
q11 1 35 1q30 0 45 -1l47 -1q41 0 83 8q0 -1 -0.5 -3.5t0.5 -3.5l1 -69q1 -24 1 -70l-5 -5q-142 -8 -371 -8q-33 0 -41 8l-6 96q0 32 33 70t97 94q70 64 97 95q-17 -1 -55 -1q-54 -1 -89.5 -3.5t-66.5 -10.5q-11 6 -11 46q0 45 1 75.5t9 38.5l164 1q41 0 62 -1l61 -1
q10 0 40 2q32 2 48 2l27 1q8 0 11 -1l-2 -8zM428 466l1 27q-5 1 -15 1q-22 0 -33 -1l-40 -1l-36 1l-272 -1q0 -15 -2 -49q-2 -32 -2 -49q0 -21 3 -41q29 6 59 8t75 3q11 0 37.5 1t47.5 3l4 -8q-38 -46 -114 -116q-10 -9 -47.5 -45.5t-66.5 -71.5q-1 -5 -1 -15t2 -30
q2 -22 2 -38l-1 -38h88q185 0 309 6q0 42 -1 63l-1 65q-34 -6 -69 -6l-48 1q-34 2 -50 2t-44 -2l-4 9q27 31 107 108q67 62 113 113q-3 15 -3 46q0 19 2 55z" />
    <glyph glyph-name="ordfeminine" unicode="&#xaa;" horiz-adv-x="276" 
d="M246 495q0 -20 -6.5 -26t-34.5 -6q-13 0 -31 -3q-13 0 -13 24q-21 -21 -55 -21q-43 0 -65.5 42.5t-22.5 97.5q0 51 28 88.5t77 37.5q21 0 34 -13q1 1 0 2t-1 2q0 2 4 9q63 0 67 -1h17l2 -206v-27zM169 714q0 -8 -2 -12t-10 -4q-3 11 -15 16t-26 5q-41 0 -64.5 -35
t-23.5 -81q0 -51 20 -91t59 -40q16 0 31 7t24 19v1h0.5t0.5 1q3 0 9 -2q0 -6 -3 -12v-8l2 -4l63 1l1 119q1 39 1 118q-1 1 -1 4l-43 3l-23 2v-7zM160.5 654q6.5 -5 8.5 -17t2 -39q0 -65 -33 -65q-28 0 -41.5 18.5t-13.5 46.5q0 14 3 29q10 32 52 32q16 0 22.5 -5zM162 604
q0 25 -5 40q-11 6 -19 6q-12 0 -28 -8l-11 -11q-8 -16 -8 -33q0 -23 15 -38.5t32 -15.5q24 0 24 60z" />
    <glyph glyph-name="ordmasculine" unicode="&#xba;" horiz-adv-x="254" 
d="M205 610.5q30 -40.5 30 -110.5q0 -74 -28.5 -122.5t-84.5 -48.5q-45 0 -67 26t-27.5 61.5t-5.5 82.5q0 37 4 61t20 48q14 20 38.5 31.5t42.5 11.5q48 0 78 -40.5zM35 561.5q-5 -20.5 -5 -44.5l1 -45q0 -61 23 -97t71 -36q47 0 74 45.5t27 112.5q0 58 -25 101.5t-73 43.5
q-19 0 -43 -13.5t-30 -24.5l-1 -1q-14 -21 -19 -41.5zM94 556q7 27 34 27q22 0 28 -32t6 -56v1q0 -96 -35 -96q-25 0 -32.5 24.5t-7.5 60.5q0 44 7 71zM123 410q10 0 16 7q7 14 10.5 51t2.5 48q-1 5 -1.5 19.5t-5 23t-18.5 13.5h-4q-15 -3 -21 -19t-6 -48q0 -6 -0.5 -29.5
t3.5 -41t14 -22.5q6 -2 10 -2z" />
    <glyph glyph-name="zero" unicode="0" horiz-adv-x="513" 
d="M356.5 687q50.5 -29 85.5 -79q29 -43 40 -98t11 -122q0 -157 -54 -274.5t-188 -117.5q-54 0 -101.5 23t-74.5 65q-31 48 -40.5 109t-9.5 141v45q0 79 10 135t43 106q12 27 42 49t66 34.5t66 12.5q54 0 104.5 -29zM45.5 517q-10.5 -52 -10.5 -117q0 -29 2 -85q0 -14 1 -20
q1 -64 7.5 -108.5t28.5 -82.5q27 -45 77 -72.5t105 -27.5q53 0 97 28q77 49 103.5 138.5t26.5 203.5q0 73 -9.5 129t-39.5 100q-33 49 -80.5 76t-98.5 27q-44 0 -96 -25.5t-72 -64.5l-1 -1q-30 -46 -40.5 -98zM187 504q17 52 65 52q42 0 59 -47.5t17 -110.5q0 -35 -3 -71
q-2 -44 -2 -64q0 -36 -19 -71t-50 -35q-12 0 -25 7q-59 2 -59 220q0 68 17 120zM255 167q22 0 35.5 21.5t18.5 47t5 37.5q0 19 2 55q2 38 2 57q0 59 -12 110t-52 51q-35 0 -47.5 -21t-16.5 -58q-8 -74 -8 -114q0 -59 9.5 -115t37.5 -64h2l3 -1q10 -6 21 -6z" />
    <glyph glyph-name="one" unicode="1" horiz-adv-x="366" 
d="M187 -3.5q-29 3.5 -37 11.5q0 82 6 244t6 245q-9 -28 -19.5 -38.5t-26.5 -10.5q-8 0 -38.5 6t-55.5 16t-25 22q0 14 9.5 31t11.5 21q19 40 51 97t51 75l65 1q44 2 67 2q63 0 72 -9q4 -45 4 -104q0 -87 -6 -261t-6 -261q0 -33 3 -66q0 -14 -18 -19.5t-50 -5.5
q-35 0 -64 3.5zM309 220.5q3 74.5 4 97.5q7 135 7 233q0 16 -2 44t-2 41v35q0 23 -1 34q-16 0 -48 2q-30 2 -44 2l-50 -1q-16 -1 -48 -1q-15 -18 -29 -43.5t-19 -33.5q-28 -47 -43.5 -75.5t-26.5 -61.5v-4q10 -7 53 -20t62 -13q6 0 10.5 6.5t10.5 20.5q7 15 11.5 22t11.5 7
l5 -5v-2q3 -6 3 -33q0 -68 -3 -141.5t-4 -94.5q-7 -131 -7 -225q27 -6 56 -6q93 0 93 12q-3 33 -3 67q0 62 3 136.5z" />
    <glyph glyph-name="two" unicode="2" horiz-adv-x="498" 
d="M28 -5l-1 1l-2 5v2l-2 1h2v41q0 71 7 128t30 81q30 33 67 58.5t93 58.5q29 17 44.5 28t28 29t12.5 43q0 28 -14 49.5t-36 21.5q-38 0 -51.5 -36t-13.5 -83q-7 -7 -37.5 -10t-55.5 -3q-10 0 -32 2l-30 1q-5 5 -8.5 32t-3.5 46q0 52 20 100.5t57 82.5q26 24 71 33t87 9
q92 0 140.5 -36.5t63.5 -92.5t15 -133q0 -51 -20.5 -84.5t-50 -53t-77.5 -42.5q-49 -23 -76.5 -41.5t-41.5 -48.5q0 -4 -4 -15.5t-4 -17.5q0 -5 41 -5q33 0 103 2q68 2 102 2q8 -8 11.5 -31.5t3.5 -50.5q0 -23 -4 -34v-9q0 -13 3 -18q-1 -2 -1 -5l-1 -1l-4 -2
q-96 0 -168.5 -1t-120.5 -2q-62 -2 -94 -2h-45zM451 24q0 10 2 32l1 31q0 33 -7 53q-22 0 -66 -2l-65 -1h-99q-22 0 -22 15q0 29 15.5 50.5t39.5 36.5t67 37l58 31q51 30 72 65t21 90q0 129 -51 187t-147 58q-116 0 -162 -41q-37 -32 -54.5 -79t-17.5 -100q0 -12 1 -21
t2 -16q1 -5 2 -11.5t1 -15.5q8 -1 23 -2t26 -1q15 0 47 4q30 4 44 4q0 47 16.5 86t57.5 39q27 0 44.5 -26.5t17.5 -58.5q0 -35 -24.5 -58.5t-66.5 -47.5q-65 -38 -97.5 -60t-60.5 -55q-23 -26 -27.5 -69t-4.5 -109v-40q0 -17 -2 -25h41q31 0 93 2q47 1 118 2t166 1
q-2 4 -2 15z" />
    <glyph glyph-name="three" unicode="3" horiz-adv-x="492" 
d="M460 383l1 -91q0 -74 -8 -132t-31 -90q-53 -76 -178 -76q-56 0 -102.5 8.5t-74.5 36.5q-40 40 -40 114q0 52 -4 65l5 6q22 0 66 4q37 5 67 5q4 -5 10 -15q10 -22 33.5 -36.5t41.5 -14.5q24 0 39 17.5t15 40.5q0 26 -21.5 45t-63.5 19q-21 0 -44 -5q-15 8 -15 56
q0 21 3 39q2 22 2 32l-1 16l3 6q16 5 49 5q30 1 47 4.5t29.5 15t12.5 35.5q0 23 -15.5 37t-34.5 14q-25 0 -50.5 -17.5t-35.5 -39.5q-7 -7 -40 -7l-50 1q-16 1 -47 1q-7 6 -7 32l1 23q0 54 31 94.5t83 62t112 21.5q56 0 104.5 -18t78.5 -55.5t30 -93.5l-1 -48v-117z
M379.5 38.5q45.5 35.5 58.5 96t13 163.5l-1 86v113v42q0 83 -54.5 124.5t-142.5 41.5q-62 0 -112 -20.5t-79.5 -59t-29.5 -88.5l1 -45q25 0 38 -1l40 -1q24 0 46 3q12 24 39.5 42.5t55.5 18.5q24 0 41.5 -16.5t17.5 -44.5q0 -27 -13 -40.5t-31 -17.5t-50 -6q-33 -2 -47 -5
l1 -16q0 -18 -3 -36q-1 -7 -2 -16t-1 -22q0 -22 7 -39q26 4 43 4q45 0 70 -23t25 -60q0 -25 -15.5 -41t-47.5 -16q-27 0 -55 19.5t-35 44.5q-13 0 -29 -2t-22 -3q-32 -5 -55 -5q-11 0 -17 1q2 -12 3 -28t1 -22q2 -42 8.5 -69t27.5 -48v-2q28 -20 73.5 -31t93.5 -11
q93 0 138.5 35.5z" />
    <glyph glyph-name="four" unicode="4" horiz-adv-x="469" 
d="M457 328l-6 -145q-4 -8 -22 -8q-7 0 -14.5 1t-14.5 1t-11 -1q-4 -22 -6 -69q0 -19 -1 -29q-2 -16 -2 -25q-4 -32 -4 -49q0 -7 -23 -10.5t-55 -3.5q-31 0 -48 1t-23 1l-3 1l-1 1l-2 5v2q-1 0 -1 0.5v0.5h1q0 24 2 54t3 42l3 39v22.5t3 24.5l-77 1q-26 1 -78 1l-31 -1
q-19 0 -24 3l-2 4v-1q-6 13 -9.5 45.5t-3.5 65.5q0 51 43 110q79 146 181 297l-4 -7v-1l5 6q53 0 79 1l81 1l5 -5q-2 -21 -2 -62q-1 -10 -1 -31l-3 -91q-4 -100 -4 -151q0 -23 2 -34h2q4 1 14 1q44 0 52 -8zM377 357q0 60 4 162l3 93q0 23 1 34q0 36 1 53q-50 0 -75 -1
l-76 -1q-71 -105 -145 -233q-9 -15 -25 -47q-6 -10 -19.5 -35.5t-26.5 -44.5q-1 -6 -1 -35q0 -86 10 -105q17 -4 43 -4q22 0 62 2q36 2 52 2q50 0 58 -8q0 -32 -6 -94t-6 -93q63 -3 76 -3q38 0 59 7q0 17 4 49q0 8 2 24q1 9 1 28q2 50 7 74q4 4 8.5 5t10.5 1q10 0 19 -3
q15 0 23 3l6 136l-27 1q-9 1 -28 1l-6 -1q-9 5 -9 33zM217 318q-6 0 -28 -0.5t-38.5 2.5t-22.5 9q2 11 13 25.5t14 19.5l25 45q3 6 16.5 30.5t25 42.5t21.5 28q14 28 24 28l4 -2l1 -1l1 -3v-1l-3 -214q-4 -9 -53 -9zM231 487.5q-17 -30.5 -19 -34.5q-30 -48 -72 -121
q27 -4 69 -4q32 0 51 3l3 202q-15 -15 -32 -45.5z" />
    <glyph glyph-name="five" unicode="5" horiz-adv-x="503" 
d="M190 219q2 -3 5 -20t13 -27.5t32 -10.5q33 0 52.5 27.5t19.5 67.5q0 45 -26 70t-78 25q-21 0 -86 -5q-12 -1 -25 -2t-27 -1q-29 0 -37 8q0 115 -1 172l-1 172l5 6q107 0 213 3q35 1 88.5 2t125.5 1l5 -5v-1q2 -6 2 -34t-1.5 -57.5t-3.5 -35.5v-20q-4 -10 -46 -10l-56 1
q-30 0 -86 -2l-85 -1q0 -21 5 -32q30 6 61 6q126 0 174.5 -91.5t48.5 -224.5q0 -39 -5.5 -69.5t-22.5 -50.5q-78 -95 -212 -95q-52 0 -99.5 17.5t-78 52.5t-30.5 85q0 81 9 81q35 0 62 1t45 2l36 2l5 -5v-2zM48 211q0 -11 -2 -31q-3 -19 -3 -39q0 -48 28 -80.5t72.5 -48.5
t92.5 -16q53 0 103.5 17t81.5 46q32 30 41 67.5t9 97.5q0 116 -48 199t-166 83q-11 0 -18.5 -1t-13.5 -2q-15 -3 -30 -3q-8 0 -11 15t-3 28v3l5 6l87 1q58 2 88 2l49 -1q26 0 45 4q0 22 2 68t2 71q-104 0 -209 -3q-35 -1 -87 -2t-122 -1l1 -169q1 -55 1 -167q28 0 86 2t87 2
q54 0 79.5 -30.5t25.5 -79.5q0 -39 -23 -68t-61 -29q-24 0 -38 17t-18 45l-1 2z" />
    <glyph glyph-name="six" unicode="6" horiz-adv-x="503" 
d="M453 76.5q-34 -43.5 -90.5 -64.5t-124.5 -21q-91 0 -137.5 54.5t-60 130t-13.5 171.5q0 47 3 93l1 30q1 42 3 68.5t9 40.5q7 37 49.5 69t86.5 47q56 18 107 18q57 0 98.5 -25t63.5 -67t22 -92q0 -19 -1.5 -31t-7.5 -18q-44 -7 -135 -7l-5 6q0 30 -14 53.5t-42 23.5
q-60 0 -60 -115q0 -29 3 -80l1 -27q60 30 121 30q40 0 74 -15.5t56 -47.5q13 -19 18 -41.5t8 -56.5l1 -20q0 -63 -34 -106.5zM399 337.5q-39 15.5 -76 15.5q-64 0 -116 -32q-1 0 -8 5q0 21 -3 48q0 11 -1.5 33.5t-1.5 38.5q0 61 22.5 91t51.5 30q25 0 44 -24t20 -60h48t77 6
q6 23 6 45q0 48 -24 87t-66.5 61t-93.5 22q-53 0 -105 -19.5t-87.5 -57.5t-40.5 -89l-2 -32q-7 -93 -7 -161q0 -144 40.5 -244t162.5 -100q102 0 170 46t68 135l-1 20q-3 29 -8 50.5t-16 43.5q-14 26 -53 41.5zM259 159q-19 14 -19 40q0 23 25 39t54 16q48 0 48 -50
q0 -27 -20 -43t-46 -16q-23 0 -42 14zM349.5 225.5q-5.5 11.5 -13 16.5t-17.5 5q-24 0 -45.5 -17.5t-21.5 -34.5q0 -16 12.5 -28t35.5 -12t40 12.5t17 35.5v8q-2 3 -7.5 14.5z" />
    <glyph glyph-name="seven" unicode="7" horiz-adv-x="476" 
d="M21 640v48l1 19v-1l5 6q69 0 138 3q92 2 137 2q85 0 161 -7l4 -5l1 -142q-33 -78 -73.5 -155t-100.5 -181q-79 -140 -121 -222l-5 -3q-16 0 -28.5 -1t-21.5 -2q-36 -4 -54 -4q-52 0 -52 14q39 84 119 250q90 185 141 297q-56 0 -126 5q-82 4 -124 4l-5 6q4 31 4 69z
M143 571q73 -5 133 -5l3 6v-6l5 -7q-49 -112 -157 -334q-59 -119 -104 -215q20 -6 42 -6q16 0 52 4q32 4 48 4q42 84 124 228q62 111 99.5 181t69.5 145l-1 134q-64 6 -158 6q-46 0 -134 -2t-133 -2q-1 -16 -1 -48q0 -53 -3 -79q37 0 115 -4z" />
    <glyph glyph-name="eight" unicode="8" horiz-adv-x="490" 
d="M446.5 277q16.5 -40 16.5 -92q0 -92 -58 -148t-162 -56q-72 0 -122.5 29t-76.5 78t-26 107q0 44 16 85.5t46 71.5q-26 26 -39.5 65.5t-13.5 78.5q0 62 27.5 119.5t76.5 79.5q28 12 57.5 15.5t73.5 3.5q206 0 206 -201l1 -16q0 -44 -20.5 -82.5t-55.5 -69.5
q37 -28 53.5 -68zM398.5 44.5q55.5 53.5 55.5 140.5q0 53 -17.5 87.5t-55.5 72.5l2 5q48 39 63 87q1 5 5.5 26.5t6.5 25.5v38q-3 9 -8.5 33t-5.5 39q-34 107 -196 107q-106 0 -158 -55.5t-52 -149.5q0 -44 13.5 -82.5t39.5 -63.5v-6q-31 -31 -47 -71t-16 -84
q0 -67 29 -112.5t78 -68t109 -22.5q99 0 154.5 53.5zM204.5 448.5q-15.5 16.5 -15.5 42.5l1 15l1 1v0l1 1q0 11 20.5 20.5t32.5 9.5q21 0 36 -17t15 -39q0 -21 -16 -35.5t-37 -14.5q-23 0 -38.5 16.5zM199 492q0 -17 12 -33.5t34 -16.5q17 0 28.5 12t11.5 28q0 15 -9 29
t-26 14q-14 0 -23 -4t-25 -14l-2 -2zM192 508v1v-1zM192 508l-1 -1v1h1zM288.5 265q18.5 -16 18.5 -44q0 -5 -1 -7v-3l-2 -3q0 -19 -17.5 -30.5t-41.5 -11.5q-27 0 -46 14.5t-19 41.5q0 29 18 44t44 15q28 0 46.5 -16zM296 229q-14 26 -26.5 34.5t-42.5 8.5
q-15 -5 -22.5 -16t-14.5 -32q0 -23 14.5 -35t36.5 -12q23 0 42 10l2 2q3 6 5.5 13t6.5 13l-1 -1q0 3 1 4v7q-1 1 -1 4z" />
    <glyph glyph-name="nine" unicode="9" horiz-adv-x="513" 
d="M482 246q0 -110 -43.5 -182.5t-170.5 -72.5q-67 0 -127.5 24.5t-87.5 66.5q-19 29 -23.5 56.5t-4.5 73.5q0 10 5 15q30 0 62 3q42 2 62 2q32 0 38 -6q7 -31 41 -44h20q30 10 37.5 38t7.5 74q-34 -14 -72 -14q-53 0 -100 27.5t-75 75.5t-28 105q0 39 4 67t17 53
q29 54 89 79.5t129 25.5q60 0 96 -5.5t69 -30.5q41 -32 48 -126q4 -49 5 -105.5t1 -71.5v-51zM431.5 69.5q40.5 69.5 40.5 176.5l-1 76v51q0 15 -1 72t-5 105q-6 78 -44 115.5t-114 37.5q-75 0 -126.5 -9t-90.5 -44q-30 -27 -43.5 -61.5t-13.5 -79.5q0 -66 24.5 -115
t68.5 -76t102 -27q36 0 70 14l2 1l6 -2l1 -1l1 -3q0 -51 -11 -90.5t-50 -39.5q-21 0 -40.5 14.5t-23.5 34.5q-21 3 -42 3q-18 0 -52 -2q-27 -3 -54 -3q-2 -11 -2 -33q0 -58 32.5 -99.5t86.5 -63t119 -21.5q120 0 160.5 69.5zM307.5 538q22.5 -14 22.5 -42q0 -6 -3 -12v-4
l-2 -4q0 -21 -17 -33.5t-45 -12.5q-35 0 -51 18.5t-16 48.5q0 25 18.5 40t45.5 15q25 0 47.5 -14zM317 483q0 4 1 5q0 26 -17.5 41.5t-41.5 15.5q-17 0 -35.5 -11t-18.5 -29q0 -30 14 -48.5t42 -18.5q16 0 29.5 6.5t19.5 18.5q1 5 3.5 11t4.5 10z" />
    <glyph glyph-name="uni00B9" unicode="&#xb9;" horiz-adv-x="187" 
d="M157 590q0 -41 -4 -125q-1 -21 -2 -51.5t-1 -71.5v-2q0 -7 -11 -10t-23 -3q-32 0 -44 12q0 25 1 58t2 51q1 14 2 36.5t1 51.5q-9 -12 -17 -12q-12 0 -30.5 5.5t-23.5 15.5q0 28 52 98l-1 -2v-1l5 6l85 -1q9 -18 9 -55zM60 644v-0.5t-1 -0.5zM144 472q1 21 2 53t1 74
q0 33 -11 37q-2 0 -8 -0.5t-22 -0.5q-22 0 -40 1q-49 -68 -49 -90q7 -3 21.5 -6.5t20.5 -5.5h5q1 1 5.5 10.5t11.5 13.5l7 -5q0 -24 -1 -56.5t-2 -49.5q-3 -52 -3 -105q7 -2 22 -2l34 1l2 1v1q0 43 4 129z" />
    <glyph glyph-name="uni00B2" unicode="&#xb2;" horiz-adv-x="264" 
d="M27 334q0 52 3 74t18 42t51 41q26 14 41.5 27.5t15.5 29.5q0 11 -6 21l-4 4l-7 3q-8 0 -16 -4l-6 -6q-9 -18 -9 -41q-5 -9 -41 -9q-18 0 -26 3t-9.5 8.5t-1.5 19.5q0 31 6 52.5t28 41.5q13 12 35 16t40 4q54 0 78 -30.5t24 -98.5q0 -27 -16 -42t-48 -31
q-25 -12 -40.5 -24t-21.5 -30v-3l109 1q6 -6 8 -12t2 -15q0 -24 -6 -45h-20q-26 0 -78 -2l-77 -1h-21zM220 344q0 13 3 23v8q0 12 -3 18l-108 -1l-3 1l-2 2l-2 5q0 24 14.5 36.5t44.5 26.5q34 17 50 31.5t16 44.5q-1 6 -3.5 39t-23 54.5t-58.5 18.5q-53 0 -80 -25t-27 -72
q0 -20 4.5 -24t25.5 -4q20 0 30 2q0 21 9 40t28 19q13 0 21.5 -13.5t8.5 -29.5q0 -17 -14.5 -29.5t-46.5 -33.5q-36 -20 -52 -37q-15 -16 -15 -59l1 -34q0 -9 -1 -13h16l54 1q76 2 114 2z" />
    <glyph glyph-name="uni00B3" unicode="&#xb3;" horiz-adv-x="254" 
d="M45.5 437.5q16.5 1.5 43.5 1.5q6 -6 14 -15t14 -11t17 -2q7 3 11 9.5t4 13.5q0 13 -12 19t-25 6q-10 0 -15 -1h-1q-13 0 -13 27q0 10 1 19.5t1 20.5l3 6q5 3 17 3q29 0 36.5 5t7.5 22q-6 14 -18 14q-10 0 -21.5 -8t-21.5 -19q-13 -4 -24 -4q-32 0 -41 9q-4 17 -4 23
q0 38 34 61t76 21q43 -1 65 -15t28.5 -38.5t6.5 -67.5l-1 -71q0 -48 -7.5 -77t-32.5 -46.5t-77 -17.5q-15 0 -35.5 5.5t-31.5 16.5q-14 13 -17.5 31.5t-3.5 51.5q6 6 22.5 7.5zM73 340.5q20 -6.5 45 -6.5q62 0 81 33.5t19 91.5l-1 141q-10 23 -35 36t-55 13q-39 0 -67 -22
t-28 -62q1 -3 1 -8h46q9 4 19 13q18 16 31 16t21.5 -10.5t8.5 -23.5q0 -19 -14.5 -24t-49.5 -5q0 -9 -1 -18.5t-1 -20.5q0 -8 3 -16q7 1 22 1q20 0 30 -10.5t10 -24.5t-8 -24.5t-21 -10.5t-25.5 9t-17.5 21q-8 0 -22 -2q-12 -3 -23 -3l-7 1q2 -9 2.5 -15t0.5 -10q0 -2 1 -15
t7 -25l9 -9h-1q0 -4 20 -10.5z" />
    <glyph glyph-name="onehalf" unicode="&#xbd;" horiz-adv-x="602" 
d="M205 -5.5q-7 -2.5 -20 -2.5q-55 0 -65 10q28 84 88 250q59 165 91.5 260t60.5 198q5 1 35 3q24 0 34 2q12 0 19.5 -2t13.5 -8q0 -9 -5 -20t-7 -18l-60 -177l-37 -111q-84 -250 -132 -373l-2 -2q-7 -7 -14 -9.5zM378 484q48 146 73 218q-9 3 -19 3q-9 0 -23 -2t-23 -2
q-13 0 -18 1q-28 -100 -59.5 -193t-89.5 -257q-51 -141 -87 -246l76 -1q2 2 4 6q69 177 166 473zM162.5 299.5q-12.5 -3.5 -22.5 -3.5q-16 0 -32.5 3t-21.5 8q0 43 1 75t2 54q1 17 2 48.5t1 54.5q-6 -9 -9.5 -13t-10.5 -4q-13 0 -35 6.5t-27 16.5q0 17 19.5 50.5t34.5 51.5
q1 4 4.5 9t6.5 5l87 -1h10q9 -20 9 -62q0 -41 -4 -117q-5 -67 -5 -129q0 -23 3 -38v-4q0 -7 -12.5 -10.5zM162 352q0 60 5 123q4 74 4 112q0 32 -3 63q-2 1 -23 1h-68q-24 -24 -57 -103v-1q30 -15 56 -15l2 2q2 3 5.5 12.5t10.5 13.5l7 -5v-1q3 -12 3 -26q0 -40 -4 -112
q-4 -70 -4 -105q7 -1 20 -2t23 -1q5 0 11 1t11 1l4 2q-3 17 -3 40zM352 8q-1 8 -1 17q0 37 3.5 65t16.5 41q31 31 77 56q25 15 35 24.5t10 23.5q0 11 -5 22.5t-17 11.5q-18 0 -24.5 -17t-6.5 -38q-3 -6 -21 -9t-33 -3q-22 0 -27 8t-5 37q0 67 34 92q36 26 83 26
q52 0 82.5 -32.5t30.5 -93.5q0 -30 -10.5 -49.5t-25 -30t-39.5 -22.5q-27 -13 -41 -24t-21 -30v-4q10 -1 30 -1l45 1q15 1 45 1q11 -11 11 -39q0 -14 -3 -22v-9l2 -3q-1 -2 -1 -5l-1 -1l-4 -2h-28l-81 -1q-28 -1 -82 -1h-23q-4 3 -5 11zM564 15q0 7 1.5 14.5t1.5 16.5
q0 15 -4 24q-54 -2 -80 -2l-26 -1q-8 0 -12.5 2t-7.5 8q0 25 17 39.5t50 29.5q5 3 16 8t17 9q23 15 29.5 35.5t6.5 54.5q-2 2 -2 10q0 41 -24 64.5t-65 25.5q-58 0 -89 -26.5t-31 -85.5q0 -16 6 -21t29 -5q17 0 33 3q0 23 9.5 42.5t30.5 19.5q14 0 24 -12.5t10 -29.5
q0 -23 -16 -37t-45 -29l-11 -5.5t-14 -8.5q-33 -22 -45 -45.5t-12 -71.5l1 -34h18q122 2 185 2q-1 2 -1 6z" />
    <glyph glyph-name="onequarter" unicode="&#xbc;" horiz-adv-x="595" 
d="M390 490l-37 -111q-84 -250 -132 -373l-2 -2q-7 -7 -14 -9.5t-20 -2.5q-55 0 -65 10q28 84 88 250q59 165 91.5 260t60.5 198l8 2l-1 1q4 -1 13 -1t25 2l24 1q12 0 19.5 -2t13.5 -8q0 -9 -5 -20t-7 -18zM366 713h1h-1zM378 484q48 146 73 218q-9 3 -19 3q-9 0 -23 -2
t-23 -2q-13 0 -18 1q-28 -100 -59.5 -193t-89.5 -257q-51 -141 -87 -246l76 -1q2 2 4 6q69 177 166 473zM107.5 299q-16.5 3 -21.5 8q0 43 1 75t2 54q1 17 2 48.5t1 54.5q-6 -9 -9.5 -13t-10.5 -4q-13 0 -35 6.5t-27 16.5q0 17 19.5 50.5t34.5 51.5q1 4 4.5 9t6.5 5l97 -1
q9 -20 9 -62q0 -41 -4 -117q-5 -67 -5 -129q0 -23 3 -38v-4q0 -7 -12.5 -10.5t-22.5 -3.5q-16 0 -32.5 3zM83.5 546.5q3.5 9.5 10.5 13.5q6 -6 8 -13t2 -19q0 -40 -4 -112q-4 -70 -4 -105q7 -1 20 -2t23 -1q19 0 26 4q-3 17 -3 40q0 60 5 123q4 74 4 112q0 32 -3 63
q-2 1 -23 1h-68q-24 -24 -57 -103v-1q31 -16 58 -13q2 3 5.5 12.5zM580 180l-3 -76q-8 -5 -14 -6.5t-15 -0.5q-7 -51 -7 -91q0 -5 -11 -8t-25 -3q-22 0 -33 2t-16 7l1 101l-4 1h-93l-3 1l-1 1q-8 8 -8 46q0 23 5 35.5t18 33.5q8 9 13 19l43 65l33 50l4 3h22q8 3 20 3
q37 0 44 -7l-1 -54q-2 -40 -2 -60q0 -30 3 -54l4 1q15 0 26 -9zM570 175q-21 0 -26 6t-5 25q0 4 0.5 26t0.5 119l-73 -1q-11 -18 -35 -52q-7 -11 -17.5 -26t-22.5 -35q-4 -6 -13.5 -20.5t-15 -27t-5.5 -21.5v-22t5 -30l29 1q22 2 33 2q31 0 42 -9l-1 -102l37 -1q10 0 28 2
q0 91 13 98q9 0 23 2zM487 253v-1q-2 -48 -2 -71q-7 -7 -39 -7q-7 0 -12 1.5t-10 6.5q2 7 27 41.5t31 34.5zM476 241q-22 -27 -39 -56l22 -1q6 0 16 2q1 18 1 55z" />
    <glyph glyph-name="threequarters" unicode="&#xbe;" horiz-adv-x="626" 
d="M423 490l-37 -111q-84 -250 -132 -373l-2 -2q-7 -7 -14 -9.5t-20 -2.5q-55 0 -65 10q28 84 88 250q59 165 91.5 260t60.5 198l8 2l-1 1q4 -1 13 -1t25 2l24 1q12 0 19.5 -2t13.5 -8q0 -9 -5 -20t-7 -18zM399 713h1h-1zM411 484q48 146 73 218q-9 3 -19 3q-9 0 -23 -2
t-23 -2q-13 0 -18 1q-28 -100 -59.5 -193t-89.5 -257q-51 -141 -87 -246l76 -1q2 2 4 6q69 177 166 473zM234.5 368q-8.5 -34 -35 -53.5t-78.5 -19.5q-25 0 -46.5 6.5t-33.5 18.5q-15 15 -19 34t-4 57q10 10 72 10q6 -6 13.5 -15t15.5 -13t21 -4q10 5 13 12t3 19
q-8 24 -40 24q-7 0 -21 -2q-11 6 -11 32q0 10 1.5 20t1.5 21l3 6q8 3 26 3q22 0 32 5l6 6q2 3 2 12q0 11 -4 18l-2 2q-7 3 -16 3q-12 0 -20 -5.5t-15 -12.5l-10 -10h-4q-8 -4 -21 -4q-37 0 -46 9l2 30q0 40 36 62.5t78 22.5t75 -21.5t33 -63.5l-1 -33q0 -20 1 -32l1 -54
q0 -56 -8.5 -90zM195 323.5q25 18.5 32 52t7 92.5q0 29 -2 59q-1 10 -1 23l1 31q0 34 -30 52t-71 18q-48 0 -76 -23t-28 -67q1 -4 1 -10h53q6 4 18 13q8 8 16 12.5t20 4.5q14 0 23 -8t9 -22q0 -19 -10 -25.5t-29 -10.5q-17 -3 -25.5 -8t-8.5 -19v-12q0 -17 3 -24q12 2 19 2
q25 0 37.5 -11.5t12.5 -27.5q0 -15 -9.5 -26t-23.5 -11q-11 0 -25.5 8.5t-21.5 24.5q-8 0 -22 -2q-24 -2 -35 -2l2 -23q0 -19 3 -32.5t14 -24.5t30 -16.5t42 -5.5q50 0 75 18.5zM610 104l-4 -4h1q-7 -4 -17 -4l-9 1q-7 -51 -7 -91q0 -5 -11 -8t-25 -3q-22 0 -33 2t-16 7
l1 101l-4 1h-93l-3 1l-1 1q-8 8 -8 46q0 23 5 35.5t18 33.5q8 9 13 19l43 65l33 50l4 3l42 3q37 0 44 -7l-1 -54q-2 -40 -2 -60q0 -30 3 -54q2 1 6 1q12 0 24 -9zM603 175q-21 0 -26 6t-5 25l1 28v117l-73 -1q-11 -18 -35 -52q-7 -11 -17.5 -26t-22.5 -35q-3 -5 -13.5 -21.5
t-16 -32.5t-5.5 -35q0 -22 6 -32l29 1q22 2 33 2q20 0 33 -4h4l5 -5l-1 -102l37 -1q10 0 28 2q0 91 13 98q9 0 23 2zM520 253v-1v-10v-21q0 -32 -7 -45h-1q-13 -3 -30 -3q-11 0 -22 3l-3 6q2 7 27 41.5t31 34.5zM509 241q-22 -27 -39 -56l22 -1q6 0 16 2q1 18 1 55z" />
    <glyph glyph-name="oneeighth" unicode="&#x215b;" horiz-adv-x="588" 
d="M390 490l-37 -111q-84 -250 -132 -373l-2 -2q-7 -7 -14 -9.5t-20 -2.5q-55 0 -65 10q28 84 88 250q59 165 91.5 260t60.5 198l8 2l-1 1q4 -1 13 -1t25 2l24 1q12 0 19.5 -2t13.5 -8q0 -9 -5 -20t-7 -18zM366 713h1h-1zM378 484q48 146 73 218q-9 3 -19 3q-9 0 -23 -2
t-23 -2q-13 0 -18 1q-28 -100 -59.5 -193t-89.5 -257q-51 -141 -87 -246l76 -1q2 2 4 6q69 177 166 473zM107.5 299q-16.5 3 -21.5 8q0 43 1 75t2 54q1 17 2 48.5t1 54.5q-6 -9 -9.5 -13t-10.5 -4q-13 0 -35 6.5t-27 16.5q2 9 15 38.5t27 53.5t23 24l87 -1h10q9 -20 9 -62
q0 -41 -4 -117q-5 -67 -5 -129q0 -23 3 -38v-4q0 -7 -12.5 -10.5t-22.5 -3.5q-16 0 -32.5 3zM83.5 547q4.5 10 10.5 13q6 1 8 -9.5t2 -22.5q0 -40 -4 -112q-4 -70 -4 -105q7 -1 20 -2t23 -1q5 0 11 1t11 1l4 2q-3 17 -3 40q0 60 5 123q4 74 4 112q0 32 -3 63q-2 1 -23 1h-68
q-24 -24 -57 -103v-1q30 -15 56 -15q3 5 7.5 15zM537 177q15 -15 22.5 -34.5t7.5 -40.5q0 -51 -27 -78.5t-70 -27.5q-48 0 -75.5 30.5t-27.5 76.5q0 19 6 41.5t19 35.5q-22 28 -22 73q0 48 25.5 79t72.5 31q46 0 73 -29.5t27 -83.5q0 -42 -31 -73zM527 173v8q31 33 31 68v2
q0 42 -21 71.5t-67 29.5q-41 0 -66.5 -30t-25.5 -71q0 -39 25 -68v-6q-25 -25 -25 -75q0 -47 25 -71.5t62 -24.5t65 24t28 64q0 45 -31 79zM493 288q13 -12 13 -31q0 -21 -11 -32t-24 -11q-15 0 -27 12.5t-12 31.5q0 4 2 14q3 14 11 21t19 7q16 0 29 -12zM489.5 237.5
q5.5 8.5 5.5 18.5q0 17 -14 31l-9 3q-11 0 -18.5 -4t-9.5 -17q-2 -8 -2 -11q0 -9 8 -25l5 -5l9 -3h10q10 4 15.5 12.5zM489.5 135q12.5 -13 12.5 -31q0 -19 -11 -30.5t-22 -11.5q-15 0 -27 15t-12 35q0 4 2 14l1 1q10 21 29 21q15 0 27.5 -13zM486 84.5q5 8.5 5 18.5
q0 18 -15 33l-9 3h-9l-8 -4l-5 -5l-3 -7q-2 -8 -2 -13q0 -12 5.5 -22.5t16.5 -14.5h9q10 3 15 11.5z" />
    <glyph glyph-name="threeeighths" unicode="&#x215c;" horiz-adv-x="624" 
d="M432 490l-37 -111q-84 -250 -132 -373l-2 -2q-7 -7 -14 -9.5t-20 -2.5q-55 0 -65 10q28 84 88 250q59 165 91.5 260t60.5 198l8 2l-1 1q4 -1 13 -1t25 2l24 1q12 0 19.5 -2t13.5 -8q0 -9 -5 -20t-7 -18zM408 713h1h-1zM420 484q48 146 73 218q-9 3 -19 3q-9 0 -23 -2
t-23 -2q-13 0 -18 1q-28 -100 -59.5 -193t-89.5 -257q-51 -141 -87 -246l76 -1q2 2 4 6q69 177 166 473zM231.5 368q-8.5 -34 -35 -53.5t-78.5 -19.5q-25 0 -46.5 6.5t-33.5 18.5q-15 15 -19 34t-4 57q10 10 72 10q6 -6 13.5 -15t15.5 -13t21 -4q10 5 13 12t3 19
q-8 24 -40 24q-7 0 -21 -2q-11 6 -11 32q0 10 1.5 20t1.5 21l3 6q8 3 26 3q22 0 32 5l6 6q2 3 2 12q0 11 -4 18l-2 2q-8 3 -16 3q-12 0 -20 -5.5t-15 -12.5l-10 -10h-4q-8 -4 -21 -4q-37 0 -46 9v9q-3 9 -3 18q0 27 18.5 47t46.5 30.5t54 10.5q42 0 75 -21.5t33 -63.5
l-1 -33q0 -20 1 -32l1 -54q0 -56 -8.5 -90zM192 323.5q25 18.5 32 52t7 92.5q0 29 -2 59q-1 10 -1 23l1 31q0 34 -30 52t-71 18q-48 0 -76 -23t-28 -67q1 -4 1 -10h53q6 4 18 13q8 8 16 12.5t20 4.5q14 0 23 -8t9 -22q0 -19 -10 -25.5t-29 -10.5q-17 -3 -25.5 -8t-8.5 -19
v-12q0 -17 3 -24q12 2 19 2q25 0 37.5 -11.5t12.5 -27.5q0 -15 -9.5 -26t-23.5 -11q-11 0 -26 9t-20 24q-8 0 -24 -2q-22 -2 -34 -2l2 -23q0 -19 3 -32.5t14 -24.5t30 -16.5t42 -5.5q50 0 75 18.5zM579 177q15 -15 22.5 -34.5t7.5 -40.5q0 -51 -27 -78.5t-70 -27.5
q-48 0 -75.5 30.5t-27.5 76.5q0 19 6 41.5t19 35.5q-22 28 -22 73q0 48 25.5 79t72.5 31q46 0 73 -29.5t27 -83.5q0 -42 -31 -73zM569 173v8q31 33 31 68v2q0 42 -21 71.5t-67 29.5q-41 0 -66.5 -30t-25.5 -71q0 -39 25 -68v-6q-25 -25 -25 -75q0 -47 25 -71.5t62 -24.5
t65 24t28 64q0 45 -31 79zM535 288q13 -12 13 -31q0 -21 -11 -32t-24 -11q-15 0 -27 12.5t-12 31.5q0 4 2 14q3 14 11 21t19 7q16 0 29 -12zM531.5 237q5.5 9 5.5 19q0 17 -14 31l-9 3q-11 0 -18.5 -4t-9.5 -17q-2 -8 -2 -11q0 -9 8 -25l5 -5l9 -3h10q10 3 15.5 12z
M531.5 135q12.5 -13 12.5 -31q0 -19 -11 -30.5t-22 -11.5q-15 0 -27 15t-12 35q0 4 2 14l1 1q10 21 29 21q15 0 27.5 -13zM528 84.5q5 8.5 5 18.5q0 18 -15 33l-9 3h-9l-8 -4l-5 -5l-3 -7q-2 -8 -2 -13q0 -12 5.5 -22.5t16.5 -14.5h9q10 3 15 11.5z" />
    <glyph glyph-name="fiveeighths" unicode="&#x215d;" horiz-adv-x="625" 
d="M248 -5.5q-7 -2.5 -20 -2.5q-55 0 -65 10q28 84 88 250q59 165 91.5 260t60.5 198q5 1 35 3q24 0 34 2q12 0 19.5 -2t13.5 -8q0 -9 -5 -20t-7 -18l-60 -177l-37 -111q-84 -250 -132 -373l-2 -2q-7 -7 -14 -9.5zM421 484q48 146 73 218q-9 3 -19 3q-9 0 -23 -2t-23 -2
q-13 0 -18 1q-28 -100 -59.5 -193t-89.5 -257q-51 -141 -87 -246l76 -1q2 2 4 6q69 177 166 473zM110.5 400q5.5 -10 15.5 -10q15 5 24.5 19t9.5 29q0 21 -16.5 31.5t-45.5 10.5q-21 0 -40 -3q-24 -2 -32 -2l-5 6q1 26 0.5 46t-0.5 34q-1 18 -1 53q0 32 1 47l216 -1
q6 -3 6 -26q0 -16 -1 -29t-2 -23q-3 -7 -18 -8.5t-45 -1.5q-40 0 -72 2q1 -3 1 -10v-1q13 3 27 3q51 0 82.5 -37.5t31.5 -94.5q0 -42 -7 -70t-33.5 -47t-81.5 -19q-48 0 -76.5 24.5t-28.5 75.5l3 22l82 2q0 -12 5.5 -22zM104 389.5q-9 8.5 -10 22.5l-61 -3q-1 -5 -2 -12.5
t-1 -18.5q0 -34 29 -52.5t63 -18.5q50 0 84 25t34 76q0 64 -24.5 105t-77.5 41l-34 -1q-5 0 -7.5 9.5t-2.5 21.5q34 0 51 1l54 1h31q-1 7 -1 17q0 8 3 47l-102 -1q-33 -1 -100 -1l1 -163l40 1q26 2 41 2q28 0 42.5 -15.5t14.5 -41.5q0 -27 -19 -42q-11 -8 -24 -8t-22 8.5z
M602.5 142.5q7.5 -19.5 7.5 -40.5q0 -51 -27 -78.5t-70 -27.5q-48 0 -75.5 30.5t-27.5 76.5q0 19 6 41.5t19 35.5q-22 28 -22 73q0 48 25.5 79t72.5 31q46 0 73 -29.5t27 -83.5q0 -42 -31 -73q15 -15 22.5 -34.5zM580 322.5q-21 29.5 -67 29.5q-41 0 -66.5 -30t-25.5 -71
q0 -39 25 -68v-6q-25 -25 -25 -75q0 -47 25 -71.5t62 -24.5t65 24t28 64q0 45 -31 79v8q31 33 31 68v2q0 42 -21 71.5zM536 288q13 -12 13 -31q0 -21 -11 -32t-24 -11q-15 0 -27 12.5t-12 31.5q0 4 2 14q3 14 11 21t19 7q16 0 29 -12zM493 233l5 -5l9 -3h10q11 4 16 12.5
t5 18.5q0 17 -14 31l-9 3q-11 0 -18.5 -4t-9.5 -17q-2 -8 -2 -11q0 -9 8 -25zM505 148q15 0 27.5 -13t12.5 -31q0 -19 -11 -30.5t-22 -11.5q-15 0 -27 15t-12 35q0 4 2 14l1 1q10 21 29 21zM488.5 87.5q5.5 -10.5 16.5 -14.5h9q10 3 15 11.5t5 18.5q0 18 -15 33l-9 3h-9
l-8 -4l-5 -5l-3 -7q-2 -8 -2 -13q0 -12 5.5 -22.5z" />
    <glyph glyph-name="seveneighths" unicode="&#x215e;" horiz-adv-x="616" 
d="M239 -5.5q-7 -2.5 -20 -2.5q-55 0 -65 10q28 84 88 250q59 165 91.5 260t60.5 198q5 1 35 3q24 0 34 2q12 0 19.5 -2t13.5 -8q0 -9 -5 -20t-7 -18l-60 -177l-37 -111q-84 -250 -132 -373l-2 -2q-7 -7 -14 -9.5zM412 484q48 146 73 218q-9 3 -19 3q-9 0 -23 -2t-23 -2
q-13 0 -18 1q-28 -100 -59.5 -193t-89.5 -257q-51 -141 -87 -246l76 -1q2 2 4 6q69 177 166 473zM20 628q10 10 61 10l56 -1h33q59 0 63 -9q-1 -5 -1 -15l1 -20q1 -7 1 -21q-1 -17 -11.5 -37t-13.5 -26q-25 -51 -59 -108q-48 -88 -54 -100q-11 -6 -54 -6h-5q-21 0 -21 10
q11 26 49 101q48 95 70 150l-119 1l1 9q3 20 3 62zM60 569q37 0 59.5 -1.5t27.5 -8.5q-21 -54 -75 -160l-19.5 -39t-25.5 -54q5 -2 16 -2q9 0 25 2q14 2 20 2q19 39 61 115q42 75 74 141v60q-35 4 -79 4q-38 0 -114 -4q0 -36 -2 -54q7 -1 32 -1zM593.5 142.5
q7.5 -19.5 7.5 -40.5q0 -51 -27 -78.5t-70 -27.5q-48 0 -75.5 30.5t-27.5 76.5q0 19 6 41.5t19 35.5q-22 28 -22 73q0 48 25.5 79t72.5 31q46 0 73 -29.5t27 -83.5q0 -42 -31 -73q15 -15 22.5 -34.5zM571 322.5q-21 29.5 -67 29.5q-41 0 -66.5 -30t-25.5 -71q0 -39 25 -68
v-6q-25 -25 -25 -75q0 -47 25 -71.5t62 -24.5t65 24t28 64q0 45 -31 79v8q31 33 31 68v2q0 42 -21 71.5zM527 288q13 -12 13 -31q0 -21 -11 -32t-24 -11q-15 0 -27 12.5t-12 31.5q0 4 2 14q3 14 11 21t19 7q16 0 29 -12zM484 233l5 -5l9 -3h10q11 4 16 12.5t5 18.5
q0 17 -14 31l-9 3q-11 0 -18.5 -4t-9.5 -17q-2 -8 -2 -11q0 -9 8 -25zM496 148q15 0 27.5 -13t12.5 -31q0 -19 -11 -30.5t-22 -11.5q-15 0 -27 15t-12 35q0 4 2 14l1 1q10 21 29 21zM479.5 87.5q5.5 -10.5 16.5 -14.5h9q10 3 15 11.5t5 18.5q0 18 -15 33l-9 3h-9l-8 -4
l-5 -5l-3 -7q-2 -8 -2 -13q0 -12 5.5 -22.5z" />
    <glyph glyph-name="asterisk" unicode="*" horiz-adv-x="367" 
d="M297 514.5q8 -10.5 14 -17.5q27 -39 42 -47q0 -13 -9 -22.5t-37 -30.5l-50 -39q-4 -2 -6 -2q-2 1 -4 5l2 -4q-20 20 -41 38l-30 28q-10 -9 -21 -21q-11 -11 -23 -22t-23 -16l-3 -2q-7 0 -17 11t-13 13l-20 18q-42 35 -42 44q12 18 31 38.5t37 38.5q-3 11 -23 31.5
t-25 26.5q-6 6 -12.5 15.5t-9.5 13.5q4 5 10 11.5t13 13.5q23 26 38 41t28 22l1 1l3 1q5 0 15 -9.5t21 -21.5q27 -29 42 -39q-1 -1 41 38l31 29q6 -3 7 -4l-2 4l86 -85l1 -3q0 -11 -10 -23t-30 -29q-2 -2 -13.5 -12.5t-11.5 -16.5q5 -5 13 -15.5zM342 447q-18 19 -33 39
q-27 32 -34 39l-2 5q3 9 11 17.5t22 20.5q16 14 24 22.5t9 18.5l-80 78q-12 -12 -36 -32l-36 -33q-3 0 -39.5 31.5t-38.5 36.5l-2 1l-26 -27q-28 -31 -55 -54q3 -6 28 -33q20 -21 30 -33.5t10 -20.5q0 -5 -35 -40q-7 -7 -18.5 -19t-14.5 -17q8 -7 45 -41l36 -34l1 1
q47 47 68 61q2 -1 7 -1q6 -7 39 -37l30 -29q9 7 24 22q30 28 49 37l14 14z" />
    <glyph glyph-name="backslash" unicode="\" horiz-adv-x="412" 
d="M165 248.5q-20 55.5 -29 82.5q-27 76 -55 157t-47 147q-4 14 -7 21q-8 21 -10 35l-3 9l3 6q16 8 39 8q11 0 31 -2q22 -2 31 -2q18 0 31 4h1q1 0 4.5 1.5t5.5 0.5q12 -81 43 -158q4 -4 9.5 -24.5t6.5 -24.5q20 -68 60 -169q36 -94 54 -150q3 -11 15 -39q8 -17 14.5 -34.5
t6.5 -27.5l10 -24q19 -40 19 -58q0 -7 -3 -9.5t-4 -3.5l-58 1q-4 0 -13 -1t-25 -1q-34 0 -39 12q-18 48 -56 144l-1 1q-14 43 -34 98.5zM322 2q27 0 65 2v4l-9 25q-19 50 -19 56q-20 61 -66 181q-69 177 -97 281q-10 13 -27 68t-22 83q-12 -3 -25 -3q-10 0 -32 2
q-20 2 -30 2q-21 0 -35 -5q10 -20 18 -47t15 -53q8 -36 18 -64l42 -125q28 -83 49 -142q1 -3 22 -60q14 -36 20 -54l20 -50q26 -59 37 -96q19 -5 56 -5z" />
    <glyph glyph-name="periodcentered" unicode="&#xb7;" horiz-adv-x="164" 
d="M132 326q0 -16 1 -27t1 -19q0 -15 -4.5 -20.5t-13.5 -6.5t-42 -3l-38 -2q0 20 -1 34.5t-2 23.5q-1 13 -2 32t-1 45q0 11 6 15l90 -1h6v-71zM41 388l-1 -18q0 -28 3 -55q2 -36 2 -55q13 0 20 -1l25 -1q9 0 21.5 2t12.5 6l-3 121z" />
    <glyph glyph-name="bullet" unicode="&#x2022;" horiz-adv-x="289" 
d="M52 334v2q11 21 28 29.5t43 8.5q49 0 74.5 -7t35.5 -24.5t10 -50.5q0 -34 -2.5 -56.5t-14.5 -38.5q-19 -25 -81 -25l-31 -1q-19 0 -32.5 5.5t-23.5 22.5q-6 9 -9.5 31t-3.5 48q0 42 7 56zM229 226q6 33 6 71q0 41 -27.5 53.5t-63.5 12.5q-38 0 -55.5 -5.5t-26 -28
t-8.5 -73.5q0 -33 12 -52q9 -16 22 -19.5t29 -3t23 0.5q81 0 89 44z" />
    <glyph glyph-name="colon" unicode=":" horiz-adv-x="205" 
d="M32 374q0 15 2 45q2 24 2 33l3 6q10 4 29.5 7t40.5 3q54 0 62 -15q-6 -37 -6 -117l-5 -5l-115 1h-3q-10 4 -10 42zM160 452q-14 5 -41 5q-33 0 -73 -7q0 -9 -2 -35q-3 -21 -3 -43q0 -19 4 -30l110 -1q0 74 5 111zM32 38q0 15 2 45q2 24 2 33l3 6q10 4 29.5 7t40.5 3
q54 0 62 -15q-6 -37 -6 -117l-5 -5l-115 1h-3q-10 4 -10 42zM155 48q0 36 5 68q-21 6 -45 6q-29 0 -69 -8q0 -9 -2 -35q-3 -21 -3 -43q0 -19 4 -30l110 -1v43z" />
    <glyph glyph-name="comma" unicode="," horiz-adv-x="188" 
d="M162 119q-2 -69 -19 -182q-3 -6 -6.5 -20.5t-9.5 -20.5h-1q-14 2 -30 2l-35 -1l-3 1l-1 1l-2 5v3q1 14 7 42t12 46l-22.5 2.5t-22.5 1.5l-1 1l-2 5q0 32 1 73.5t3 41.5v-1q5 5 22 8t33 3q66 0 77 -11zM133 -60q6 32 10.5 63t8.5 111q-13 0 -22.5 1t-16.5 2q-21 3 -40 3
q-18 0 -33 -4q-4 -26 -4 -77v-31q6 -1 18.5 -1.5t21 -2.5t10.5 -7q-6 -13 -12 -49q-7 -32 -9 -38v-2l30 1q14 0 30 -2q0 6 3 17.5t6 16.5z" />
    <glyph glyph-name="ellipsis" unicode="&#x2026;" horiz-adv-x="520" 
d="M24 38q0 15 2 45q2 24 2 33l3 6q10 4 29.5 7t40.5 3q54 0 62 -15q-6 -37 -6 -117l-5 -5l-115 1h-3q-10 4 -10 42zM189 38q0 15 2 45q2 24 2 33l3 6q10 4 29.5 7t40.5 3q54 0 62 -15q-6 -37 -6 -117l-5 -5l-115 1h-3q-10 4 -10 42zM355 38q0 15 2 45q2 24 2 33l3 6
q10 4 29.5 7t40.5 3q54 0 62 -15q-6 -37 -6 -117l-5 -5l-115 1h-3q-10 4 -10 42zM147 48q0 36 5 68q-21 6 -45 6q-29 0 -69 -8q0 -9 -2 -35q-3 -21 -3 -43q0 -19 4 -30l110 -1v43zM202 6l110 -1v43t5 68q-21 6 -45 6q-29 0 -69 -8q0 -9 -2 -35q-2 -28 -2 -43q0 -22 3 -30z
M478 48q0 36 5 68q-21 6 -45 6q-29 0 -69 -8q0 -9 -2 -35q-3 -21 -3 -43q0 -19 4 -30l110 -1v43z" />
    <glyph glyph-name="exclam" unicode="!" horiz-adv-x="219" 
d="M179 704q-5 -137 -5 -246q0 -142 6 -283q-5 -11 -67 -11h-26.5t-48.5 5q0 107 -1 162l-1 163q0 130 6 213q1 1 3.5 0t5.5 0q15 0 25.5 1t18.5 2q21 3 43 3q36 0 41 -9zM113.5 702.5q-12.5 -1.5 -18.5 -1.5q-28 -4 -43 -4q-6 -103 -6 -208q0 -63 2 -189q2 -84 2 -125
q36 -2 57 -2q33 0 63 6q-6 140 -6 279q0 109 5 242q-15 4 -33 4q-10 0 -22.5 -1.5zM44 21q0 27 3 60q2 16 2 25v12q7 10 54 10q43 0 78 -7q-2 -24 -2 -74v-49q-20 -2 -23 -2q-11 0 -19 1l-86 -1h-1q-6 2 -6 25zM133 7l35 -1q0 74 3 110q-13 0 -41 2q-26 2 -39 2
q-17 0 -32 -4q0 -27 -3 -54q-1 -9 -2 -25.5t-1 -29.5v-1z" />
    <glyph glyph-name="exclamdown" unicode="&#xa1;" horiz-adv-x="216" 
d="M175 613q0 -17 -4 -51q-1 -8 -2 -20t-1 -29q-8 -8 -20 -10.5t-28 -2.5q-26 0 -51.5 2.5t-32.5 9.5q0 19 2 59l1 59q5 5 7.5 6t9.5 1q3 0 9 -2l101 1h1q8 -9 8 -23zM122 625l-35 -1q-24 0 -38 2l-1 -55q-2 -36 -2 -55q17 0 36 -3q6 -1 16 -2t24 -1q23 0 36 6v37t6 51v10
q0 8 -1 12q-13 1 -41 -1zM119 -79q-7 -1 -17 -2t-23 -1q-14 0 -24 2t-17 9q4 184 4 276q0 111 -5 251q11 11 54 11h25l32 1q23 0 29 -6q-2 -60 -2 -88q0 -43 2 -129t2 -129q0 -46 -1 -81t-2 -59l-2 -46l-5 -5h-6q-16 0 -44 -4zM103.5 -71q10.5 1 17.5 2q28 4 42 4
q6 124 6 185q0 41 -2 125q-2 82 -2 124q0 30 2 88q-10 -1 -31 -1h-40q-33 0 -49 -3q4 -105 4 -236q0 -142 -3 -285q15 -4 32 -4q13 0 23.5 1z" />
    <glyph glyph-name="numbersign" unicode="#" horiz-adv-x="669" 
d="M505 261q18 -2 27 -2l35 1q10 1 28 1q17 0 27.5 -3.5t13.5 -14.5q-1 -12 2 -42l1 -22q0 -5 -2 -21q-27 -9 -69 -9l-35 1q-12 1 -35 1q-13 0 -35 -2q-8 -15 -19 -57q-10 -36 -18.5 -59t-20.5 -35q-22 -5 -56 -5q-31 0 -68 7q-1 0 -1 2q6 30 28 88q4 11 9.5 26.5t11.5 35.5
q-9 1 -27 1q-20 0 -30 -1q-7 0 -18.5 -0.5t-27.5 0.5h-4l-14 -39q-18 -55 -32.5 -87t-29.5 -32h-2q-8 2 -26 2l-43 -1q-24 0 -37 6q6 35 17 66.5t32 82.5q-7 1 -19 -1t-21 -2q-12 0 -20 4l-1 2q-9 9 -9 53q0 20 2.5 38t6.5 22q14 0 42 -2q21 -3 43 -3q14 0 21 1l3 6
q0 20 27 89l7 21l-131 -1q-8 4 -8 65l1 43q29 3 116 5q43 0 61 1q7 19 15 45t11 36q8 26 15 47.5t12 22.5q11 -2 39 -2q23 0 46 -1t36 -6q0 -12 -11.5 -46.5l-13.5 -40.5q-16 -48 -18 -55q12 -1 37 -1l73 1q12 18 21.5 50t20.5 77l6 22l5 4l25 -1q16 -2 27 -2l35 1h7
q23 0 26 -7q0 -21 -6.5 -45t-18.5 -60l-14 -42h6q4 0 7 -1h43q12 -27 12 -78q0 -18 -1 -26q-16 0 -52 -2l-55 -3q-12 -33 -38 -117zM639 413q-1 9 -2 16q-3 26 -3 47h-18q-20 0 -25 2h-15q-2 11 2.5 27.5t14.5 47.5q19 51 19 74q-11 6 -31 6q-16 0 -24 -1l-24 -1
q-19 0 -27 3l-5 -20q-22 -97 -45 -131q-21 -3 -44 -3q-37 0 -84 7l1 3q5 17 14 42q26 71 28 96q-4 -2 -13 -2q-18 0 -42 3q-8 0 -26.5 1.5t-27.5 0.5q-5 -33 -22.5 -86.5t-24.5 -60.5v1q-3 -7 -19 -7q-103 0 -154 -3q1 -16 1 -44v-44q9 -1 28 -1q17 0 47 2q43 2 62 1
q-7 -19 -16 -56l-15 -53q-1 -5 -3.5 -15.5t-18.5 -13t-56 -2.5q-24 0 -41 6l-1 -37q-1 -11 -1 -35q0 -26 18 -26q8 0 24 2l24 1q-1 -16 -7.5 -36.5t-14.5 -40.5q-10 -26 -16 -43.5t-7 -34.5q34 4 57 4q29 0 48 -4l13 35q32 85 48 119q10 6 72 6q34 0 49 -3q1 -19 -5 -37.5
t-18 -49.5q-18 -46 -22 -69l36 -1l72 1q14 16 21.5 38t16.5 58q11 46 21 56q23 1 69 1q52 0 103 3q-4 52 -5 84l-1 2h-4q-9 2 -28 2q-16 0 -24 -1l-26 -1q-30 0 -49 10q25 81 43 127l4 3l101 3q-1 13 -2 22zM383 257l-4 -4l-125 -1l-5 6q3 7 14 42q6 17 13.5 39.5t15.5 45.5
l5 6q41 0 62 -1l61 -1q4 -7 4 -16q0 -17 -19 -53q-12 -22 -17 -36t-4 -27l-1 -1v1zM398 337q13 33 16 42q-37 0 -56 1l-57 1q-3 -18 -20.5 -65.5t-19.5 -53.5h56q39 2 58 1q1 24 23 74zM375 259h-1v-1z" />
    <glyph glyph-name="period" unicode="." horiz-adv-x="189" 
d="M24 38q0 15 2 45q2 24 2 33l3 6q10 4 29.5 7t40.5 3q54 0 62 -15q-6 -37 -6 -117l-5 -5l-115 1h-3q-10 4 -10 42zM147 48q0 36 5 68q-21 6 -45 6q-29 0 -69 -8q0 -9 -2 -35q-3 -21 -3 -43q0 -19 4 -30l110 -1v43z" />
    <glyph glyph-name="question" unicode="?" horiz-adv-x="451" 
d="M219 418q21 27 33 48t12 40q0 21 -16 33.5t-45 12.5q-11 -4 -17 -10.5t-15 -18.5q-11 -17 -23.5 -26t-40.5 -9q-32 0 -61.5 3t-34.5 8q0 57 30.5 106.5t81 79t106.5 29.5q51 0 99 -22t78 -63t30 -96q0 -68 -55 -140q-5 -6 -29 -33q-32 -34 -44 -56q-7 -13 -12 -30.5
t-9 -33.5q-5 -29 -13 -46v-11q1 -1 1 -4q-5 -8 -37 -8l-37 1q-12 1 -36 1q-19 0 -23.5 3t-4.5 17q0 13 2 45q7 47 21.5 82t42.5 76zM147 218.5q-2 -12.5 -2 -21.5q0 -7 2 -15l81 -1q24 0 36 2q-1 2 -1 6q0 33 16.5 74.5t39.5 74.5q11 15 28 32q18 18 26 29q53 72 53 134
q0 51 -28.5 90t-74 59.5t-93.5 20.5q-53 0 -101 -28.5t-78 -74.5t-30 -97q15 0 36 -3q9 -1 21.5 -2t29.5 -1q24 0 33 5q10 6 22 27q10 16 18.5 24.5t20.5 8.5q35 0 54 -18.5t19 -37.5q0 -21 -15 -46.5t-40 -57.5q-19 -24 -26 -36q-20 -34 -29.5 -63t-15.5 -68v2
q0 -6 -2 -18.5zM133 38q0 15 2 45q2 24 2 33l3 6q10 4 29.5 7t40.5 3q54 0 62 -15q-6 -37 -6 -117l-5 -5l-115 1h-3q-10 4 -10 42zM256 48q0 36 5 68q-21 6 -45 6q-29 0 -69 -8q0 -9 -2 -35q-3 -21 -3 -43q0 -19 4 -30l110 -1v43z" />
    <glyph glyph-name="questiondown" unicode="&#xbf;" horiz-adv-x="450" 
d="M317 569q0 -19 -4 -37v-33q-7 -7 -29.5 -11t-50.5 -4q-48 0 -55 14q0 39 3 78.5t8 44.5l115 -1h3q10 -14 10 -51zM194 611q0 -17 -1 -29t-2 -20q-1 -11 -2 -26t-1 -36q28 -7 59 -7q33 0 56 9v108zM219 181q-17 -25 -26.5 -41.5t-9.5 -31.5t17 -30t45 -15q12 4 19 11.5
t15 19.5q11 17 23 26t39 9q29 0 61 -3t37 -8q0 -58 -31.5 -108t-83.5 -79.5t-109 -29.5q-55 0 -101 26.5t-73 69t-27 88.5q0 71 62 146q7 9 23 25q25 28 32 37q18 26 31.5 68.5t13.5 67.5q0 3 -0.5 4.5t-0.5 2.5q9 9 40 9l89 -1q6 -6 8 -12.5t2 -15.5q0 -10 -1.5 -19
t-1.5 -18q-15 -111 -72 -168q-6 -11 -20 -30zM252 435q-38 0 -66 -2l1 -8q-1 -19 -11.5 -50.5t-12.5 -38.5q-9 -28 -25 -50.5t-43 -53.5q-36 -40 -54 -70.5t-18 -72.5q0 -54 27.5 -94.5t71.5 -61.5t94 -21q62 0 108 27.5t72 73.5t32 100l-32 2q-9 1 -23 2t-32 1
q-23 0 -30 -4q-9 -4 -16.5 -14.5t-9.5 -13.5q-11 -16 -20.5 -25t-23.5 -9q-20 0 -44 17t-24 38q0 25 14 48.5t40 55.5q16 20 23 30q40 58 51 139q2 31 2 49q-7 6 -51 6z" />
    <glyph glyph-name="quotedbl" unicode="&#x22;" horiz-adv-x="378" 
d="M152 709q0 -42 2 -126t2 -126q-1 -1 -27.5 -1t-96.5 -2l-1 88q-2 62 -2 99q0 58 10 68h1q8 0 16.5 1t15.5 2q27 5 48 5q24 0 32 -8zM345 709q0 -42 2 -126q2 -86 2 -127q-1 -1 -15 -1t-50 -3q-49 -2 -59 8l-1 86q-2 58 -2 95q0 58 10 68h1q8 0 16.5 1t15.5 2q27 5 48 5
q24 0 32 -8zM42 660q-2 -38 -2 -56l1 -71q1 -23 1 -69l103 1l-1 120q-1 39 -1 118q-17 0 -51 -2q-32 -2 -48 -2q0 -13 -2 -39zM235 661q-2 -40 -2 -58l1 -70q1 -23 1 -69l103 1l-1 120q-1 39 -1 118q-17 0 -51 -2q-32 -2 -48 -2q0 -14 -2 -38z" />
    <glyph glyph-name="quotesingle" unicode="'" horiz-adv-x="185" 
d="M152 709q0 -42 2 -124l1 -125l-5 -5h-28q-12 -4 -30 -4q-51 0 -60 9l-1 86q-2 58 -2 95q0 58 10 68h1q8 0 16.5 1t15.5 2q27 5 48 5q24 0 32 -8zM42 660q-2 -38 -2 -56l1 -71q1 -23 1 -69h75q8 2 12 2l16 -1l-1 120q-1 39 -1 118q-17 0 -51 -2q-32 -2 -48 -2
q0 -13 -2 -39z" />
    <glyph glyph-name="semicolon" unicode=";" horiz-adv-x="205" 
d="M32 374q0 15 2 45q2 24 2 33l3 6q10 4 29.5 7t40.5 3q54 0 62 -15q-6 -37 -6 -117l-5 -5l-115 1h-3q-10 4 -10 42zM44 415q-3 -21 -3 -43q0 -19 4 -30l110 -1q0 74 5 111q-14 5 -41 5q-33 0 -73 -7q0 -9 -2 -35zM61 127q17 3 33 3q66 0 77 -11l-4 -115l-2 -2
q-3 -10 -7 -31t-6 -34q-3 -6 -6.5 -20.5t-9.5 -20.5h-1q-14 2 -30 2l-35 -1l-3 1l-1 1l-2 5v3q1 14 7 42t12 46l-22.5 2.5t-22.5 1.5l-1 1l-2 5q0 32 1 73.5t3 41.5v-1q5 5 22 8zM161 114q-13 0 -22.5 1t-16.5 2q-21 3 -40 3q-18 0 -33 -4q-4 -26 -4 -77v-31q6 -1 18.5 -1.5
t21 -3t8.5 -8.5v-2q-6 -18 -10 -45q-8 -35 -9 -38v-2l30 1q14 0 30 -2q0 6 3 17.5t6 16.5l-1 -1q1 5 7 28t6 35l2 2q2 74 4 109zM157 7l-2 -3l1 2z" />
    <glyph glyph-name="slash" unicode="/" horiz-adv-x="412" 
d="M151 -1v1q-8 -8 -46 -8q-15 0 -47 2l-40 1l-1 1l-2 5q-1 12 2.5 24t8 22.5t5.5 13.5q8 17 12 29q40 130 83 231q23 60 57 161q25 76 44 129l12 38q17 62 23 65q13 -4 31 -4q9 0 31 2l30 1q17 0 28 -2.5t16 -11.5l-3 -6q0 -17 -14 -49l-8 -24q-43 -142 -94.5 -286.5
t-122.5 -328.5l-1 -1zM378 667q8 23 8 31q-14 6 -39 6l-30 -1q-20 -2 -30 -2q-8 0 -22 2q-5 -30 -16.5 -62t-14.5 -40q-11 -26 -17 -47q-2 -10 -38 -118l-26 -69q-88 -231 -128 -359v-4q54 -2 85 -2q30 0 37 7q122 311 221 628q2 7 10 30zM144 3h-1v-1z" />
    <glyph glyph-name="underscore" unicode="_" horiz-adv-x="650" 
d="M126 -33l54 -1q18 -1 54 -1l190 1q128 2 192 2q-2 -28 -2 -48v-16q0 -44 -7 -59q-188 0 -282 1l-282 1q-10 4 -10 61q0 10 2 26l1 23l5 6q37 4 85 4zM46 -46v-69q2 -5 1.5 -13t-0.5 -11q0 -6 463 -6h92v34q0 46 3 69l-171 -1q-57 -1 -170 -1q-42 0 -63 1l-65 1
q-50 0 -90 -4z" />
    <glyph glyph-name="braceleft" unicode="{" horiz-adv-x="318" 
d="M265 -6q-57 0 -101.5 26.5t-44.5 80.5q0 14 1 21l1 22q0 53 -13 91t-54 50q-16 6 -30 6q-10 1 -13.5 2.5t-5.5 9t-2 24.5q0 26 3.5 46.5t9.5 24.5q5 -1 16 -1q46 0 68.5 35t22.5 87q0 11 -2 35q-2 22 -2 33q0 55 34.5 76.5t84.5 21.5q19 0 51 -2q9 -9 9 -40
q0 -15 -1 -33.5t-6 -29.5q-31 -9 -42 -25.5t-11 -49.5l1 -35q2 -24 2 -37q0 -34 -10.5 -57t-38.5 -35q22 -17 32 -35t12 -37t3 -52l1 -29q1 -31 13 -55.5t40 -24.5q5 -11 5 -32q0 -50 -1 -75l-4 -5q-18 -2 -28 -2zM287 5q1 16 1 47v46q-36 9 -46.5 33t-10.5 64q0 58 -9 89.5
t-42 53.5l1 9l2 1v-1q28 10 38 30t10 51q0 11 -2 37t-2 39q0 32 12.5 53.5t45.5 31.5q3 42 3 45q0 20 -3 39q-45 3 -51 3q-44 0 -74.5 -19t-30.5 -67q0 -9 2 -25q2 -18 2 -28q0 -63 -22.5 -107t-76.5 -44q-10 0 -15 1q-6 -24 -6 -51q0 -21 4 -37q55 0 84.5 -35t29.5 -94
l-1 -30q-2 -20 -2 -30q0 -42 25.5 -67t65.5 -34q18 -5 43 -5q16 0 25 1z" />
    <glyph glyph-name="braceright" unicode="}" horiz-adv-x="318" 
d="M17 37q0 30 1 47.5t7 23.5q23 0 34 12.5t14 31t4 53.5q2 53 10 85t37 51q-28 14 -39 41.5t-11 64.5q0 11 2 27q3 33 3 45q0 30 -12.5 41t-40.5 20q-8 15 -8 46q0 21 6 53q13 6 41 6q63 0 98 -19.5t35 -83.5q0 -13 -2 -37l-1 -35q0 -49 24.5 -81t69.5 -32q9 0 14 1
q7 -8 9 -26t1.5 -33t-0.5 -20q0 -30 -16 -30q-53 0 -76.5 -35.5t-23.5 -87.5l1 -25q1 -8 1 -24q0 -46 -31 -84.5t-107 -38.5q-13 0 -35 2l-5 4q-4 16 -4 37zM33 7.5q5 -3.5 22 -3.5q52 0 94 26.5t42 79.5q0 10 -2 32q-3 17 -3 34q0 56 30 89t85 34q3 18 3 40q0 23 -5 48
q-6 -1 -18 -1q-54 0 -75 44t-21 101q0 10 2 30l1 29q0 48 -30.5 67t-75.5 19q-4 0 -49 -3q-5 -25 -5 -48q0 -21 4 -36q22 -9 33 -16t18 -21.5t7 -40.5q0 -13 -2 -39t-2 -39q0 -34 10.5 -55.5t39.5 -30.5l2 -9q-32 -21 -41 -46t-9 -63l1 -17q0 -40 -11 -77t-48 -37
q0 -25 -1 -38l-1 -39q0 -10 5 -13.5z" />
    <glyph glyph-name="bracketleft" unicode="[" horiz-adv-x="321" 
d="M38 -7l-1 312q0 89 2.5 244.5t8.5 155.5v-1q10 10 43 10q25 0 43.5 -1t31.5 -2q52 -4 77 -4q30 0 54 4q6 -13 6 -39q0 -1 0.5 -8t0.5 -23q0 -45 -13 -58q-35 0 -53 -1l-53 -1q-5 -51 -5 -121t5 -157q4 -104 4 -157q9 -2 42 -4q60 -2 65 -10q0 -19 2 -55l1 -54
q0 -21 -7 -25.5t-33 -4.5l-40 1q-9 1 -22 1l-47 1q-32 2 -48 2q-40 0 -64 -5zM287 67l-1 60q-8 1 -28 1q-32 1 -51 3.5t-28 11.5q0 80 -5 180q-1 22 -3 78.5t-2 102.5q0 81 12 87q35 0 52 1l54 1q5 28 5 67v40q-11 -1 -33 -1q-16 0 -38 1t-33 2q-36 3 -72 3q-33 0 -58 -4
q-11 -181 -11 -444l1 -253q26 3 54 3q32 0 48 -1l47 -1l92 1q0 21 -2 61z" />
    <glyph glyph-name="bracketright" unicode="]" horiz-adv-x="321" 
d="M25 133q10 5 24.5 6.5t23.5 2t13 0.5q27 0 46 4q0 69 5 157q4 104 4 156q0 71 -5 121q-5 -1 -20 -1t-49 2l-37 2q-12 5 -12 61l1 61l-2 8q38 -6 64 -6q38 0 76 3q13 1 32.5 2t45.5 1q33 0 38 -8q0 -38 4 -114q4 -64 4 -97q1 -83 1 -251l2 -251q-22 4 -40 4l-41 -1
q-28 0 -82 -2q-12 0 -43 -1.5t-55 -0.5q-5 31 -5 58q0 39 7 84zM31 6q57 -1 172 -1l42 1q10 0 28 -2l1 253q0 263 -11 444q-25 3 -51 3q-35 0 -69 -3q-12 -1 -29.5 -2t-41.5 -1q-29 0 -43 2l-1 -50q0 -33 5 -57q36 0 54 -1l53 -1q12 -24 12 -79q0 -82 -5 -185
q-1 -24 -3 -81.5t-2 -103.5q-6 -11 -55 -13t-53 -2q-6 -48 -6 -78q0 -23 3 -43z" />
    <glyph glyph-name="parenleft" unicode="(" horiz-adv-x="314" 
d="M204.5 180q24.5 -46 85.5 -46q3 -8 4 -21t1 -30q0 -44 -1.5 -60.5t-8 -22.5t-22.5 -6q-51 0 -89 9t-69 34q-44 33 -60.5 81.5t-16.5 111.5q0 33 3 66q2 42 2 62l-1 59q-2 40 -2 62q0 49 8 89t30 73q24 37 63 55.5t85 18.5l38 1q21 0 31 -9t10 -37q0 -32 -3 -59l-1 -30
q-2 -5 -30 -18q-32 -14 -41 -23q-24 -25 -31 -79t-7.5 -94t-0.5 -49l-1 -33q0 -59 24.5 -105zM282 83q0 27 3 41q-28 0 -59 22q-34 22 -44.5 56.5t-10.5 85.5q0 60 2 102t10 86q7 45 29.5 69.5t68.5 39.5q0 25 1 38l1 39q0 25 -2 38q-40 6 -65 6q-104 0 -139.5 -66.5
t-35.5 -169.5l1 -55q1 -18 1 -52q0 -22 -1 -39t-2 -30q-4 -46 -4 -70q0 -56 18.5 -103t56.5 -76q31 -24 66 -32.5t84 -8.5q11 0 19 4l2 2l1 22z" />
    <glyph glyph-name="parenright" unicode=")" horiz-adv-x="313" 
d="M27 1q-6 7 -7.5 23.5t-1.5 62.5q0 41 6 47q69 0 90 52.5t21 128.5v31q0 156 -48 200q-11 11 -24.5 16.5t-36.5 13.5q-4 8 -6 36.5t-2 55.5q0 25 4.5 35t22.5 10l51 1q92 0 137 -56q29 -36 39 -80.5t10 -101.5q0 -35 -1 -52l-1 -53q0 -21 2 -69q3 -37 3 -75
q0 -63 -16 -110t-60 -80q-32 -26 -70 -34.5t-89 -8.5q-17 0 -23 7zM276 254q-1 21 -2 35q-4 56 -4 84l1 97q0 103 -34.5 169.5t-138.5 66.5q-26 0 -66 -6q-2 -18 -2 -42q0 -43 3 -73q24 -8 40 -17t28 -22q25 -28 33.5 -78.5t8.5 -116.5q0 -21 1 -32l1 -37q0 -51 -12 -81
t-42.5 -53.5t-61.5 -23.5q0 -17 -1 -29l-1 -47q0 -25 4 -34.5t20 -9.5q49 0 85.5 8t66.5 33q34 23 54 69t20 91q0 28 -1 49z" />
    <glyph glyph-name="emdash" unicode="&#x2014;" horiz-adv-x="692" 
d="M35 259l1 96l5 6h612l5 -5q0 -17 -2 -59q-3 -33 -3 -67q0 -44 8 -75l-5 -7q-104 0 -310 4q-52 1 -129 2t-179 1l-5 6q0 32 2 98zM219.5 164q75.5 -1 126.5 -2q202 -4 303 -4q-6 25 -6 67q0 32 3 65q2 42 2 61h-603q-2 -11 -2 -34l1 -51l-1 -101q101 0 176.5 -1z" />
    <glyph glyph-name="endash" unicode="&#x2013;" horiz-adv-x="455" 
d="M33 288.5q1 54.5 2 72.5v-6l5 6h375l5 -5v-51q4 -13 4 -69q0 -26 -1 -49.5t-5 -32.5q-65 0 -191 4q-32 1 -79.5 2t-110.5 1l-5 6q0 67 1 121.5zM42 171q61 0 107 -1t77 -2q124 -4 187 -4q0 25 -2 77t-2 80l1 30h-365q-4 -40 -4 -91z" />
    <glyph glyph-name="hyphen" unicode="-" horiz-adv-x="521" 
d="M33 282l1 79l5 6h443l5 -5l-1 -48q-2 -34 -2 -49q0 -35 6 -68l-5 -7q-75 0 -225 4q-38 1 -94 2t-130 1l-5 6q0 27 2 79zM41 207q72 0 126.5 -1t91.5 -2q146 -4 220 -4q-5 25 -5 61l1 47q2 32 2 49h-433q-4 -31 -4 -70z" />
    <glyph glyph-name="uni00AD" unicode="&#xad;" horiz-adv-x="369" 
d="M187 311q102 2 152 2q-4 -22 -4 -33q0 -9 1.5 -19t1.5 -18q-81 0 -122 1q-123 0 -184 1l-3 65l7 -1q49 0 151 2zM41 265q2 -3 1.5 -6.5t-0.5 -4.5l284 -1l-1 32q0 11 1 16q-95 0 -142 -1l-143 -1v-34z" />
    <glyph glyph-name="guillemotleft" unicode="&#xab;" horiz-adv-x="583" 
d="M262 7q-31 31 -97 91q-80 75 -95 90q-22 22 -36 38t-25 34v4q19 28 68 77l23 23l66 68q44 46 89 92h6q13 -7 45 -39.5t32 -36.5q-27 -36 -92 -101q-56 -56 -81 -87q26 -23 76 -73q68 -68 105 -98v-8l-11 -10l-18 -19q-29 -31 -49 -45h-6zM483 7q-31 31 -97 91
q-80 75 -95 90q-22 22 -36 38t-25 34v4q19 28 68 77l23 23l66 68q44 47 89 92h6q13 -7 45 -39.5t32 -36.5q-27 -36 -92 -101q-56 -56 -81 -87q26 -23 76 -73q68 -68 105 -98v-8l-11 -10l-18 -19q-29 -31 -49 -45h-6zM232 181q-50 50 -77 74v8q20 25 81 88q57 55 90 98
q-14 9 -26.5 22.5t-14.5 15.5q-11 13 -26 27q-45 -45 -87 -90l-65 -67l-19 -19q-19 -18 -37.5 -37.5t-31.5 -38.5q8 -14 30 -40q32 -33 68 -68h1q100 -90 147 -137q16 12 46 44l18 18l6 6q-29 24 -103 96zM453 181q-50 50 -77 74v8q20 25 81 88q57 55 90 98
q-14 9 -26.5 22.5t-14.5 15.5q-11 13 -26 27q-45 -45 -87 -90l-65 -67l-19 -19q-19 -18 -37.5 -37.5t-31.5 -38.5q16 -26 39 -50t60 -58q100 -90 147 -137q16 12 46 44l18 18l6 6q-29 24 -103 96z" />
    <glyph glyph-name="guillemotright" unicode="&#xbb;" horiz-adv-x="583" 
d="M107 175l33.5 33.5t56.5 51.5q-32 40 -82 88q-24 24 -48.5 50t-42.5 51q9 10 36.5 39.5t41.5 36.5l6 -2q36 -43 117 -122q44 -43 73 -73t55 -63v-6q-32 -42 -69 -79t-95 -90q-60 -54 -88 -82q-5 0 -7 -1q-17 11 -47 43l-31 31v8q33 26 91 86zM328 175l33.5 33.5
t56.5 51.5q-32 40 -82 88q-24 24 -48.5 50t-42.5 51q9 10 36.5 39.5t41.5 36.5l6 -2q36 -43 117 -122q44 -43 73 -73t55 -63v-6q-32 -42 -69 -79t-95 -90q-60 -54 -88 -82q-5 0 -7 -1q-17 11 -47 43l-31 31v8q33 26 91 86zM51 60l16 -16q6 -3 14.5 -12t14.5 -14q44 42 81 74
q56 51 95 89.5t71 80.5q-25 32 -52 60t-75 75q-6 6 -44 42.5t-69 74.5q-17 -12 -39 -35q-16 -20 -29 -29q27 -36 92 -101q56 -56 81 -87l-1 -7q-34 -27 -94 -89l-32.5 -32.5t-54.5 -49.5q21 -17 25 -24zM272 60l16 -16q6 -3 14.5 -12t14.5 -14q44 42 81 74q56 51 95 89.5
t71 80.5q-25 32 -52 60t-75 75q-6 6 -44 42.5t-69 74.5q-17 -12 -39 -35q-16 -20 -29 -29q27 -36 92 -101q56 -56 81 -87l-1 -7q-34 -27 -94 -89l-32.5 -32.5t-54.5 -49.5q21 -17 25 -24z" />
    <glyph glyph-name="guilsinglleft" unicode="&#x2039;" horiz-adv-x="362" 
d="M241 187q68 -68 105 -98v-8l-27 -27q-30 -34 -51 -47h-6q-28 28 -88 82q-61 56 -97 92t-68 79v4q19 28 68 77l23 23l66 68q44 46 89 92h6q11 -6 44 -37t33 -39q-27 -36 -92 -101q-56 -56 -81 -87q26 -23 76 -73zM305 55l30 30q-32 25 -65 58t-43 42q-55 55 -72 70v8
q32 40 106 116l19 20q31 29 47 51q-13 9 -38 36q-20 22 -30 28l-152 -157l-17 -17q-49 -47 -71 -78q39 -52 98 -108h1l44 -40q61 -54 104 -97q17 15 39 38z" />
    <glyph glyph-name="guilsinglright" unicode="&#x203a;" horiz-adv-x="362" 
d="M107 175l33.5 33.5t56.5 51.5q-32 40 -82 88q-24 24 -48.5 50t-42.5 51q9 10 36.5 39.5t41.5 36.5l6 -2q36 -43 117 -122q44 -43 73 -73t55 -63v-6q-32 -42 -69 -79t-95 -90q-60 -54 -88 -82q-5 0 -7 -1q-17 11 -47 43l-31 31v8q33 26 91 86zM51 60l16 -16q6 -3 14.5 -12
t14.5 -14q44 42 81 74q56 51 95 89.5t71 80.5q-25 32 -52 60t-75 75q-6 6 -44 42.5t-69 74.5q-17 -12 -39 -35q-16 -20 -29 -29q27 -36 92 -101q56 -56 81 -87l-1 -7q-34 -27 -94 -89l-32.5 -32.5t-54.5 -49.5q21 -17 25 -24z" />
    <glyph glyph-name="quotedblbase" unicode="&#x201e;" horiz-adv-x="353" 
d="M164.5 156.5q7.5 -2.5 11.5 -10.5q-8 -35 -15 -61t-12 -44q-13 -45 -23 -87q-2 -9 -8 -25t-6 -27q-8 -8 -52 -8q-31 0 -48.5 1.5t-22.5 6.5q0 14 8.5 41t10.5 36q6 18 13 51q17 78 37 118l4 3h1q8 0 16.5 1t15.5 2q27 5 48 5q14 0 21.5 -2.5zM324.5 156.5
q7.5 -2.5 11.5 -10.5q-8 -35 -15 -61t-12 -44q-13 -45 -23 -87q-2 -9 -8 -25t-6 -27q-8 -8 -52 -8q-31 0 -48.5 1.5t-22.5 6.5q0 14 8.5 41t10.5 36q6 18 13 51q17 78 37 118l4 3h1q8 0 16.5 1t15.5 2q27 5 48 5q14 0 21.5 -2.5zM101 145q-24 -4 -36 -4q-12 -24 -19.5 -50
t-16.5 -67q-4 -23 -11 -48q-1 -5 -9 -29t-10 -41l103 1q8 38 33 125q16 57 30 114q-12 3 -24 3t-40 -4zM261 145q-24 -4 -36 -4q-12 -24 -19.5 -50t-16.5 -67q-4 -23 -11 -48q-1 -5 -9 -29t-10 -41l103 1q8 38 33 125q17 57 30 114q-12 3 -24 3t-40 -4z" />
    <glyph glyph-name="quotedblleft" unicode="&#x201c;" horiz-adv-x="367" 
d="M187.5 712.5q7.5 -2.5 11.5 -10.5l-23 -90q-4 -16 -12.5 -47.5t-14.5 -55.5q-1 -5 -6.5 -27t-12.5 -29l-58 -4q-51 0 -60 9q0 10 4 23t5 17q2 5 7 23q30 138 53 183l4 3h1q8 0 16.5 1t15.5 2q27 5 48 5q14 0 21.5 -2.5zM347.5 712.5q7.5 -2.5 11.5 -10.5l-23 -90
q-4 -16 -12.5 -47.5t-14.5 -55.5q-1 -5 -6.5 -27t-12.5 -29l-58 -4q-51 0 -60 9q0 10 4 23t5 17q2 5 7 23q30 138 53 183l4 3h1q8 0 16.5 1t15.5 2q27 5 48 5q14 0 21.5 -2.5zM284 701q-24 -4 -36 -4q-8 -14 -12 -33t-6 -26l-8 -30q-22 -86 -39 -146l103 1q4 18 7 28l6 21
q12 48 19 72q5 18 14.5 54t15.5 64q-12 3 -24 3t-40 -4zM122 700q-7 -1 -15.5 -2t-18.5 -1q-8 -14 -12 -33t-6 -26l-8 -30q-21 -86 -39 -146l103 1q4 18 7 28l6 21l19 74q17 59 30 115q-6 3 -23 3q-13 0 -43 -4z" />
    <glyph glyph-name="quotedblright" unicode="&#x201d;" horiz-adv-x="367" 
d="M192 670.5q-8 -24.5 -9 -27.5q-4 -14 -6.5 -26t-4.5 -22q-2 -7 -9 -37.5t-15 -54.5t-16 -41l-5 -3h-1q-5 0 -29 -4q-6 -1 -22 -3.5t-28 -1.5q-16 0 -21.5 2t-12.5 9q3 4 4.5 15.5t3.5 18.5q5 18 13 56q4 14 16 64.5t27 92.5v-1q9 9 53 9q29 0 47 -1t23 -6q0 -14 -8 -38.5
zM337.5 715q17.5 -1 22.5 -6q0 -14 -8 -38.5t-9 -27.5q-4 -14 -6.5 -26t-4.5 -22q-2 -7 -9 -37.5t-15 -54.5t-16 -41l-5 -3h-1q-6 0 -34 -4q-40 -5 -49 -5q-13 0 -18 2t-12 9q3 4 4.5 15.5t3.5 18.5q5 18 13 56q4 14 16 64.5t27 92.5v-1q9 9 53 9q30 0 47.5 -1zM143.5 524
q8.5 30 18.5 77q13 52 11 45q3 7 8.5 26.5t7.5 31.5l-103 -1q-18 -60 -48 -184l-14 -57q7 -2 20 -2q19 0 42 5q26 4 37 4q12 25 20.5 55zM341.5 672.5q5.5 19.5 7.5 31.5l-103 -1q-23 -74 -42 -159l-6 -26q-6 -38 -14 -56q7 -2 21 -2q18 0 43 5q24 4 35 4q12 25 20.5 55
t18.5 77q13 52 11 45q3 7 8.5 26.5z" />
    <glyph glyph-name="quoteleft" unicode="&#x2018;" horiz-adv-x="207" 
d="M17 475.5q3 13.5 4 19.5q5 18 13 56q4 14 16 64.5t27 92.5v-1q9 9 53 9q29 0 47 -1t23 -6q0 -14 -8 -38.5t-9 -27.5q-4 -14 -6.5 -26t-4.5 -22q-2 -7 -9 -37.5t-15 -54.5t-16 -41l-5 -3h-1q-4 0 -30 -4q-32 -6 -52 -6q-22 0 -33 8q3 5 6 18.5zM86 465q26 4 37 4
q12 25 20.5 55t18.5 77q13 52 11 45q3 7 8.5 26.5t7.5 31.5l-103 -1q-18 -60 -48 -184l-14 -57q7 -2 20 -2q19 0 42 5z" />
    <glyph glyph-name="quoteright" unicode="&#x2019;" horiz-adv-x="207" 
d="M177 715q18 -1 23 -6q-6 -23 -22 -87q-23 -105 -46 -160l-5 -3l-38 -5q-25 -5 -42 -4q-16 0 -21.5 2t-12.5 9q3 4 4.5 15.5t3.5 18.5q5 18 13 56q4 14 16 64.5t27 92.5v-1q9 9 53 9q29 0 47 -1zM145 530.5q9 31.5 20 78.5q14 64 24 95l-103 -1q-18 -60 -48 -184l-14 -57
q7 -2 20 -2q19 0 42 5q26 4 37 4q13 30 22 61.5z" />
    <glyph glyph-name="quotesinglbase" unicode="&#x201a;" horiz-adv-x="196" 
d="M-9 -94q5 28 21 86q6 20 13 47q20 82 30 113v-1q9 9 53 9q29 0 47 -1t23 -6q0 -14 -8 -38.5t-9 -27.5q-2 -7 -11 -49q-10 -52 -20 -86t-25 -49h-1q-11 0 -33 -4q-28 -6 -51 -6t-29 13zM120 -34.5q8 28.5 21 83.5l10 41q3 7 8.5 26.5t7.5 31.5l-103 -1q-23 -74 -42 -159
l-6 -26q-6 -36 -14 -55q4 -2 14 -2q13 0 22.5 1t16.5 2q17 3 27 3q6 2 19 2q11 24 19 52.5z" />
    <glyph glyph-name="uni00A0" unicode="&#xa0;" horiz-adv-x="200" 
 />
    <glyph glyph-name="Euro" unicode="&#x20ac;" horiz-adv-x="490" 
d="M33 537q11 56 43 94q41 49 103 65.5t145 16.5l55 -1q24 0 36 1l38 1q10 -21 10 -80q0 -13 -2 -39t-2 -39l-1 -1l-4 -2q-13 0 -47 2t-51 2q-39 0 -69 -9.5t-49 -35.5l35 1q43 0 49 -11v-101q-7 -14 -71 -14q-21 0 -57 2v-12q0 -8 1 -11q82 -2 122 -2q7 -7 9 -22.5t2 -37.5
q0 -40 -9 -49q-20 -3 -43.5 -4t-30.5 -1q-24 0 -37 -1q9 -35 38.5 -52t65 -21.5t89.5 -5.5q35 0 61 -3q8 -17 8 -58l-1 -44v-17q0 -37 -9 -46q-56 -10 -123 -10q-57 0 -111 6q-92 15 -136.5 71t-56 129t-11.5 181v33q0 69 11 125zM455 11q4 23 4 52l-1 47q-2 32 -2 47
q-27 3 -61 3q-55 1 -91.5 6.5t-66.5 25.5t-40 61q9 9 58 9h27.5t31.5 2q4 15 4 39q0 26 -5 51q-21 0 -63 2l-64 1q-2 1 -1.5 10.5t-0.5 18.5q0 8 5 13q20 0 30 -1l34 -1q32 0 59 7v94q-10 2 -38 2q-4 0 -18 0.5t-22 2.5t-10 6q19 33 52.5 45.5t79.5 12.5q17 0 49 -2t45 -2
l1 34q2 24 2 36q0 11 -2 35q-3 18 -3 36l-36 -1q-11 -1 -33 -1l-57 1q-80 0 -140 -16t-99 -63q-30 -37 -40.5 -90t-10.5 -120v-41q0 -102 11.5 -173t54 -124.5t129.5 -67.5q63 -7 111 -7q64 0 117 10z" />
    <glyph glyph-name="cent" unicode="&#xa2;" horiz-adv-x="350" 
d="M202 214q10 6 12.5 17t2.5 29q1 18 3 26t9 12q4 -1 14 -1q6 0 15.5 1.5t20.5 1.5q27 0 43 -7q0 -15 1 -25.5t2 -17.5q3 -22 3 -44q0 -28 -20 -54.5t-50 -43.5t-57 -19v-25q2 -12 2 -18q0 -19 -5 -19h1l-1 -1q-3 0 -12 -3.5t-13 -3.5q-20 0 -20 40q0 11 2 27q-4 -1 -11 -1
q-29 0 -58 13t-39 35q-24 65 -24 131v69l1 35q2 24 2 37l-1 55q0 55 32 94t82 39q11 0 17 -1l-1 36q0 31 28 31q9 0 14 -3.5t5 -17.5q0 -9 -1 -18.5t-1 -18.5q0 -8 1 -12q38 -1 68 -25t46.5 -60.5t16.5 -74.5q0 -20 -7 -45q-5 -9 -44 -9q-33 0 -51 4t-18 24q0 31 -9 59l-2 2
l-1 -64q0 -62 2 -186zM191 310q-2 78 -2 116q0 48 11 52l2 -1q12 -8 17 -27.5t5 -35.5l-1 -17q0 -12 56 -12q18 0 36 3q0 9 1 15t2 11q3 12 3 25q0 33 -17 65.5t-45.5 53.5t-61.5 21q-5 3 -6.5 9.5t-1.5 19.5q0 15 3 24v15l-12 1q-13 0 -13 -11q0 -8 1 -16t1 -17t-1.5 -13
t-7.5 -10q-16 2 -22 2q-47 0 -75 -34.5t-28 -90.5l1 -46l-1 -64q-2 -44 -2 -65q0 -53 6.5 -92t30 -67.5t71.5 -28.5q10 0 26 2q0 -7 -1.5 -17.5t-1.5 -23.5q0 -17 4 -25l2 -2l2 -1l20 6q0 9 -1 20t-1 23t2 24q28 0 57.5 16t49 42.5t19.5 54.5q0 13 -2 35q-2 24 -2 37
q-9 2 -26 2q-9 0 -18.5 -1t-20.5 -1l-18 1q-1 -9 -1.5 -29.5t-6.5 -34.5t-21 -21l-10 -3zM135 462.5q8 14.5 25 14.5q9 -18 9 -57l-1 -115q-1 -35 -1 -104q-43 6 -43 94l3 134q0 19 8 33.5zM156 215l1 144q0 35 -2 107l-9 -4q-8 -18 -8 -28l-5 -108q0 -88 23 -111z" />
    <glyph glyph-name="currency" unicode="&#xa4;" horiz-adv-x="607" 
d="M254 568q5 1 18.5 3t25.5 2q41 0 91 -9q16 16 44 50q38 45 53 59l52 -44q39 -31 59 -49q-14 -18 -44 -50q-33 -35 -41 -46q24 -42 24 -122q0 -45 -8 -89t-22 -72q6 -7 22 -27.5t32 -35.5t32 -23l7 -3q-11 -4 -22.5 -13.5t-22.5 -20.5q-20 -20 -37 -33.5t-41 -24.5l-3 1
l-38 38q-3 3 -21 19.5t-31 34.5q-52 -10 -94 -10q-45 0 -87 9q-11 -13 -31 -41q-3 -4 -15 -21t-25 -30q-17 1 -36 16t-45 42q-31 29 -39 34l32 37l44 53q-10 22 -12.5 57t-2.5 92q0 82 15 139q-15 18 -30 32q-18 18 -28.5 30.5t-16.5 27.5l110 93q33 -41 97 -110q15 0 35 5z
M120 659q-32 -28 -96 -82q12 -15 28 -31q35 -37 45 -57q-17 -64 -17 -141q0 -28 4 -80q1 -11 7 -38q6 -24 6 -30l-1 -3q-24 -24 -49 -59l-21 -26q17 -10 45 -38q17 -18 28.5 -28t26.5 -16h2q5 7 27 38t46 55q43 -9 88 -9q52 0 96 10l36 -35q39 -39 57 -59q15 6 26.5 15.5
t27.5 25.5q29 29 48 39q-19 9 -34.5 26t-36.5 44l-12 16q-1 2 -1 6q14 28 22.5 71.5t8.5 87.5q0 77 -25 121q0 4 1 6q6 8 38 42q22 23 41 47q-32 28 -96 82q-22 -22 -47 -52q-40 -45 -48 -53q-56 10 -91 10q-16 0 -44 -6l-18 -3t-21 -2l-3 1q-65 69 -94 105zM314 464
q54 0 84 -21t30 -84q0 -60 -14 -92t-42 -44t-76 -12q-59 0 -84 14.5t-29 37.5t-4 79q0 46 10 74t45 41l19 3q29 4 61 4zM207.5 241.5q19.5 -21.5 58.5 -21.5q28 0 81 7q73 10 73 144q0 47 -29 65t-79 18q-33 0 -75 -7q-25 -9 -36 -29.5t-12 -39t-1 -64.5q0 -51 19.5 -72.5z
" />
    <glyph glyph-name="dollar" unicode="$" horiz-adv-x="445" 
d="M407.5 91q-18.5 -36 -56.5 -61q-5 -3 -20 -14.5t-27 -14.5q0 -13 1 -21l1 -27q0 -54 -37 -54h-37q-5 -2 -17 -2q-40 0 -52 10.5t-12 33.5v16q0 27 -9.5 36.5t-23.5 14.5t-21 8q-45 18 -63.5 58t-18.5 99q0 33 1.5 45.5t12.5 21t38 8.5q53 0 74 -3t29.5 -15.5t8.5 -44.5
q2 -7 3.5 -20.5t8.5 -21t25 -7.5q16 0 29.5 9.5t13.5 27.5q0 25 -23.5 54.5t-43.5 46.5t-60 48q-51 40 -80.5 85t-29.5 103q0 42 26.5 76.5t69.5 54.5q7 3 18 6.5t17 6.5q-5 24 -5 62q0 24 5.5 32.5t18 9.5t53.5 1q76 0 76 -19v-86l1 -2l2 -2q129 -30 129 -171
q0 -28 -11.5 -35.5t-33.5 -7.5q-5 1 -15 1t-18 -1t-15 -2q-45 0 -58.5 13t-15.5 37q-2 17 -7.5 25t-25.5 8q-18 0 -29 -13t-11 -31q0 -34 28 -59.5t80 -57.5q24 -13 42 -27q39 -30 61 -72.5t22 -88.5q0 -41 -18.5 -77zM197 511q13 15 37 15q21 0 28 -9.5t11 -29.5
q5 -22 13.5 -32.5t34.5 -10.5q11 0 29 2q16 2 24 2l20 -1q15 0 22 5l2 2q3 5 3 18q0 54 -19 91.5t-61 65.5q-10 6 -24 8q-16 3 -23.5 10.5t-7.5 32.5q0 14 3 29q2 20 2 29l-2 2q-12 6 -30 7.5t-33.5 1t-20.5 -0.5q-45 0 -48 -10l2 -22q1 -15 2.5 -32.5t1.5 -31.5
q0 -7 -18 -12.5t-22 -7.5q-41 -18 -65.5 -50.5t-24.5 -74.5q0 -43 16 -76t39.5 -56t64.5 -57q46 -36 66 -57q23 -23 36 -43t13 -43t-15 -36.5t-35 -13.5q-23 0 -36.5 17t-13.5 50l1 13q0 28 -39 28q-7 0 -25 2q-25 3 -31 2q-3 0 -19 0.5t-23.5 -10.5t-7.5 -33v-20
q0 -52 12.5 -82.5t30 -43.5t44.5 -25q26 -12 38.5 -24t12.5 -38l-1 -35q3 -12 14.5 -15.5t27.5 -3.5q7 0 15.5 1t12.5 2q22 2 31 2t14 -1q9 1 13.5 9.5t4.5 29.5v22v25q0 10 6 14h1q116 58 116 150q0 45 -22.5 89t-57.5 71l-42 28q-54 34 -82.5 61t-28.5 64q0 22 13 37z" />
    <glyph glyph-name="florin" unicode="&#x192;" horiz-adv-x="478" 
d="M27 316.5q-16 5.5 -16 21.5l1 66q0 45 7 52h-2q64 0 125 3q1 23 1 69q0 66 -6 129q9 16 110 16l71 -1h134l5 -5q0 -89 9 -164q-13 -1 -29 -1q-6 0 -31.5 0.5t-127.5 -6.5q-4 -11 -4 -33l39 -1q12 -1 37 -1q35 0 53 1l5 -7q-4 -8 -4 -21t3 -25q2 -18 2 -24v-61l-5 -5h-4
l-1 -4v4q-8 0 -24 2l-22 1q-13 -4 -76 -4q0 -54 -1 -94.5t-2 -67.5q-4 -108 -4 -162l-7 -5q-21 7 -58 7l-57 -1q-8 0 -8 26q0 8 0.5 13t0.5 7v81l-1 88q0 62 5 104h-3q-12 0 -21 -1q-28 -2 -47 -2q-31 0 -47 5.5zM156 319q-7 -52 -7 -132l1 -143q0 -28 1 -39l54 1
q32 0 55 -5q0 53 4 161q1 26 2 66.5t1 93.5q12 12 107 12q13 0 25 -3v53q0 12 -3 25q-1 5 -2 11.5t-1 15.5q0 10 2 15q-51 -3 -65 -3q-43 0 -53 5h-6q-4 0 -6 5.5t-2 11.5q0 12 3.5 23t8.5 13q26 0 78 4q45 5 80 5l13 -1q5 0 8 1q-7 48 -7 147l-190 -1h-37q-45 0 -73 -6
q6 -64 6 -131q0 -47 -1 -70q-7 -7 -34 -7l-93 1v-48q0 -57 -3 -68q0 -5 21 -7.5t36 -2.5l32 1q10 1 31 1h9z" />
    <glyph glyph-name="sterling" unicode="&#xa3;" horiz-adv-x="486" 
d="M156 674l56 -2q33 0 67 8v-208q0 -68 -1 -102q42 -5 79 -5q14 0 28 3q16 2 22 2q6 -11 6 -31q0 -26 -6 -112h-51q-82 0 -82 -8q0 -11 5 -26t7 -20q30 0 90 -6q66 -6 98 -5l-2 -36q-6 -86 -6 -129q-1 -1 -26 0t-91 1l-136 -1q-28 0 -46 3t-22 12q3 30 3 61q0 26 -2 78
q-3 39 -3 79l-62 1q-21 1 -62 1l-1 1q0 2 -3 34.5t-3 70.5q0 19 6.5 26.5t20 9.5t47.5 2l60 -1q-4 37 -4 85q0 214 14 214zM90 362q-18 2 -29 2q-9 0 -23.5 -1.5t-14.5 -5.5q0 -20 2 -58l1 -58l129 -1q0 -26 2 -82l1 -83q0 -30 -3 -62q23 -8 83 -8l58 1q12 1 30 1h129
q0 49 8 145q-21 -2 -107 5q-16 1 -30.5 2t-25.5 1q-35 0 -35 60q0 11 4 15q42 0 63 1l64 1q-1 3 -1 12q0 15 1.5 31t1.5 24q3 26 3 54q-16 -4 -44 -4q-77 0 -89 13q2 100 2 150t-2 152q-38 -6 -76 -6q-22 0 -33 1q-4 -21 -4 -65q0 -50 -1 -75l-1 -77q0 -31 4 -85l-41 -1z
" />
    <glyph glyph-name="yen" unicode="&#xa5;" horiz-adv-x="530" 
d="M425 247q-17 0 -51 -2q-32 -2 -46 -2q-7 -3 -11.5 -17.5t-6.5 -18.5l126 1q26 0 33 -6l-1 -23q-2 -24 -2 -37q0 -5 0.5 -15t-0.5 -21q-50 0 -101 -3q-66 -2 -99 -2q-9 -16 -28 -62q-8 -23 -18 -44l-22 1q-14 2 -22 2l-106 -1q0 17 6.5 36t19.5 45l9 20q-10 3 -21 3
q-7 0 -15.5 -1t-16.5 -1q-17 0 -27 6l-3 6l-1 49q0 39 12 44q9 -2 30 -2q15 0 41 2q28 2 40 2q4 8 8 17t8 17l-24 -1q-32 -2 -48 -2q-36 0 -62 9q-6 13 -6 32q0 11 2 29l1 28q10 10 79 10l66 -1q21 0 32 1q-1 8 -9 28.5t-11 29.5l-14 36l-11 25q-35 84 -52.5 133.5
t-26.5 100.5l9 -1q10 -2 30 -2q14 0 42 2t41 2h9q22 0 26 -5l18 -57q19 -68 39 -114q21 39 57 119q4 10 10 28.5t31.5 22.5t93.5 3q17 0 25.5 -1.5t10.5 -7.5q-34 -99 -69 -181.5t-76 -155.5q10 -5 25 -5l21 1q14 2 22 2q15 0 23 -5q8 -17 8 -54l-1 -40l1 -4q-13 2 -47 2z
M459 255q-2 8 -2 26l1 30q1 9 1 24q-7 5 -17 5q-7 0 -23 -2q-14 -3 -28 -3q-11 0 -20 3.5t-9 11.5q76 137 144 335q-11 1 -37 1q-56 0 -96 -6q-19 -39 -32 -71q-25 -61 -47 -100q-14 0 -28.5 40.5t-32.5 105.5l-9 32q-9 1 -27 1q-14 0 -40 -2q-28 -2 -41 -2q-8 0 -26 2
q9 -47 25 -92.5t45 -113.5l15 -37q3 -9 9 -21q26 -59 27 -81q-4 -8 -32 -8l-22 1l-62 1q-34 0 -62 -4q0 -8 -2 -26t-2 -28q0 -11 3 -22q25 -8 58 -8q12 0 38 2q31 2 46 1l-22 -50q-18 -9 -92 -9q-9 0 -25 2q-6 -18 -6 -60q0 -12 5.5 -18t22.5 -6l28 1h8q12 0 24 -7
q-6 -14 -10 -21q-9 -19 -17 -40t-9 -36q17 -1 53 1l40 1q22 0 43 -3q2 5 8.5 29t16 46.5t21.5 30.5q56 0 111 3q56 2 84 2q-3 11 -3 24q0 12 2 32t2 25q-18 1 -53 1l-106 -1l3 14q2 3 4.5 16.5t10.5 20.5q9 8 95 8q36 0 46 -1z" />
    <glyph glyph-name="plus" unicode="+" horiz-adv-x="445" 
d="M138 114l-1 1q-3 0 -4.5 14t-1.5 25q0 5 0.5 19.5t1.5 60.5q-5 0 -33 -0.5t-52.5 4t-29.5 13.5q0 22 -2 66t-2 66l6 6l3 -1q40 0 118 10v62q0 60 18 67q12 -6 48 -6q20 0 58 2q28 2 35 2l5 -5q0 -12 -2 -46q-2 -36 -2 -53q0 -11 2.5 -16.5t11.5 -5.5t25 1.5t29 1.5
q54 0 59 -10q-2 -18 -2 -54l1 -48q0 -34 -4.5 -44t-21.5 -10l-96 1l1 -13q0 -19 -4 -55t-4 -54q-7 -7 -19 -9t-33 -2q-31 0 -61 3q-34 2 -43 2l-1 1q-1 1 -3 4zM178 117q66 -3 70 -3q28 0 40 4q0 71 7 93v28q3 6 7.5 8t13.5 2l27 -1l48 -2q16 0 21 5.5t5 18.5l-1 41
q-1 13 -1 40q0 13 2 37h-22q-6 -1 -12 -0.5t-12 0.5q-22 2 -41 2q-23 0 -30 4t-7 15q0 7 1 17t1 26v63q-12 0 -40 -2q-32 -2 -48 -2q-33 0 -49 6q-8 -29 -8 -78l1 -45q-9 -9 -50.5 -12.5t-76.5 -3.5q0 -22 2 -64q2 -40 2 -62q13 -6 60 -6q48 -2 53 -7v2l1 -1l1 -3v-8l3 -110
q8 0 32 -2zM304.5 399h0.5h1l-2 1q0 -1 0.5 -1z" />
    <glyph glyph-name="multiply" unicode="&#xd7;" horiz-adv-x="735" 
d="M692 236q0 -83 3 -166q1 -7 2.5 -20.5t1.5 -22.5q0 -11 -3 -20v-2q0 -10 -35.5 -14.5t-87.5 -4.5q-149 0 -439 8l-88 3l-5 6q5 107 5 192q0 120 -5 268q-1 34 -3 118t-2 150h329h165.5t163.5 -1l-1 -12zM46 721q0 -66 2 -148t3 -114q5 -147 5 -263q0 -84 -5 -189l113 -3
q201 -7 344 -7l72 1q19 0 53 4q36 4 52 4l1 1q0 3 2 7q-6 59 -6 149v74l1 482zM327 466q-44 99 -67 179l104 1q35 1 103 1q-9 -29 -21.5 -57t-33.5 -69q-3 -7 -21 -43t-29 -70l-10 1q-6 16 -25 57zM229 286q-5 -13 -10 -29q-19 -54 -69 -158l-10 3l-1 289q0 141 4 253l10 1
q51 -96 71 -151q9 -25 15 -53q12 -46 21 -67v-4q-12 -25 -31 -84zM484 449q17 37 47 91q32 57 49 97l10 1q0 -59 2 -177l1 -177q0 -88 -3 -177q-6 -2 -9 -2q-15 37 -51 99q-30 53 -46.5 89.5t-23.5 75.5v2q7 41 24 78zM399 514q22 42 34 68t19 54l-178 -1q25 -78 57 -153
q4 -11 14 -31l12 -26q12 31 42 89zM236 412q-6 22 -7 27q-8 34 -14 51q-11 30 -28 66t-35 69q-3 -72 -3 -216l1 -286q38 75 59 138q8 22 14 40q15 44 27 71q-8 18 -14 40zM493.5 293.5q16.5 -36.5 46.5 -89.5q26 -43 41 -76q3 78 3 157q0 64 -2 196q-2 88 -2 132
q-10 -21 -20.5 -40t-18.5 -36q-30 -54 -47 -91t-24 -77q7 -39 23.5 -75.5zM468 105q-5 -10 -32 -13t-69 -3l-53 1l-28 -1q-12 0 -19 1.5t-13 7.5q4 17 21 56q10 24 32 72q27 60 45 104h9q35 -75 107 -225zM319 230q-39 -82 -54 -129q13 -3 58 -3q83 0 133 8q-48 97 -99 209
q-12 -29 -38 -85z" />
    <glyph glyph-name="divide" unicode="&#xf7;" horiz-adv-x="466" 
d="M158 374q0 15 2 45q2 24 2 33l3 6q10 4 29.5 7t40.5 3q54 0 62 -15q-6 -37 -6 -117l-5 -5l-115 1h-3q-10 4 -10 42zM286 452q-14 5 -41 5q-33 0 -73 -7q0 -9 -2 -35q-3 -21 -3 -43q0 -19 4 -30l110 -1q0 74 5 111zM16 194l-1 41q0 48 9 57h419l5 -5q0 -23 -1 -35l-1 -35
q0 -28 4 -49l-5 -7q-107 0 -212 3q-142 2 -211 2l-5 6q0 13 -1 22zM27 176q68 0 206 -2q104 -3 206 -3q-3 21 -3 42q0 23 1 34l1 35h-410q-3 -14 -3 -43q0 -23 2 -63zM158 38q0 15 2 45q2 24 2 33l3 6q10 4 29.5 7t40.5 3q54 0 62 -15q-6 -37 -6 -117l-5 -5l-115 1h-3
q-10 4 -10 42zM281 48q0 36 5 68q-21 6 -45 6q-29 0 -69 -8q0 -9 -2 -35q-3 -21 -3 -43q0 -19 4 -30l110 -1v43z" />
    <glyph glyph-name="equal" unicode="=" horiz-adv-x="466" 
d="M38 395l1 67l5 6h379l5 -5l-1 -76q0 -36 4 -65l-5 -7q-43 0 -102 1t-91 2q-96 3 -192 3l-5 6q0 22 2 68zM46 331q93 0 186 -3q31 -1 88.5 -2t99.5 -1q-3 19 -3 56l1 77h-369q-4 -28 -4 -64zM38 188l1 67l5 6h379l5 -5l-1 -76q0 -36 4 -65l-5 -7q-43 0 -102 1t-91 2
q-96 3 -192 3l-5 6q0 22 2 68zM46 124q93 0 186 -3q31 -1 88.5 -2t99.5 -1q-3 19 -3 56l1 77h-369q-4 -28 -4 -64z" />
    <glyph glyph-name="greater" unicode="&#x3e;" horiz-adv-x="363" 
d="M108 183l33.5 33.5t56.5 51.5q-32 40 -82 88q-24 24 -48.5 50t-42.5 51q9 10 36.5 39.5t41.5 36.5l6 -2q36 -43 117 -122q44 -43 73 -73t55 -63v-6q-32 -42 -69 -79t-95 -90q-60 -54 -88 -82q-5 0 -7 -1q-17 11 -47 43l-31 31v8q33 26 91 86zM52 68l16 -16q6 -3 14.5 -12
t14.5 -14q44 42 81 74q56 51 95 89.5t71 80.5q-25 32 -52 60t-75 75q-6 6 -44 42.5t-69 74.5q-17 -12 -39 -35q-16 -20 -29 -29q27 -36 92 -101q56 -56 81 -87l-1 -7q-34 -27 -94 -89l-32.5 -32.5t-54.5 -49.5q21 -17 25 -24z" />
    <glyph glyph-name="less" unicode="&#x3c;" horiz-adv-x="363" 
d="M262 15q-31 31 -97 91q-80 75 -95 90q-22 22 -36 38t-25 34v4q19 28 68 77l23 23l66 68q44 46 89 92h6q13 -7 45 -39.5t32 -36.5q-27 -36 -92 -101q-56 -56 -81 -87q26 -23 76 -73q68 -68 105 -98v-8l-19 -20q-5 -5 -23.5 -24t-35.5 -30h-6zM232 189q-50 50 -77 74v8
q20 25 81 88q57 55 90 98q-14 9 -26.5 22.5t-14.5 15.5q-11 13 -26 27q-45 -45 -87 -90l-65 -67l-19 -19q-19 -18 -37.5 -37.5t-31.5 -38.5q13 -23 32.5 -43.5t49.5 -48.5l16 -16h1q100 -90 147 -137q16 12 46 44l18 18l6 6q-29 24 -103 96z" />
    </font>
</defs>
</svg>
